<?xml version="1.0" encoding="utf-8"?>
<!-- Generator: Adobe Illustrator 24.3.0, SVG Export Plug-In . SVG Version: 6.00 Build 0)  -->
<svg version="1.1" id="Capa_1" xmlns="http://www.w3.org/2000/svg" xmlns:xlink="http://www.w3.org/1999/xlink" x="0px" y="0px"
	 viewBox="0 0 975 1024" style="enable-background:new 0 0 975 1024;" xml:space="preserve">
<style type="text/css">
	.st0{fill:#FFFFFF;}
</style>
<g>
	<path class="st0" d="M117.07,192.63C304.94-47.31,673.99-46.5,861.18,193c-9.72,2.32-19.42,3.97-28.64,7.03
		c-8.23,2.73-13.12,0.67-18.97-5.78C751.2,125.55,674.83,79.67,584.02,60.68c-141.68-29.62-268.84,2.6-380.42,95.12
		c-16.05,13.31-30.62,28.18-44.37,43.85c-1.37,1.56-2.52,2.87-4.98,2.27c-11.96-2.93-23.95-5.71-35.92-8.58
		C117.89,193.24,117.5,192.88,117.07,192.63z"/>
	<path class="st0" d="M96.84,579.45c-0.41,0.17-0.56,0.28-0.72,0.29c-15.76,1.09-16.13,1.15-18.71-14.12
		c-21.43-126.67,6.5-241.14,87.11-341.48c56.78-70.68,129.69-118.67,217.76-140.3c147.11-36.14,278.73-3.72,391.32,97.94
		c71.5,64.56,113.59,146.31,129.03,241.43c8.27,50.96,6.47,101.82-3.89,152.4c-0.71,3.46-2.05,4.69-5.56,4.35
		c-3.63-0.35-7.32-0.1-10.99-0.14c-0.31,0-0.62-0.21-0.94-0.32c41.78-189.65-51.32-352.45-178.57-432.23
		c-133.76-83.86-309.32-80.91-439.22,7.77C132.55,244.4,58.37,406.91,96.84,579.45z"/>
	<path class="st0" d="M489.37,500.82c-1.85,0.32-2.61,1.75-3.63,2.76c-19.11,19.06-38.29,38.06-57.2,57.32
		c-3.44,3.5-4.52,2.97-6.63-1.04c-18.48-35.19-37.11-70.29-55.8-105.36c-1.38-2.6-1.69-4.49,0.1-7.11
		c40.25-58.78,80.44-117.6,120.53-176.49c2.1-3.08,2.8-2.48,4.59,0.15c40.02,58.74,80.1,117.43,120.25,176.07
		c1.71,2.5,1.94,4.32,0.47,7.08c-18.86,35.36-37.64,70.76-56.26,106.24c-2.1,4.01-3.34,3.41-6.06,0.66
		c-18.99-19.18-38.12-38.22-57.22-57.31C491.47,502.77,490.38,501.78,489.37,500.82z M430.02,531.42c1.77-2.19,2.8-3.72,4.08-5
		c17.17-17.22,34.45-34.33,51.49-51.68c2.87-2.92,4.29-2.52,6.91,0.14c17.32,17.54,34.86,34.87,52.18,52.4
		c2.78,2.81,3.96,3.21,6.02-0.75c12.27-23.59,24.73-47.09,37.33-70.51c1.65-3.07,1.52-5.12-0.44-7.95
		c-12.7-18.32-25.21-36.78-37.78-55.19c-19.33-28.31-38.72-56.57-57.91-84.97c-2.57-3.8-3.7-3.18-5.89,0.15
		c-5.74,8.77-11.76,17.35-17.68,26.01c-26.09,38.2-52.18,76.39-78.26,114.59c-1.18,1.73-2.41,3.18-1.02,5.77
		C402.59,479.61,415.94,504.89,430.02,531.42z"/>
	<path class="st0" d="M897.28,733.29C817.83,858.98,705.05,934.72,558.17,959.4c-1.47-1.92-0.37-2.91-0.01-3.81
		c4.36-11.14,8.87-22.23,13.2-33.38c0.93-2.4,2.22-3.74,4.85-4.28c72.38-14.66,136.85-45.85,193.61-93.02
		c31.19-25.92,58.19-55.7,81.01-89.21c2.05-3.01,4.13-4.01,7.66-3.95c12.66,0.22,25.32,0.09,37.98,0.09
		C896.74,732.33,897.01,732.81,897.28,733.29z"/>
	<path class="st0" d="M421.01,959.1c-70.13-10.29-134.44-34.56-193.23-73.29c-60.57-39.91-109.43-91.08-147.4-153.95
		c14.73,0,28.5,0.05,42.26-0.04c2.68-0.02,3.18,2.15,4.22,3.66c30.58,44.56,67.99,82.34,112.39,113.15
		c49.29,34.2,103.33,57.37,162.16,69.31c1.94,0.39,3.77,0.65,4.69,3.03c4.45,11.46,9.09,22.85,13.64,34.28
		C420.17,956.29,420.46,957.39,421.01,959.1z"/>
	<path class="st0" d="M148.79,731.84c1.65,0,2.66,0.15,3.61-0.02c11.48-2.1,18.62,2.81,26.08,11.84
		c60.84,73.57,138.01,121.06,231.91,139.09c120.69,23.16,230.15-3.67,327.67-78.45c25.89-19.85,48.5-43.15,68.47-68.94
		c2.08-2.69,4.16-3.75,7.46-3.57c4.82,0.25,9.65,0.07,16.17,0.07c-72.91,97.1-167.55,156.01-287.1,171.6
		C369.28,926.1,224.44,840.2,148.79,731.84z"/>
	<path class="st0" d="M59.95,579.86c-11.92,0-23.72-0.06-35.52,0.05c-2.56,0.02-2.39-1.68-2.71-3.25
		c-2.5-12.4-4.26-24.92-5.59-37.49c-3.19-30.04-3.54-60.13-1.06-90.23c2.91-35.44,9.73-70.13,20.46-104.04
		c0.19-0.61,0.55-1.16,1.09-2.28c7.33,11.13,14.17,22.14,21.68,32.67c3.89,5.44,4.6,10.31,3.11,16.94
		c-13.86,61.58-14.39,123.36-1.67,185.22C59.87,578.1,59.86,578.77,59.95,579.86z"/>
	<path class="st0" d="M941.57,342.28c6.16,18.71,10.73,36.91,14.32,55.36c6.44,33.12,9.22,66.57,8.58,100.29
		c-0.49,26-3.21,51.79-7.76,77.4c-0.65,3.66-2.07,4.74-5.76,4.63c-9.65-0.28-19.32-0.19-28.98-0.04c-3.17,0.05-4.19-0.32-3.42-4.03
		c5.97-28.94,8.86-58.21,8.83-87.76c-0.03-34.08-3.97-67.71-11.76-100.89c-0.45-1.93-1.21-3.68,0.13-5.69
		C924.21,368.81,932.57,356,941.57,342.28z"/>
	<path class="st0" d="M488.64,662.01c-12.39-23.41-24.6-46.47-36.81-69.52c-3.81-7.2-7.58-14.43-11.53-21.55
		c-1.39-2.5-1.54-4.16,0.76-6.42c15.2-14.96,30.28-30.05,45.25-45.24c2.25-2.28,3.36-2.03,5.46,0.1
		c14.99,15.17,30.09,30.23,45.22,45.26c1.73,1.72,2.43,3.01,1.1,5.51c-16.14,30.21-32.14,60.5-48.19,90.76
		C489.76,661.17,489.44,661.33,488.64,662.01z M488.98,619.19c8.56-16.14,16.59-31.33,24.68-46.49c0.99-1.86-0.2-2.76-1.24-3.8
		c-7.05-7.06-14.18-14.03-21.11-21.2c-1.91-1.97-2.97-1.69-4.73,0.11c-6.84,7.03-13.79,13.95-20.79,20.81
		c-1.63,1.6-2.17,2.81-0.94,5.09C472.81,588.45,480.58,603.29,488.98,619.19z"/>
	<path class="st0" d="M160.13,479.88c2.77,0,4.36,0,5.95,0c60.77,0,121.54,0.04,182.31-0.09c3.66-0.01,5.69,1.01,7.32,4.3
		c2.95,5.95,6.26,11.73,9.69,17.42c1.97,3.27,1.83,4.3-2.4,4.28c-26.81-0.14-53.61-0.07-80.42-0.07c-31.8,0-63.6-0.07-95.4,0.1
		c-3.74,0.02-6.11-1.14-8.41-3.97C172.97,494.68,166.86,487.76,160.13,479.88z"/>
	<path class="st0" d="M817.47,480.4c-7.19,8.37-14.06,16.39-20.94,24.39c-1.16,1.35-2.76,0.92-4.21,0.92
		c-59.11,0.02-118.22-0.02-177.33,0.08c-4.26,0.01-4.32-1.04-2.39-4.29c3.66-6.14,7.06-12.43,10.47-18.71
		c1.03-1.9,2.12-2.98,4.55-2.98c62.61,0.08,125.21,0.07,187.82,0.08C815.87,479.91,816.31,480.11,817.47,480.4z"/>
	<path class="st0" d="M473.05,728.68c13.99,0,27.98,0.09,41.96-0.07c3.18-0.04,4.22,0.76,4.24,4.11
		c0.05,12.97,0.18,12.97-12.85,12.97c-18.98,0-37.97,0.19-56.95-0.13c-4.96-0.08-4.66,2.34-4.67,5.71c-0.02,3.41-0.23,5.77,4.7,5.7
		c21.14-0.3,42.3-0.06,63.44-0.2c3.36-0.02,4.62,0.77,4.71,4.34c0.3,11.9,0.44,11.9-11.43,11.9c-18.65,0-37.3-0.02-55.95,0.04
		c-1.36,0-3.29-0.87-4,0.81c-0.62,1.46,0.78,2.79,1.64,3.96c3.23,4.39,7.87,5.97,13.08,6c17.82,0.1,35.63,0.22,53.45,0.1
		c3.56-0.03,4.71,0.72,4.92,4.56c0.69,12.55,0.91,12.53-11.54,12.53c-15.65,0-31.31,0.02-46.96-0.01
		c-19.57-0.04-33.15-12.82-33.87-32.41c-0.44-12.14-0.02-24.31-0.21-36.46c-0.05-3.06,1.19-3.51,3.82-3.49
		C444.74,728.73,458.9,728.68,473.05,728.68z"/>
	<path class="st0" d="M788.74,519.06c-7.03,8.25-13.62,15.91-20.11,23.66c-1.71,2.04-3.87,1.59-5.97,1.59
		c-37.48-0.07-74.95-0.19-112.43-0.27c-19.81-0.04-39.63-0.01-60.31-0.01c4.74-8.47,9.17-16.38,13.6-24.29
		c0.79-1.41,2.18-1.32,3.52-1.32c59.8,0.01,119.61,0.03,179.41,0.05C786.92,518.48,787.37,518.71,788.74,519.06z"/>
	<path class="st0" d="M388.09,544.04c-2.2,0-3.53,0-4.85,0c-55.8,0.1-111.6,0.15-167.41,0.38c-3.72,0.01-6.15-1.1-8.45-3.94
		c-5.73-7.08-11.74-13.92-17.63-20.84c1.31-1.85,2.95-1.16,4.3-1.16c58.47-0.04,116.94,0,175.42-0.11c3.33-0.01,5.08,1.08,6.58,3.95
		C379.73,529.35,383.73,536.23,388.09,544.04z"/>
	<path class="st0" d="M580.53,728.68c13.66,0,27.33,0.09,40.99-0.07c3.24-0.04,4.78,0.51,4.71,4.25
		c-0.25,12.16,0.11,24.33-0.3,36.48c-0.6,18.19-13.33,31.11-31.47,31.54c-18.82,0.44-37.66,0.07-56.48,0.17
		c-2.58,0.01-3.52-0.83-3.63-3.38c-0.53-12.49-0.4-24.98-0.19-37.46c0.04-2.19,0.92-3.1,3.31-3.27
		c14.37-1.04,14.34-1.11,14.39,12.97c0.01,4.47-1.47,10.37,0.79,13.02c2.66,3.14,8.76,0.9,13.36,1.01c7.99,0.19,16,0.18,23.99,0.02
		c12.1-0.25,17.65-5.61,18.35-17.62c0.31-5.31,0.13-10.66,0.54-15.96c0.28-3.68-0.79-4.81-4.63-4.78
		c-21.49,0.2-42.99-0.05-64.48,0.21c-4.63,0.06-5.86-1.21-5.73-5.77c0.32-11.35,0.09-11.35,11.5-11.35
		C557.2,728.68,568.87,728.68,580.53,728.68z"/>
	<path class="st0" d="M493.39,926.49c4.26,8.67,8.32,16.31,11.78,24.21c1.69,3.88,4.16,5.38,8.13,5.86
		c8.51,1.01,16.97,2.37,25.66,3.62c-5.77,6.01-10.96,12.01-16.79,17.3c-3.93,3.56-5.9,6.72-4.46,12.37c2.03,8,2.9,16.3,4.37,25.11
		c-7.89-4.12-15.4-7.66-22.49-11.9c-4.33-2.59-7.74-2.82-12.17-0.14c-7.07,4.27-14.6,7.79-22.72,12.04c1.66-9.94,3-19.1,4.82-28.16
		c0.59-2.92-0.24-4.57-2.14-6.52c-6.37-6.53-12.56-13.24-19.04-20.1c7.16-1.07,14.73-2.6,22.37-3.21c5.87-0.47,9.58-2.4,11.87-8.23
		C485.47,941.36,489.47,934.42,493.39,926.49z"/>
	<path class="st0" d="M948.89,295.24c-9.83-2.2-18.57-4.08-27.27-6.14c-2.96-0.7-5.18-0.42-7.56,1.94
		c-6.46,6.39-13.28,12.41-20.69,19.25c-0.91-9.84-1.84-18.67-2.49-27.53c-0.24-3.29-1.32-5.39-4.43-7
		c-7.96-4.11-15.7-8.64-24.49-13.54c6.71-2.96,12.45-6.31,18.65-8.03c8.9-2.47,12.86-7.68,13.52-16.75c0.47-6.4,2.38-12.69,3.83-20
		c6.53,7.34,12.62,14,18.46,20.87c2.03,2.39,3.87,3.39,7.19,2.89c8.99-1.36,18.06-2.18,28.03-3.33
		c-5.02,8.53-9.51,16.43-14.31,24.14c-1.71,2.75-1.73,4.97-0.34,7.81C940.95,277.88,944.62,286.05,948.89,295.24z"/>
	<path class="st0" d="M85.05,316.22c-6.94-6.39-13.29-11.98-19.32-17.88c-3.14-3.07-6.08-4.15-10.58-2.87
		c-8.09,2.32-16.42,3.82-25.68,5.9c3.99-8.71,7.38-16.58,11.2-24.24c1.82-3.65,1.87-6.5-0.46-10.04c-4.73-7.18-8.92-14.72-13.87-23
		c10.11,1.12,19.28,1.94,28.37,3.24c2.92,0.42,4.57-0.35,6.36-2.47c5.91-6.98,12.01-13.79,18.76-21.5
		c1.83,8.76,3.85,16.67,5.02,24.69c0.76,5.17,2.8,8.15,7.87,9.94c7.62,2.69,14.95,6.22,23.48,9.86c-8.3,4.7-15.58,9.19-23.2,12.99
		c-3.98,1.98-5.47,4.63-5.74,8.82C86.74,298.13,85.88,306.57,85.05,316.22z"/>
	<path class="st0" d="M220.39,441.06c7.53-8.86,14.3-16.79,21.04-24.75c0.98-1.16,2.22-1.26,3.59-1.26
		c34.77,0.11,69.54,0.21,104.31,0.33c0.44,0,0.89,0.27,1.87,0.59c-5.74,8.03-11.34,15.8-16.86,23.62c-0.91,1.29-2.06,1.49-3.44,1.49
		C294.48,441.05,258.05,441.06,220.39,441.06z"/>
	<path class="st0" d="M756.99,440.31c-1.81,1.17-3.32,0.72-4.73,0.72c-34.28,0.03-68.56-0.02-102.83,0.09
		c-3.31,0.01-5.47-0.82-7.38-3.68c-4.79-7.17-9.95-14.1-14.93-21.07c1.07-1.66,2.53-1,3.73-1.01c33.44-0.13,66.88-0.18,100.32-0.39
		c3.15-0.02,5.19,0.91,7.17,3.33C744.38,425.72,750.69,432.92,756.99,440.31z"/>
	<path class="st0" d="M409.17,765.35c0,10.66-0.08,21.31,0.05,31.97c0.03,2.71-0.6,3.77-3.56,3.75
		c-18.82-0.13-37.64,0.13-56.45-0.14c-14.14-0.2-26.41-9.6-30.61-22.4c-1.2-3.68-1.14-5.8,3.57-5.27c1.81,0.2,3.67,0.18,5.49,0
		c4.71-0.47,8.39,0.29,11.19,4.99c2.64,4.42,7.76,5.56,12.73,5.63c12.15,0.15,24.31,0.05,36.46,0.16c2.56,0.02,3.47-0.82,3.44-3.44
		c-0.12-10.49-0.19-20.98,0.03-31.47c0.08-3.58-2.02-3.58-4.37-3.67c-8.31-0.31-8.31-0.3-8.31-8.44c0-8.33,0-8.33,8.35-8.33
		c5.83,0,11.67,0.27,17.48-0.09c3.95-0.25,4.65,1.22,4.58,4.79C409.03,744.03,409.18,754.69,409.17,765.35z"/>
	<path class="st0" d="M597.79,376.74c9.19,0,17.31,0,25.43,0c26.47,0,52.93,0.05,79.4-0.06c3.08-0.01,5.21,0.73,7.23,3.23
		c5.92,7.29,12.15,14.33,18.36,21.58c-2.06,1.32-3.75,0.84-5.33,0.84c-33.96,0.03-67.91-0.03-101.87,0.11
		c-3.55,0.01-5.82-0.97-7.81-3.92C608.48,391.49,603.44,384.68,597.79,376.74z"/>
	<path class="st0" d="M249.04,402.34c7.57-8.84,14.26-16.61,20.89-24.42c1.02-1.2,2.29-1.18,3.62-1.18
		c34.95,0.06,69.91,0.12,104.86,0.2c0.26,0,0.53,0.26,1.23,0.62c-5.63,7.86-11.21,15.64-16.78,23.44c-0.76,1.07-1.8,1.35-3.04,1.35
		C323.38,402.34,286.94,402.34,249.04,402.34z"/>
	<path class="st0" d="M277.33,196.4c36.9-1.84,73.8-3.67,110.7-5.53c32.74-1.65,65.47-3.94,98.23-4.77
		c18.59-0.47,37.24,1.35,55.85,2.26c26.26,1.28,52.52,2.65,78.78,4c26.59,1.36,53.19,2.73,79.78,4.44c-141.12,0-282.23,0-423.35,0
		C277.33,196.65,277.33,196.53,277.33,196.4z"/>
	<path class="st0" d="M340.79,209.75c8.66,0,17.33,0.12,25.98-0.06c3.24-0.07,4.36,0.94,4.31,4.25
		c-0.17,11.32-0.14,22.65-0.01,33.98c0.03,3.04-1.01,4.07-4.05,4.05c-17.82-0.1-35.65-0.17-53.47,0.03c-4.8,0.05-3.2-3.1-3.34-5.39
		c-0.15-2.4-0.8-4.87,3.45-4.8c14.32,0.26,28.65-0.05,42.97,0.2c3.83,0.07,4.88-1.04,4.61-4.72c-0.33-4.47-0.3-9-0.01-13.48
		c0.22-3.39-1.07-4.14-4.23-4.1c-13.99,0.15-27.99-0.09-41.97,0.17c-4.01,0.07-5.11-1.1-4.98-5.01c0.12-3.5,0.35-5.43,4.76-5.22
		C323.46,210.04,332.13,209.75,340.79,209.75z"/>
	<path class="st0" d="M509.57,209.37c6.16,0,12.32,0.06,18.48-0.03c2.53-0.04,3.4,0.5,1.99,3.06c-6.92,12.51-13.8,25.04-20.55,37.64
		c-1.04,1.94-2.43,1.89-4.1,1.88c-10.16-0.01-20.32-0.12-30.47,0.06c-3.04,0.05-3.54-1.17-3.52-3.8c0.1-11.66,0.14-23.32-0.02-34.97
		c-0.04-3.15,1.07-3.99,4.05-3.93c2.76,0.05,4.29,0.42,4.2,3.78c-0.21,8.32,0.05,16.65-0.13,24.98c-0.07,3.02,0.75,4.09,3.89,3.95
		c5.48-0.25,10.99-0.21,16.48-0.01c2.68,0.1,4.19-0.69,5.37-3.2c2.7-5.71,5.71-11.27,8.67-16.84c1.23-2.32,1.33-3.61-1.94-3.49
		c-4.32,0.16-8.67,0.22-12.98-0.02c-3.07-0.17-4.3,3.63-7.85,2.84c-2.51-0.56-4.06-0.74-3.72-3.71c0.17-1.48,0.15-3.01,0-4.49
		c-0.28-2.8,0.8-3.83,3.67-3.75C497.24,209.49,503.41,209.37,509.57,209.37z"/>
	<path class="st0" d="M660.54,764.91c0,10.64-0.1,21.29,0.06,31.93c0.05,3.18-0.77,4.24-4.15,4.26
		c-13.21,0.06-13.3,0.19-13.29-12.94c0.01-18.45,0.23-36.91,0.19-55.36c-0.01-3.26,0.98-4.18,4.26-4.2
		c12.94-0.06,12.93-0.18,12.93,12.87C660.54,749.28,660.54,757.1,660.54,764.91z"/>
	<path class="st0" d="M411.37,219.08c-5.38,10.14-10.49,19.63-15.43,29.21c-1.25,2.43-2.44,4.22-5.58,3.67
		c-3.62-0.64-7.74,1.58-10.37-3.45c-5.23-9.99-6.41-20.2-3.15-30.88c2.22-7.31,3.74-8.16,12.18-7.61
		c-4.38,6.35-6.15,13.23-6.01,20.61c0.06,3.2,0.7,6.27,1.83,9.24c0.47,1.24,0.94,2.79,2.35,3.01c1.73,0.26,1.84-1.63,2.4-2.69
		c4.83-9.1,9.56-18.26,14.35-27.38c1.98-3.76,11.99-4.73,14.03-1.18c7.5,13.09,14.78,26.3,22.6,40.29c-3.17,0-5.59-0.17-7.97,0.05
		c-2.53,0.23-3.8-0.81-4.96-3.02C422.46,239.15,417.05,229.46,411.37,219.08z"/>
	<path class="st0" d="M388.8,710.03c-4.66,0-9.33-0.14-13.98,0.06c-2.66,0.11-3.36-1.02-3.62-3.42
		c-1.31-11.94,4.36-18.53,16.32-18.65c7.82-0.08,15.66,0.13,23.47-0.08c3.65-0.1,3.87,1.74,3.96,4.62c0.1,3.19-1.19,3.98-4.11,3.93
		c-7.66-0.14-15.32-0.09-22.98-0.01c-1.8,0.02-3.7,0.2-5.38,0.79c-1.42,0.51-2.44,2.05-2.23,3.59c0.27,1.98,2.13,1.08,3.25,1.09
		c8.82,0.08,17.66,0.28,26.47-0.06c4.14-0.16,5.11,1.45,5.2,5.13c0.3,11.12-4.61,16.54-15.64,16.66
		c-8.16,0.09-16.32-0.04-24.48,0.05c-2.34,0.03-3.88-0.3-3.67-3.18c0.17-2.41-0.62-5.21,3.32-5.2c7.49,0.01,14.98-0.05,22.47-0.09
		c1.5-0.01,3.01,0.06,4.49-0.13c2.32-0.28,4.6-1.42,4.32-3.9c-0.25-2.21-2.74-1.1-4.22-1.15
		C397.46,709.94,393.12,710.03,388.8,710.03z"/>
	<path class="st0" d="M345.5,696.42c-4.82,0.01-9.65,0.09-14.47-0.03c-2.31-0.06-3.24,0.66-3.22,3.11c0.02,2.51,1.44,2.52,3.22,2.52
		c8.65-0.03,17.3-0.07,25.95,0.02c2.8,0.03,6.26-1.49,6.22,4.11c-0.04,5.88-3.9,3.73-6.44,3.79c-8.15,0.22-16.3,0.04-24.45,0.13
		c-1.12,0.01-2.97-0.92-3.26,1.09c-0.2,1.45,1.11,2.32,2.32,2.96c2.13,1.14,4.49,1.13,6.81,1.14c7.15,0.04,14.32,0.26,21.46-0.08
		c4.12-0.19,3.95,2.23,4.26,4.96c0.41,3.54-1.63,3.62-4.24,3.59c-7.48-0.1-14.97,0.07-22.45-0.06
		c-12.07-0.21-17.75-5.76-18.12-17.64c-0.15-4.65,0.02-9.32-0.09-13.97c-0.06-2.55,0.93-3.45,3.52-3.42
		c12.81,0.11,25.62,0.13,38.43-0.01c2.85-0.03,3.27,1.26,3.27,3.59c0.01,2.36-0.02,4.31-3.25,4.23
		C355.82,696.33,350.66,696.41,345.5,696.42z"/>
	<path class="st0" d="M524.59,723.43c-5.25,0.96-10.03,0.5-13.69-4.2c-1.32-1.7-3.19-2.96-4.53-4.64
		c-2.81-3.56-6.27-5.23-10.85-4.58c-2.81,0.4-4.56-0.06-4.54-3.82c0.02-3.77,1.47-4.41,4.72-4.26c4.82,0.22,9.66,0.07,14.48,0.04
		c1.66-0.01,3.33-0.04,4.76-1.15c0.99-0.77,1.74-1.88,1.62-2.95c-0.19-1.74-1.84-0.95-2.82-0.96c-7.83-0.07-15.65,0.07-23.48-0.1
		c-2.71-0.06-3.37,0.86-3.31,3.42c0.16,6.66-0.09,13.32,0.12,19.98c0.09,2.97-1.02,3.79-3.75,3.54c-2.38-0.22-5.23,0.74-5.2-3.33
		c0.07-9.82,0.08-19.65-0.03-29.47c-0.03-2.59,1.2-2.98,3.37-2.97c13.82,0.06,27.64,0.08,41.46-0.01c2.42-0.02,3.11,0.81,3.12,3.16
		c0.05,8.25-0.73,15.85-10.58,18.43c-2.96,0.78-0.95,2.22-0.03,3.09c3.38,3.15,6.88,6.18,10.34,9.26
		C525.39,722.41,524.99,722.92,524.59,723.43z"/>
	<path class="st0" d="M446,723.71c-6.32,0-12.64-0.06-18.97,0.03c-2.77,0.04-4.32-0.6-4.1-3.9c0.37-5.64,0.04-11.33,0.56-16.94
		c0.88-9.46,6.07-14.47,15.56-14.82c9.14-0.33,18.3,0.02,27.45-0.12c4.14-0.06,3.16,2.73,3.39,5.1c0.27,2.83-0.79,3.76-3.64,3.71
		c-8.82-0.16-17.64-0.11-26.46-0.04c-5.74,0.05-7.64,2.01-7.91,7.83c-0.49,10.42-0.49,10.42,9.76,10.42
		c5.49,0,10.98-0.01,16.47,0.01c1.57,0.01,2.97,0.07,2.91-2.24c-0.05-1.84-0.57-2.89-2.55-2.72c-4.15,0.36-3.19-2.61-3.35-4.98
		c-0.22-3.26,2.05-2.74,4-2.8c10.9-0.3,10.9-0.3,10.9,10.4c0,11.05,0,11.05-11.05,11.05C454.65,723.71,450.32,723.71,446,723.71z"/>
	<path class="st0" d="M659.99,705.86c0,4.83-0.16,9.67,0.05,14.49c0.16,3.56-2.13,3.08-4.26,3.06c-2.09-0.02-4.66,0.6-4.37-2.97
		c0.04-0.5,0.01-1,0-1.5c-0.14-8.84-0.14-8.86-8.91-8.91c-5-0.03-10,0.08-14.99-0.03c-3.75-0.08-6.14,0.91-5.38,5.33
		c0.19,1.13-0.09,2.34,0.05,3.49c0.38,3.2-0.38,4.75-4.19,4.75c-3.81,0-4.37-1.57-4.23-4.77c0.21-5.16-0.08-10.33,0.12-15.49
		c0.31-8.07,4.95-13.53,12.94-14.68c10.09-1.45,20.29-0.35,30.44-0.6c2.38-0.06,2.63,1.56,2.63,3.35c0.01,4.83,0,9.66,0,14.48
		C659.92,705.86,659.96,705.86,659.99,705.86z M637.08,701.95c0-0.05,0-0.09,0-0.14c3.82,0,7.63-0.02,11.45,0.01
		c1.88,0.01,2.7-0.82,2.62-2.73c-0.05-1.32-0.27-2.24-1.87-2.23c-6.97,0.05-13.94,0.01-20.91,0.16c-1.07,0.02-2.2,0.73-3.18,1.33
		c-0.99,0.6-2.01,1.5-1.64,2.78c0.36,1.22,1.7,0.76,2.57,0.78C629.78,702,633.43,701.95,637.08,701.95z"/>
	<path class="st0" d="M449.83,158.09c0-6.28,0.21-12.57-0.07-18.84c-0.22-4.86,3.16-3.1,5.39-3.27c2.38-0.18,4.92-0.85,4.79,3.43
		c-0.31,10.63-0.03,21.28-0.17,31.92c-0.02,1.71,1.38,4.8-1.54,4.91c-3.26,0.12-7.3,2.21-9.76-2.33
		c-3.71-6.85-7.69-13.55-12.46-20.28c0,6.31-0.3,12.64,0.1,18.93c0.3,4.76-2.62,3.85-5.36,3.97c-2.89,0.13-4.98,0.18-4.86-3.97
		c0.31-10.47,0.03-20.95,0.18-31.42c0.02-1.7-1.37-4.85,1.33-4.95c3.39-0.13,7.62-2.32,10.16,2.45c3.57,6.69,7.46,13.22,11.2,19.82
		C449.12,158.33,449.48,158.21,449.83,158.09z"/>
	<path class="st0" d="M668.9,229.69c-7.32,7.24-14.27,14.11-21.23,20.98c-0.12,0.12-0.24,0.23-0.38,0.32
		c-1.91,1.38-22.12,1.63-23.81-0.07c-7.09-7.12-14-14.43-20.88-21.57c7.85-2.17,13.98,0.46,19.14,6.94
		c2.15,2.71,4.88,7.66,7.97,6.46c3.2-1.23,1.02-6.51,1.18-9.98c0.3-6.47,0.3-12.98,0-19.45c-0.16-3.49,1.47-3.69,4.15-3.62
		c2.68,0.07,4.74-0.14,4.61,3.8c-0.31,8.8-0.12,17.62-0.07,26.44c0.01,1.22-0.64,2.88,0.96,3.53c1.55,0.63,2.33-0.92,3.24-1.78
		c1.82-1.71,3.85-3.3,5.25-5.31C653.77,229.57,660.15,227.55,668.9,229.69z"/>
	<path class="st0" d="M555,156.21c0,5.66-0.21,11.33,0.07,16.98c0.22,4.36-2.72,3.35-4.96,3.24c-2.1-0.1-5.5,1.5-5.13-3.03
		c0.11-1.32,0.02-2.66,0.02-3.99c0-10-1.98-11.52-12.01-9.68c-1.89,0.35-1.99,1.3-1.98,2.7c0.02,3.66-0.18,7.34,0.05,10.98
		c0.26,4.08-2.6,3.12-4.68,3.01c-2.11-0.11-5.31,1.49-5.26-2.99c0.12-11.48,0.14-22.97-0.01-34.46c-0.06-4.54,3.12-2.92,5.19-2.97
		c1.93-0.04,5.12-1.43,4.73,2.81c-0.11,1.16-0.02,2.33-0.01,3.49c0,10.08,1.75,11.42,11.99,9.67c1.89-0.32,2.01-1.24,2-2.66
		c-0.02-3.5,0.16-7-0.05-10.48c-0.26-4.23,2.83-2.96,4.74-2.79c1.95,0.17,5.55-2.04,5.32,2.69c-0.01,0.17,0,0.33,0,0.5
		C555,144.89,555,150.55,555,156.21z"/>
	<path class="st0" d="M423.96,135.93c-4.09,5.39-7.28,10-10.91,14.25c-2.19,2.57-2.43,4.5-0.52,7.39
		c3.9,5.89,7.37,12.06,10.71,18.63c-4.28-1.06-9.29,3.08-12.58-2.42c-2.29-3.83-4.48-7.72-6.76-11.64c-4.7,2.05-4.42,6.05-3.97,9.71
		c0.55,4.49-1.77,4.66-5.22,4.74c-3.52,0.08-4.94-0.6-4.83-4.58c0.31-10.8,0.35-21.62-0.01-32.41c-0.15-4.56,2.53-3.64,5.04-3.67
		c2.59-0.03,5.46-0.74,5.01,3.75c-0.38,3.87-0.08,7.81-0.08,13.25c3.2-4.61,5.91-7.74,7.72-11.32c2.46-4.86,6-6.6,11.2-5.72
		C420.05,136.11,421.39,135.93,423.96,135.93z"/>
	<path class="st0" d="M515.84,163.24c0,9.37-0.78,10.56-8.27,12.62c-10.06,2.76-18.8,0.52-22.62-6.59
		c-4.61-8.59-4.55-17.66-0.02-26.28c3.34-6.35,10.13-8.64,18.66-7.23c6.34,1.05,10.19,4.56,11.58,10.14
		c0.58,2.34,0.31,3.33-2.38,3.25c-3.39-0.11-6.35,0.41-8.43-3.84c-2-4.07-9.07-2.76-10.92,1.89c-2.28,5.73-2.28,11.77-0.13,17.57
		c1.43,3.86,6.85,5.54,10.63,3.83c2.24-1.01,1.8-2.87,1.87-4.67c0.11-2.56-1.67-2.6-3.35-2.4c-3.01,0.35-3.51-1.07-3.58-3.75
		c-0.07-3.03,1.48-3.17,3.7-3.04c1.66,0.09,3.33,0.02,4.99,0.02C515.84,154.76,515.84,154.76,515.84,163.24z"/>
	<path class="st0" d="M572.26,688.01c5.16,0,10.32-0.1,15.47,0.02c10.86,0.26,16.66,5.54,17.53,16.27
		c0.43,5.29,0.13,10.64,0.31,15.95c0.13,3.97-2.55,3.34-5.04,3.5c-2.73,0.18-3.9-0.61-3.77-3.57c0.21-4.82,0.21-9.65,0-14.47
		c-0.27-6.23-2.7-8.87-8.86-9.1c-8.14-0.3-16.3-0.11-24.45-0.19c-2.6-0.03-3.39,1.14-3.34,3.66c0.14,6.65-0.07,13.31,0.1,19.96
		c0.07,2.78-0.72,4-3.63,3.69c-2.22-0.23-4.72,0.64-4.66-3.24c0.13-9.65,0.01-19.29-0.11-28.94c-0.04-2.9,1.32-3.65,3.98-3.59
		C561.28,688.1,566.77,688.01,572.26,688.01z"/>
	<path class="st0" d="M641.29,806.82c5.33,0,10.67,0.09,16-0.04c2.32-0.06,3.3,0.65,3.33,3.08c0.03,2.45-0.58,3.64-3.34,3.61
		c-7.16-0.06-14.33-0.05-21.47,0.34c-2.03,0.11-5.84-2.07-5.99,1.91c-0.16,4.24,3.78,2.04,5.75,2.14c6.65,0.34,13.32,0.22,19.99,0.2
		c2.77-0.01,4.18,0.77,4.12,4.01c-0.08,3.63-2.37,2.92-4.42,2.92c-7.17,0.03-14.33-0.02-21.5,0.05c-1.01,0.01-2.61-0.68-2.85,1.04
		c-0.18,1.3,0.99,2.23,2.1,2.47c2.42,0.53,4.91,0.98,7.38,1.05c5.66,0.15,11.33,0.14,16.99,0.01c2.38-0.05,2.83,1.11,2.63,3.05
		c-0.18,1.64,0.87,4.06-2.2,3.98c-7.98-0.19-16.01,0.81-23.94-0.58c-7.86-1.38-11.33-5.28-11.65-13.21
		c-0.21-5.12-1.61-11.49,0.83-15.03c2.19-3.18,9-0.64,13.76-0.99C638.28,806.73,639.79,806.82,641.29,806.82z"/>
	<path class="st0" d="M567,219.57c-9.66,0-19.33-0.23-28.98,0.1c-4.79,0.16-3.82-2.77-3.94-5.49c-0.12-2.84-0.28-5.04,3.92-4.99
		c19.32,0.21,38.65,0.23,57.97-0.01c4.78-0.06,3.82,2.77,3.93,5.49c0.12,2.84,0.28,5.12-3.93,4.99
		C586.32,219.37,576.66,219.57,567,219.57z"/>
	<path class="st0" d="M925.51,675.85c0.08,0.81,0.15,0.99,0.1,1.12c-5.65,14.88-5.65,14.88-21.52,14.88c-8.61,0-17.22,0-26.55,0
		c2.56-5.23,4.9-9.91,7.12-14.64c0.76-1.63,2.1-1.35,3.37-1.35C900.5,675.85,912.96,675.85,925.51,675.85z"/>
	<path class="st0" d="M567.02,241.92c9.64,0,19.29,0.26,28.91-0.11c4.82-0.19,3.77,2.7,3.92,5.39c0.17,2.92,0.13,4.88-3.97,4.83
		c-19.28-0.23-38.56-0.26-57.83,0.01c-4.8,0.07-3.76-2.7-3.92-5.39c-0.17-2.92-0.14-4.97,3.97-4.83
		C547.73,242.14,557.38,241.92,567.02,241.92z"/>
	<path class="st0" d="M100.48,691.85c-13.52,0-26.3-0.02-39.07,0.03c-1.73,0.01-2.71-0.55-3.4-2.19c-1.87-4.4-3.91-8.73-6.22-13.83
		c13.49,0,26.35,0.02,39.2-0.02c1.42,0,2.04,0.72,2.58,1.85C95.72,682.14,97.9,686.58,100.48,691.85z"/>
	<path class="st0" d="M440.89,822.27c0,3.83-0.15,7.66,0.04,11.48c0.16,3.12-1.73,2.93-3.85,3c-2.14,0.06-3.25-0.29-3.41-2.9
		c-0.48-7.99-0.62-7.99-8.6-7.99c-3.83,0-7.66,0.15-11.48-0.05c-2.64-0.14-3.62,0.78-3.36,3.39c0.16,1.65-0.07,3.33,0.04,4.99
		c0.16,2.47-1.35,2.6-3.19,2.54c-1.84-0.06-3.74,0.31-3.71-2.59c0.08-8.15,0.05-16.31,0.01-24.46c-0.02-2.97,2.1-2.34,3.84-2.47
		c1.97-0.14,2.91,0.41,3.11,2.7c0.68,8.05,0.79,8.04,9.13,8.04c3.33,0,6.68-0.23,9.98,0.06c3.6,0.32,4.53-1.09,4.43-4.5
		c-0.06-2.03-1.57-4.87,1.34-6.18c3.28-1.48,5.63,0.26,5.67,3.96C440.92,814.95,440.89,818.61,440.89,822.27z"/>
	<path class="st0" d="M945.72,620.14c-3.2,15.73-3.2,15.73-18.56,15.72c-7.96,0-15.93-0.02-23.89-0.06c-0.29,0-0.57-0.21-0.94-0.36
		c0.08-0.46,0.11-0.95,0.26-1.4c1.66-4.64,2.09-10.93,5.39-13.41c3.1-2.34,9.23-0.73,14.03-0.76c7.47-0.04,14.93,0,22.4,0.02
		C944.73,619.89,945.05,620.01,945.72,620.14z"/>
	<path class="st0" d="M76,635.86c-12.49,0-24.44,0-36.38,0c-1.52,0-2.95,0.08-3.51-1.89c-1.3-4.59-2.73-9.14-4.23-14.11
		c12.44,0,24.38,0.06,36.32-0.05c2.13-0.02,2.84,0.97,3.38,2.7C72.92,626.76,74.37,630.97,76,635.86z"/>
	<path class="st0" d="M337.93,836.45c-4.66,0-9.32-0.18-13.97,0.06c-3.13,0.17-4.58-0.78-4.66-4.04c-0.11-4.98-0.48-9.95,0.49-14.9
		c1.4-7.16,4.84-10.36,12.25-10.57c6.98-0.2,13.97,0.06,20.95-0.11c2.44-0.06,3.15,0.82,3.27,3.09c0.12,2.36-0.79,3.43-3.07,3.44
		c-5.49,0.02-10.98-0.07-16.47,0.05c-8.76,0.2-13.05,6.3-10.7,14.78c0.65,2.33,2.3,1.49,3.57,1.5c7.82,0.08,15.63,0.06,23.45,0.03
		c1.91-0.01,3.63-0.25,3.31,2.73c-0.26,2.34-0.2,4.16-3.46,4C347.92,836.27,342.92,836.45,337.93,836.45z"/>
	<path class="st0" d="M575.49,135.92c4.32,0,8.65,0.18,12.96-0.06c3.11-0.18,3.57,1.26,3.44,3.85c-0.11,2.26,0.15,4.05-3.22,4.17
		c-8.84,0.32-8.83,0.5-8.83,9.23c0,6.65-0.19,13.31,0.07,19.95c0.18,4.7-3.03,3.28-5.39,3.43c-2.48,0.16-4.96,0.59-4.8-3.52
		c0.29-7.47,0.13-14.96,0.07-22.44c-0.06-7.71,1.01-6.62-6.47-6.74c-0.5-0.01-1.01-0.08-1.49,0.01c-3.67,0.66-3.79-1.46-3.97-4.32
		c-0.22-3.51,1.49-3.68,4.15-3.6C566.51,136.03,571,135.92,575.49,135.92z"/>
	<path class="st0" d="M458.12,222.01c-2.39,0.37-3.38,1.87-4.25,3.09c-2.9,4.06-5.24,3.6-8.18-0.09c-1.62-2.04-2.38-3.24-0.11-5.2
		c2.13-1.84,4.25-3.81,5.86-6.09c3.16-4.47,7.55-4.7,12.33-4.47c2.17,0.1,2.88,0.91,2.87,3c-0.05,12.29-0.1,24.59,0.01,36.88
		c0.03,3.71-2.48,2.69-4.44,2.8c-2.18,0.11-4.25,0.45-4.17-3.07C458.26,239.99,458.12,231.09,458.12,222.01z"/>
	<path class="st0" d="M566.99,235.78c-6,0-12.01-0.23-17.99,0.08c-4.08,0.21-3.79-2.25-3.56-4.77c0.21-2.27-1.5-5.54,3.31-5.46
		c12.16,0.2,24.33,0.2,36.49,0c4.81-0.08,3.1,3.19,3.31,5.46c0.23,2.52,0.52,4.98-3.56,4.77C579,235.56,572.99,235.78,566.99,235.78
		z"/>
	<path class="st0" d="M476.18,156.25c0,5.66-0.18,11.32,0.06,16.97c0.18,4.34-2.78,3.29-5.03,3.24c-2.19-0.04-5.19,1.25-5.12-3.16
		c0.18-11.48,0.13-22.96,0.02-34.44c-0.04-4.59,3.27-2.75,5.29-2.84c1.92-0.09,4.95-1.45,4.82,2.76
		C476.05,144.6,476.18,150.43,476.18,156.25z"/>
	<path class="st0" d="M547.99,821.92c0-3.83,0.12-7.67-0.04-11.49c-0.11-2.61,0.87-3.4,3.44-3.53c2.84-0.14,2.82,1.33,2.79,3.33
		c-0.06,5.33,0.08,10.66-0.06,15.99c-0.07,2.55,0.73,3.6,3.4,3.49c4.32-0.17,8.66-0.04,12.99-0.05c2.23-0.01,4.41-0.39,5.79-2.32
		c1.91-2.65,4.57-1.29,6.9-1.42c2.19-0.12,1.13,1.51,0.84,2.43c-1.22,3.96-3.76,6.79-7.92,7.44c-8.59,1.35-17.27,0.4-25.91,0.6
		c-2.23,0.05-2.25-1.38-2.23-2.98C548.01,829.58,547.99,825.75,547.99,821.92z"/>
	<path class="st0" d="M542.61,705.94c0,4.81-0.11,9.63,0.04,14.44c0.08,2.61-0.87,3.63-3.46,3.37c-2.18-0.21-4.97,0.77-4.99-2.97
		c-0.04-9.95-0.09-19.9-0.1-29.86c0-3.81,2.93-2.75,5.06-2.94c2.53-0.22,3.55,0.93,3.48,3.52
		C542.52,696.32,542.61,701.13,542.61,705.94z"/>
	<path class="st0" d="M836.38,691.85c2.88-5.31,5.38-9.9,7.85-14.51c0.75-1.4,1.95-1.52,3.35-1.51c4.96,0.05,9.93,0.02,15.43,0.02
		c-1.79,5.48-4.87,9.94-7.26,14.71c-0.49,0.99-1.39,1.3-2.47,1.3C847.9,691.84,842.51,691.85,836.38,691.85z"/>
	<path class="st0" d="M114.48,675.85c2.62,0,4.11,0,5.59,0c14.17-0.02,15.98,1.33,20.91,16c-5.38,0-10.62-0.03-15.86,0.02
		c-1.48,0.01-2.46-0.44-3.16-1.83C119.65,685.53,117.24,681.07,114.48,675.85z"/>
	<path class="st0" d="M886.11,619.86c-0.73,5.22-3.01,9.53-4.42,14.1c-0.47,1.52-1.49,1.95-3.03,1.93
		c-4.82-0.07-9.64-0.03-15.07-0.03c1.86-5.1,3.62-9.72,5.2-14.41c0.5-1.48,1.44-1.6,2.65-1.59
		C876.25,619.87,881.05,619.86,886.11,619.86z"/>
	<path class="st0" d="M114.42,635.86c-5.51,0-10.44-0.01-15.38,0.01c-1.06,0-2.02-0.15-2.42-1.27c-1.52-4.22-3.08-8.43-4.5-12.68
		c-0.68-2.05,0.82-2.06,2.23-2.06c4,0.01,7.99,0.03,11.99-0.01c1.45-0.01,2.42,0.26,2.96,1.91
		C110.81,626.29,112.55,630.75,114.42,635.86z"/>
	<path class="st0" d="M486.97,821.67c0-3.5,0.07-6.99-0.03-10.49c-0.07-2.38-0.03-4.08,3.27-4.08c3.35,0,3.78,1.49,3.71,4.26
		c-0.16,6.99-0.1,13.98-0.08,20.97c0.01,2.53-0.7,3.82-3.69,3.86c-3.36,0.05-3.28-1.71-3.21-4.04
		C487.04,828.67,486.97,825.17,486.97,821.67z"/>
	<path class="st0" d="M573.81,712.05c0-1.98-0.01-3.97,0-5.95c0.02-5.24,0.84-5.84,6.07-5.15c1.7,0.22,2.29,0.88,2.29,2.46
		c-0.02,5.79-0.05,11.58,0.02,17.36c0.04,3.75-2.72,2.44-4.59,2.62c-2.08,0.2-4.02,0.17-3.82-2.92
		C573.96,717.68,573.81,714.86,573.81,712.05z"/>
</g>
</svg>
