<?xml version="1.0" encoding="utf-8"?>
<!-- Generator: Adobe Illustrator 24.3.0, SVG Export Plug-In . SVG Version: 6.00 Build 0)  -->
<svg version="1.1" id="Capa_1" xmlns="http://www.w3.org/2000/svg" xmlns:xlink="http://www.w3.org/1999/xlink" x="0px" y="0px"
	 viewBox="0 0 975 1024" style="enable-background:new 0 0 975 1024;" xml:space="preserve">
<style type="text/css">
	.st0{fill:#FFFFFF;}
</style>
<g>
	<path class="st0" d="M150.1,249.91c165.25-223.73,513.87-232.03,688.22,4.23c-3.32,1.34-6.77,0.83-10.06,1.15
		c-8.99,0.87-18.01,1.37-27,2.22c-2.86,0.27-4.02-1.63-5.44-3.31c-12.65-14.99-26.29-29.01-41.03-41.95
		c-54.28-47.64-116.78-78.51-187.74-92.21c-29.56-5.71-59.38-8.14-89.41-6.83c-89.42,3.91-168.87,34.19-238.09,91.03
		c-16.44,13.5-31.62,28.33-45.56,44.41c-1.05,1.21-1.93,2.51-4,2.43C176.93,250.62,163.87,250.3,150.1,249.91z"/>
	<path class="st0" d="M492.3,130.75c100.33,1.26,187.81,35.14,260.89,104.29c60.8,57.52,98.08,128,112.48,210.45
		c8.33,47.7,7.11,95.3-2.72,142.7c-0.58,2.81-1.54,4.27-4.66,3.92c-3.56-0.4-8.47,1.51-10.4-0.72c-1.96-2.27,0.74-6.72,1.43-10.2
		c4.96-25.34,7.65-50.94,7.06-76.74c-2.02-88.64-31.41-167.05-89.72-234.02c-51.28-58.89-115.2-97.69-191.32-115.26
		c-83.28-19.23-164.26-11.09-240.99,26.79c-101.55,50.13-166.71,130.94-195.13,240.6c-14.2,54.8-14.04,110.21-1.99,165.52
		c0.76,3.48,0.02,4.06-3.22,4.06c-11.38,0.01-11.34,0.1-13.36-10.95c-3.98-21.8-6.35-43.74-6.56-65.94
		c-0.92-99.23,31.58-186.03,97.76-259.77c53.69-59.82,120.46-97.98,198.81-115.89C435.2,133.97,463.66,130.95,492.3,130.75z"/>
	<path class="st0" d="M492.65,310.03c10.27,15.04,20.35,29.82,30.44,44.6c26.49,38.79,52.93,77.61,79.55,116.31
		c2.19,3.18,2.29,5.42,0.47,8.81c-16.68,31.17-33.16,62.44-49.7,93.69c-2.58,4.87-2.59,4.87-6.37,1.09
		c-16.94-16.94-33.94-33.82-50.76-50.88c-2.77-2.82-4.28-3.22-7.3-0.14c-16.98,17.32-34.3,34.31-51.31,51.6
		c-3.01,3.06-3.97,2.39-5.73-0.96c-16.74-31.82-33.6-63.57-50.47-95.32c-1.2-2.25-1.72-3.98,0.01-6.49
		c36.34-53.03,72.56-106.13,108.81-159.22C490.96,312.13,491.73,311.23,492.65,310.03z M492.67,342.71
		c-0.66,0.73-1.11,1.13-1.44,1.61c-29.46,43.14-58.89,86.3-88.42,129.39c-1.61,2.35-1.07,4.02,0.07,6.14
		c11.31,21.25,22.64,42.48,33.75,63.84c1.85,3.55,2.9,3.32,5.46,0.72c15.67-15.87,31.55-31.52,47.19-47.41
		c2.53-2.57,3.84-2.46,6.3,0.04c15.65,15.88,31.51,31.56,47.21,47.39c2.33,2.35,3.49,3.34,5.5-0.54
		c11.22-21.63,22.7-43.12,34.17-64.62c1.03-1.94,1.24-3.37-0.09-5.32C552.52,430.37,522.73,386.73,492.67,342.71z"/>
	<path class="st0" d="M131.75,230.11c-1.77-4.63-3.26-9.05-5.16-13.29c-1.11-2.49,0.52-3.66,1.7-5.09
		c28.12-34.15,60.18-64.06,96.6-89.23c54.47-37.65,114.27-62.74,179.29-75.22c34.42-6.61,69.21-9.44,104.23-8.01
		c110.57,4.52,208.06,42.6,292.13,114.68c23.74,20.36,44.97,43.12,64.22,67.77c2.02,2.59,2.25,4.48,0.36,7.11
		c-2.18,3.04-3.99,6.35-5.79,9.26C767.02,121.01,647.6,56.05,497.73,54.34C347.89,52.63,226.94,114.75,131.75,230.11z"/>
	<path class="st0" d="M861.92,729.62c-32.83,54.39-74.66,99.02-126.25,134.43c-54.84,37.65-115.24,61.15-181.86,70.97
		c3.87-9.79,7.79-18.73,10.91-27.95c2.13-6.31,5.49-9.09,12.36-10.58c67.58-14.67,127.23-45.21,178.98-91.11
		c24.23-21.49,45.49-45.61,63.66-72.42c1.72-2.54,3.57-3.46,6.61-3.42C837.85,729.73,849.39,729.62,861.92,729.62z"/>
	<path class="st0" d="M123.05,729.62c13.32,0,25.76,0.03,38.2-0.03c1.92-0.01,2.56,1.3,3.39,2.51
		c38.16,55.81,87.32,99.2,147.36,130.21c31.99,16.52,65.71,28.24,100.99,35.43c1.95,0.4,3.7,0.58,4.6,2.89
		c4.36,11.19,8.87,22.33,13.69,34.37c-54.71-7.92-105.32-25.29-152.54-52.48C213.88,845.18,162.32,794.27,123.05,729.62z"/>
	<path class="st0" d="M800.17,729.62c-148.78,209.22-463.12,212.36-615.4,0.04c6.06,0,11.65-0.08,17.25,0.04
		c1.91,0.04,2.52,2.02,3.49,3.26c27.44,35.16,60.22,64.35,98.33,87.49c43.27,26.29,89.95,43.26,140.24,49.39
		c110.17,13.43,207.22-16.51,290.93-89.39c16.62-14.47,31.49-30.67,44.93-48.14c1.55-2.01,3.12-2.84,5.62-2.74
		C790.17,729.75,794.79,729.62,800.17,729.62z"/>
	<path class="st0" d="M62.55,514.11c-0.03-54.39,8.17-102.18,24.59-148.57c1.69-4.77,1.7-4.78,5.39-1.08
		c6.71,6.71,13.37,13.48,20.16,20.11c1.93,1.88,2.44,3.6,1.58,6.29c-13.89,43.74-19.6,88.61-17.89,134.42
		c0.78,20.93,3.2,41.7,7.52,62.21c0.77,3.64,0.22,4.76-3.66,4.64c-8.43-0.26-16.87-0.19-25.31-0.02c-3.16,0.06-4.86-0.46-5.31-4.17
		c-1.06-8.8-2.92-17.51-3.99-26.31C63.53,544.14,62.28,526.57,62.55,514.11z"/>
	<path class="st0" d="M922.6,509.42c-0.1,26.39-2.52,52.57-7.19,78.55c-0.54,3.01-1.53,4.29-4.87,4.18
		c-8.43-0.27-16.87-0.31-25.3,0.01c-4.08,0.15-5.06-0.74-4.17-4.89c5.64-26.28,8.03-52.94,7.88-79.78
		c-0.21-37.5-5.47-74.32-16.23-110.29c-0.99-3.32-0.58-5.47,1.83-7.98c6.88-7.16,13.54-14.54,20.1-21.99c2.38-2.7,3.16-2.1,4.2,0.94
		c8.92,26.1,15.47,52.77,19.34,80.09C921.06,468.55,922.5,488.93,922.6,509.42z"/>
	<path class="st0" d="M908.12,729.62c-6.57,12.72-13.42,24.37-20.88,35.64c-61.17,92.42-144.11,156.54-249.4,191.52
		c-25.9,8.61-52.46,14.46-79.45,18.42c-2.1,0.31-3.39-0.08-4.38-2.04c-1.41-2.82-2.98-5.58-4.64-8.27c-1.6-2.59-1.11-3.47,2.01-3.85
		c23.19-2.84,45.97-7.68,68.4-14.21c59.32-17.25,112.85-45.5,160.69-84.54c44.36-36.2,80.64-79.27,108.79-129.13
		c1.52-2.69,3.19-3.85,6.31-3.62C899.46,729.84,903.39,729.62,908.12,729.62z"/>
	<path class="st0" d="M77.59,729.62c4.72,0,9.47,0.1,14.22-0.04c2.24-0.06,2.69,1.57,3.47,2.95c12.92,22.85,27.55,44.55,44.28,64.79
		c63.04,76.24,142.25,127.37,237.89,152.89c16.58,4.42,33.38,7.82,50.4,10.04c2.29,0.3,3.04,0.75,2.15,3.36
		c-3.99,11.62-3.88,11.56-16.05,9.49c-81.41-13.84-154.18-46.81-218.23-98.85c-48.13-39.11-87.03-85.99-116.68-140.49
		c-0.5-0.92-0.99-1.86-1.43-2.82C77.5,730.69,77.59,730.36,77.59,729.62z"/>
	<path class="st0" d="M492.53,666.92c-6.69-12.59-12.96-24.38-19.22-36.18c-8.24-15.55-16.39-31.14-24.77-46.61
		c-1.4-2.59-1.19-4,0.9-6.06c13.52-13.31,26.93-26.74,40.27-40.25c2.03-2.06,3.13-2.7,5.54-0.24c13.28,13.56,26.78,26.9,40.18,40.33
		c1.31,1.31,3.06,2.32,1.69,4.87C522.36,610.51,507.69,638.29,492.53,666.92z M492.55,627.59c7.45-14.08,14.56-27.63,21.81-41.09
		c1.12-2.08,0.48-3.23-0.96-4.64c-6.22-6.13-12.41-12.27-18.49-18.53c-1.68-1.73-2.75-2.11-4.64-0.16
		c-6.16,6.39-12.44,12.67-18.83,18.83c-1.8,1.73-1.62,3.01-0.54,5c4.88,8.98,9.58,18.05,14.36,27.08
		C487.57,618.42,489.94,622.74,492.55,627.59z"/>
	<path class="st0" d="M602.36,524.76c4.14-7.39,8-14.02,11.56-20.8c1.32-2.51,3.27-2.18,5.34-2.18c27.11,0,54.23,0,81.34,0
		c29.37,0,58.73,0,89.12,0c-3.51,4.12-7.05,7.37-9.46,11.3c-6.05,9.88-14.28,12.67-25.86,12.37c-33.87-0.85-67.77-0.28-101.66-0.31
		c-15.51-0.01-31.02-0.14-46.53-0.22C605.17,524.92,604.16,524.84,602.36,524.76z"/>
	<path class="st0" d="M195.17,501.78c2.54,0,3.99,0,5.45,0c54.84,0,109.68,0.04,164.53-0.09c3.46-0.01,5.43,0.88,6.98,4.04
		c2.58,5.26,5.52,10.36,8.57,15.37c2.04,3.35,0.95,3.88-2.43,3.88c-16.72-0.04-33.44,0.15-50.16,0.16
		c-36.16,0.03-72.32-0.03-108.48,0.08c-3.15,0.01-5.25-0.82-7.27-3.32C207.06,515.35,201.43,509.06,195.17,501.78z"/>
	<path class="st0" d="M478.23,726.77c12.65,0,25.3,0.1,37.94-0.07c3.07-0.04,3.77,0.99,3.79,3.86c0.11,11.59,0.2,11.59-11.42,11.59
		c-16.86,0-33.73,0.12-50.59-0.09c-3.99-0.05-5.67,0.43-5.73,5.16c-0.06,5.1,2.34,4.95,5.96,4.92c18.37-0.11,36.74,0.04,55.11-0.13
		c3.71-0.03,5.29,0.52,5.14,4.82c-0.34,10-0.08,10.01-10.25,10.01c-16.86,0-33.73-0.01-50.59,0.03c-1.27,0-3.1-0.72-3.69,0.55
		c-0.65,1.4,0.71,2.79,1.64,3.94c3.31,4.11,7.89,5.27,12.89,5.28c15.66,0.02,31.32,0.12,46.98-0.08c3.69-0.05,4.89,0.87,4.82,4.71
		c-0.2,10.88-0.03,10.88-10.81,10.88c-13.7,0-27.4,0.05-41.11-0.01c-19.62-0.08-31.79-12.11-32.1-31.79
		c-0.15-9.78,0.11-19.58-0.11-29.36c-0.07-3.3,0.72-4.36,4.19-4.3C452.93,726.9,465.58,726.77,478.23,726.77z"/>
	<path class="st0" d="M56.28,298.66c8.43-3.72,16.16-7.39,24.09-10.51c3.67-1.44,4.54-3.48,4.02-7.09
		c-0.99-6.84-1.68-13.73-2.42-20.61c-0.15-1.41-0.64-2.89,0.34-4.73c6.75,4.93,13.58,9.55,19.94,14.74c3.36,2.74,5.59,2.46,8.8-0.1
		c6.41-5.11,13.17-9.79,20.68-15.29c-0.97,8.89-1.56,16.65-2.76,24.32c-0.75,4.81,0.01,7.57,5.2,9.37
		c7.46,2.59,14.54,6.3,22.63,9.91c-8.47,3.76-15.99,7.43-23.78,10.41c-3.94,1.51-4.74,3.62-4.22,7.42
		c1.13,8.18,1.92,16.4,2.98,25.71c-7.3-5.32-14.03-9.79-20.23-14.9c-3.73-3.08-6.29-2.94-9.95,0.05
		c-6.14,5.01-12.76,9.45-20.09,14.8c0.9-8.49,1.57-16.01,2.52-23.49c0.94-7.37,1.06-7.35-5.6-10.27
		C71.29,305.25,64.15,302.11,56.28,298.66z"/>
	<path class="st0" d="M903.51,347.59c-7.83-5.71-14.95-10.72-21.83-16.03c-2.5-1.93-4.13-1.85-6.61,0.06
		c-6.85,5.3-13.96,10.27-21.74,15.94c0.99-9.35,1.62-17.83,2.91-26.22c0.57-3.73-0.46-5.3-3.81-6.65c-7.93-3.2-15.69-6.81-24.3-10.6
		c8.45-3.74,16.18-7.33,24.05-10.55c3.4-1.39,4.66-2.95,4.02-6.92c-1.33-8.25-1.88-16.63-2.86-26.01
		c7.52,5.47,14.37,10.23,20.95,15.35c2.9,2.26,4.92,2.71,8.06,0.18c6.53-5.25,13.49-9.97,21.12-15.54c-0.72,7.1-1.21,13.26-2,19.38
		c-1.46,11.31-1.53,11.3,8.67,15.84c5.88,2.62,11.75,5.24,18.51,8.26c-8.54,3.78-16.22,7.31-24.03,10.55
		c-3.12,1.3-4.65,2.53-4.01,6.49C901.97,329.56,902.53,338.12,903.51,347.59z"/>
	<path class="st0" d="M517.65,902.01c-1.01,9.35-1.76,17.72-2.89,26.03c-0.5,3.72,0.43,5.62,4.13,7.06
		c7.77,3.03,15.29,6.67,23.84,10.48c-8.8,3.9-16.64,7.58-24.66,10.83c-2.94,1.19-3.75,2.67-3.36,5.72c1.09,8.6,1.88,17.23,2.9,26.91
		c-7.3-5.3-14.07-9.74-20.24-14.89c-3.77-3.15-6.28-2.82-9.87,0.11c-6.12,4.98-12.69,9.41-20.06,14.8
		c0.96-9.12,1.43-17.04,2.75-24.82c0.8-4.72-0.43-6.95-4.91-8.63c-7.42-2.79-14.56-6.29-22.88-9.96c4.18-1.91,7.46-3.42,10.75-4.91
		c2.05-0.93,4.11-1.86,6.17-2.77c11.81-5.17,11.77-5.16,10.05-18.14c-0.72-5.45-1.2-10.92-1.95-17.79
		c6.86,5.02,12.62,9.24,18.39,13.45c6.72,4.89,6.73,4.88,13.45-0.04C505.07,911.2,510.89,906.95,517.65,902.01z"/>
	<path class="st0" d="M261.3,274.72c4.42,15.17,8.84,30.15,13.1,45.18c0.74,2.61,2.01,3.94,4.64,4.69
		c13.59,3.83,27.13,7.83,40.68,11.81c1.35,0.4,2.9,0.44,4.39,2.06c-5.88,1.75-11.4,3.41-16.94,5.04
		c-9.37,2.75-18.72,5.59-28.15,8.13c-2.71,0.73-3.89,2.13-4.61,4.69c-4.28,15.02-8.69,30.01-13.41,46.25
		c-2.32-7.73-4.36-14.38-6.32-21.06c-2.5-8.5-5.04-16.99-7.36-25.54c-0.68-2.51-2.02-3.61-4.44-4.3
		c-14.3-4.08-28.56-8.32-42.83-12.51c-0.69-0.2-1.52-0.1-2.18-1.47c8.75-2.58,17.4-5.13,26.06-7.67c6.34-1.86,12.67-3.76,19.05-5.5
		c2.41-0.66,3.65-1.84,4.36-4.37c4.03-14.31,8.3-28.56,12.49-42.83C260.06,276.47,260,275.49,261.3,274.72z"/>
	<path class="st0" d="M197.91,658.86c10.92-3.21,21.85-6.39,32.75-9.66c5.16-1.55,11.72-1.45,15.08-5.17
		c3.2-3.54,3.54-9.68,5.04-14.71c3.01-10.08,5.95-20.18,8.91-30.28c0.29-0.99,0.29-2.1,1.62-2.96c4.35,14.83,8.74,29.44,12.86,44.13
		c0.91,3.24,2.35,4.89,5.73,5.82c13.76,3.79,27.42,7.98,41.12,12c1.14,0.34,2.38,0.43,3.33,1.62c-14.96,4.37-29.77,8.81-44.65,12.98
		c-3.15,0.88-4.59,2.42-5.46,5.54c-4.13,14.76-8.54,29.44-12.87,44.23c-1.6-0.31-1.34-1.73-1.63-2.72
		c-4.14-13.98-8.35-27.95-12.29-41.99c-0.8-2.85-2.13-4.18-4.91-4.97c-14.9-4.21-29.74-8.6-44.6-12.93
		C197.92,659.48,197.91,659.17,197.91,658.86z"/>
	<path class="st0" d="M723.28,273.82c4.52,15.47,8.91,30.09,13.03,44.8c0.99,3.56,2.62,5.34,6.34,6.35
		c14.47,3.95,28.82,8.36,43.32,12.62c-0.8,2-2.57,1.78-3.85,2.16c-13.25,3.95-26.49,7.93-39.83,11.57
		c-3.55,0.97-5.02,2.81-5.97,6.19c-4.13,14.75-8.52,29.42-13.13,45.17c-3.96-13.53-8.33-25.9-11.05-38.62
		c-1.9-8.87-6.22-12.91-14.87-14.87c-12.41-2.8-24.51-6.95-37.2-10.66c1.3-1.68,2.87-1.7,4.16-2.08c13.55-4,27.1-8.01,40.69-11.85
		c2.6-0.73,3.95-1.9,4.71-4.6c3.95-14.03,8.13-28,12.25-41.98C722.22,276.88,722.63,275.77,723.28,273.82z"/>
	<path class="st0" d="M786.51,659.68c-14.94,4.37-29.62,8.79-44.4,12.88c-3.38,0.94-4.83,2.63-5.73,5.88
		c-4.12,14.76-8.51,29.45-13.13,45.31c-1.84-6.1-3.39-11.16-4.88-16.23c-2.98-10.09-6.06-20.16-8.8-30.32
		c-0.7-2.61-1.99-3.65-4.37-4.34c-15.03-4.31-30.03-8.71-45.08-13.1c0.49-1.6,1.85-1.41,2.9-1.72c13.84-4.09,27.66-8.27,41.56-12.16
		c3-0.84,4.44-2.23,5.28-5.21c3.86-13.75,7.95-27.44,11.97-41.15c0.33-1.14,0.74-2.26,1.44-4.42c3.02,10.21,5.75,19.46,8.48,28.72
		c1.74,5.91,3.59,11.8,5.15,17.76c0.62,2.36,1.81,3.4,4.12,4.06c14.17,4.04,28.3,8.25,42.43,12.4
		C784.43,658.35,785.55,658.34,786.51,659.68z"/>
	<path class="st0" d="M400.95,559.17c-1.79,0.98-3.31,0.59-4.75,0.59c-50.33,0.02-100.66-0.01-150.99,0.09
		c-3.16,0.01-5.26-0.87-7.26-3.35c-5.18-6.4-10.66-12.56-16.2-19.03c1.74-1.18,3.26-0.77,4.66-0.77
		c52.59-0.02,105.18,0.01,157.77-0.08c3.09-0.01,4.9,0.83,6.35,3.67C393.79,546.67,397.44,552.85,400.95,559.17z"/>
	<path class="st0" d="M583.96,559.38c4.07-7.32,7.88-14.11,11.61-20.94c1.24-2.27,3.28-1.74,5.16-1.75
		c19.89-0.02,39.78-0.01,59.67-0.01c32.55,0,65.1,0,97.65,0c1.61,0,3.23,0,5.92,0c-6.81,7.92-12.95,15.04-19.07,22.19
		c-0.93,1.08-2.15,0.91-3.34,0.91c-51.84,0-103.67-0.01-155.51-0.03C585.61,559.75,585.17,559.6,583.96,559.38z"/>
	<path class="st0" d="M22.14,518.56c0.07-61.69,8.53-112.78,25.5-162.47c1.13-3.31,2.33-5.19,6.24-4.48c3.35,0.61,8.19-1.29,9.87,1
		c1.73,2.36-1.45,6.3-2.54,9.5c-19.15,56.25-26.67,114.09-23.57,173.34c0.9,17.13,2.77,34.18,5.9,51.07
		c1.02,5.53,0.99,5.53-4.68,5.53c-9.63,0-9.68,0.01-11.15-9.85C24.11,558.07,22.08,533.8,22.14,518.56z"/>
	<path class="st0" d="M963,505.68c-0.4,30.2-2.25,56.44-6.65,82.48c-0.58,3.44-1.98,4.22-5,3.92c-3.42-0.34-7.97,1.45-9.97-0.77
		c-1.74-1.93,0.5-6.22,1.01-9.46c4.85-30.58,6.7-61.36,5.34-92.28c-1.99-45.08-10.35-89-25.47-131.54c-1.43-4.01-0.88-5.07,3.3-5.34
		c10.32-0.67,10.34-0.83,13.61,9.06c12.3,37.18,19.93,75.28,22.42,114.37C962.29,487.24,962.66,498.37,963,505.68z"/>
	<path class="st0" d="M575.09,726.77c12.5,0,24.99,0.08,37.49-0.06c2.86-0.03,4.15,0.75,4.08,3.72
		c-0.26,11.43,0.59,22.88-0.45,34.29c-1.47,16.16-12.09,26.69-28.3,27.19c-17,0.52-34.02,0.16-51.03,0.26
		c-2.23,0.01-3.11-0.56-3.26-3.01c-0.67-10.98-0.55-21.95-0.32-32.93c0.06-2.77,0.75-4.53,4.14-4.07c3.82,0.52,8.96-1.64,11.2,0.94
		c1.9,2.19,0.55,7.16,0.71,10.89c0.17,4.03-1.71,9.31,0.73,11.76c2.63,2.64,7.98,0.95,12.14,0.98c7.22,0.06,14.45-0.03,21.67-0.11
		c10.74-0.12,16.06-5.14,16.66-15.95c0.28-4.95-0.05-9.94,0.26-14.89c0.21-3.31-1.11-3.95-4.12-3.93
		c-19.42,0.12-38.84-0.07-58.26,0.16c-4.21,0.05-5.34-1.17-5.23-5.29c0.27-9.96,0.07-9.96,9.84-9.96
		C553.71,726.77,564.4,726.77,575.09,726.77z"/>
	<path class="st0" d="M616.61,443.14c2.28,0,3.58,0,4.89,0c29.95,0,59.9,0.05,89.85-0.07c3.03-0.01,5.01,0.93,6.88,3.21
		c5.38,6.56,10.96,12.96,16.55,19.53c-1.7,1.09-3.07,0.68-4.35,0.68c-31,0.03-62.01-0.03-93.01,0.1c-3.09,0.01-4.93-0.98-6.62-3.47
		C626.41,456.67,621.78,450.38,616.61,443.14z"/>
	<path class="st0" d="M249.56,466.52c6.67-7.76,12.67-14.67,18.56-21.67c1.23-1.47,2.61-1.73,4.35-1.72
		c30.54,0.03,61.08,0.01,91.62,0.05c1.09,0,2.7-0.71,3.15,0.76c0.22,0.7-0.71,1.86-1.3,2.69c-4.18,5.88-8.43,11.72-12.61,17.6
		c-0.89,1.24-1.61,2.34-3.48,2.34C316.77,466.5,283.7,466.52,249.56,466.52z"/>
	<path class="st0" d="M420.45,759.35c0,9.64-0.09,19.29,0.06,28.93c0.04,2.88-0.74,3.95-3.77,3.92
		c-16.42-0.13-32.85,0.12-49.27-0.13c-14.16-0.21-25.42-8.58-29.18-20.82c-0.98-3.18-0.89-4.96,3.11-4.46
		c1.48,0.18,3.02,0.13,4.51,0.01c4.47-0.34,8.16-0.02,10.88,4.74c2.38,4.15,7.37,4.99,12,5.05c10.69,0.12,21.39-0.05,32.08,0.1
		c2.75,0.04,3.63-0.72,3.58-3.54c-0.17-9.04-0.18-18.08,0-27.12c0.06-3.12-0.87-4.18-4.05-4.18c-7.49,0.01-7.49-0.14-7.49-7.75
		c0-7.33,0-7.33,7.4-7.33c4.97,0,9.96,0.24,14.91-0.08c3.98-0.26,5.51,0.73,5.34,5.1C420.19,740.96,420.45,750.16,420.45,759.35z"/>
	<path class="st0" d="M275.44,431.61c6.81-7.94,12.86-14.98,18.89-22.03c1-1.17,2.27-1.3,3.66-1.29c31.48,0.1,62.95,0.19,94.43,0.29
		c0.24,0,0.48,0.23,1.18,0.57c-5.1,7.12-10.17,14.15-15.18,21.22c-0.84,1.18-1.97,1.24-3.18,1.24
		C342.42,431.61,309.59,431.61,275.44,431.61z"/>
	<path class="st0" d="M591.51,409.28c1.56-1.1,2.78-0.74,3.93-0.74c29.96-0.1,59.91-0.12,89.87-0.31c3.17-0.02,5.28,0.93,7.27,3.4
		c4.62,5.74,9.55,11.23,14.31,16.86c0.62,0.73,1.98,1.43,1.15,2.57c-0.37,0.51-1.62,0.54-2.47,0.54
		c-31.77,0.02-63.53,0.01-95.3,0.05c-1.79,0-3.13-0.4-4.22-1.96C601.31,422.92,596.48,416.23,591.51,409.28z"/>
	<path class="st0" d="M686.39,245.8c-129.38,0-258.75,0-388.13,0c0-0.11,0-0.21,0-0.32c26.21-1.34,52.42-2.67,78.63-4.01
		c35.31-1.8,70.62-3.66,105.93-5.38c20.8-1.01,41.49,1.42,62.24,2.16c16.99,0.61,33.96,1.69,50.94,2.56
		c30.13,1.56,60.26,3.12,90.39,4.67C686.39,245.59,686.39,245.69,686.39,245.8z"/>
	<path class="st0" d="M337.96,590.52c2.12,0,3.1,0,4.09,0c24.85,0,49.69,0.04,74.54-0.06c2.75-0.01,4.33,0.74,5.63,3.24
		c2.96,5.74,6.22,11.34,9.46,16.94c1.39,2.4,1.21,3.32-1.89,3.31c-23.04-0.08-46.08-0.04-69.12-0.06c-1.17,0-2.44,0.29-3.37-0.8
		C351.07,605.83,344.86,598.57,337.96,590.52z"/>
	<path class="st0" d="M551.61,613.89c4.33-7.75,8.29-14.79,12.18-21.87c0.93-1.69,2.41-1.51,3.9-1.51c26.04,0,52.09,0,78.52,0
		c-1.02,2.98-3.26,4.75-5.01,6.83c-4.06,4.84-8.25,9.57-12.32,14.41c-1.12,1.33-2.2,2.19-4.12,2.18
		C600.67,613.87,576.59,613.89,551.61,613.89z"/>
	<path class="st0" d="M363.94,625.51c25.07,0,48.86,0.01,72.65-0.03c1.7,0,2.77,0.52,3.6,2.05c3.38,6.21,6.83,12.38,10.35,18.51
		c1.31,2.29,0.53,2.77-1.77,2.77c-20.94-0.04-41.87-0.03-62.81-0.02c-1.09,0-2.18-0.06-2.92-0.92
		C376.91,640.73,370.81,633.56,363.94,625.51z"/>
	<path class="st0" d="M237.35,443.28c-9.64,2.83-17.92,5.62-26.39,7.61c-4.71,1.11-7.02,3.28-8.16,7.99
		c-2.08,8.59-4.84,17.02-7.62,26.53c-3-10.12-5.89-19.23-8.33-28.46c-0.86-3.24-2.46-4.63-5.56-5.46
		c-8.99-2.42-17.89-5.16-27.29-7.91c3.56-2.28,7.31-2.66,10.77-3.76c5.72-1.83,11.51-3.47,17.33-4.99c2.61-0.68,3.89-2.02,4.61-4.69
		c2.55-9.41,5.42-18.74,8.43-29.02c3.03,10.27,5.94,19.61,8.47,29.06c0.74,2.75,2.12,3.94,4.66,4.65
		C217.65,437.48,226.99,440.26,237.35,443.28z"/>
	<path class="st0" d="M788.53,483.99c-2.61-8.88-5.38-17.73-7.75-26.68c-0.87-3.29-2.36-4.94-5.74-5.83
		c-9.09-2.38-18.06-5.21-28.18-8.19c10.09-2.98,19.09-5.84,28.2-8.24c3.37-0.89,4.84-2.56,5.72-5.83
		c2.39-8.97,5.17-17.84,8.19-28.11c2.97,10.19,5.71,19.07,8.08,28.04c0.92,3.47,2.63,5.1,6.16,6.01c8.97,2.32,17.81,5.16,27.8,8.12
		c-10.48,3.1-19.75,5.96-29.1,8.53c-2.52,0.69-3.7,1.85-4.4,4.35c-2.56,9.26-5.37,18.45-8.08,27.67
		C789.12,483.89,788.83,483.94,788.53,483.99z"/>
	<path class="st0" d="M788.55,631.44c-2.62-8.87-5.38-17.71-7.77-26.64c-0.87-3.24-2.23-5-5.67-5.88
		c-9.14-2.36-18.16-5.22-28.27-8.19c10-2.96,18.99-5.8,28.09-8.22c3.31-0.88,4.95-2.38,5.83-5.73c2.35-8.94,5.12-17.77,8.62-26.67
		c2.51,8.53,5.29,16.98,7.41,25.6c1.04,4.23,3.15,6.16,7.25,7.2c8.69,2.22,17.25,4.93,27.03,7.78c-10.54,3.12-19.83,5.97-29.18,8.57
		c-2.48,0.69-3.69,1.82-4.39,4.35c-2.54,9.26-5.37,18.44-8.09,27.64C789.13,631.31,788.84,631.37,788.55,631.44z"/>
	<path class="st0" d="M237.26,590.7c-10.32,3.04-19.65,5.92-29.06,8.48c-2.72,0.74-3.88,2.08-4.61,4.72
		c-2.54,9.26-5.35,18.45-8.41,28.84c-2.15-7.18-4.66-13.23-5.67-19.51c-1.59-9.93-6.35-15.47-16.66-16.87
		c-6.32-0.86-12.39-3.48-19.77-5.66c9.27-2.73,17.36-5.48,25.64-7.42c5.14-1.21,7.77-3.54,8.97-8.84
		c1.91-8.46,4.76-16.71,7.46-25.88c3.02,10.3,5.91,19.73,8.51,29.25c0.69,2.52,1.96,3.7,4.37,4.38
		C217.53,584.86,226.97,587.69,237.26,590.7z"/>
	<path class="st0" d="M621.13,625.51c-6.59,7.68-12.47,14.49-18.28,21.37c-1.21,1.44-2.63,1.75-4.38,1.75
		c-20.49-0.03-40.99-0.06-61.48,0.02c-3.32,0.01-3.54-0.94-1.99-3.57c3.28-5.58,6.39-11.25,9.51-16.92c0.83-1.51,1.56-2.7,3.66-2.69
		C572.11,625.53,596.05,625.51,621.13,625.51z"/>
	<path class="st0" d="M574.34,284.18c4.02-8.3,7.74-15.64,11.12-23.13c1.37-3.03,3.09-4.29,6.49-4.02c4.34,0.34,8.73,0.18,13.1,0.05
		c2.37-0.07,3.58,0.87,2.99,3.13c-0.56,2.15,2.21,6.07-2.67,6.08c-2.95,0.01-3,1.55-2.99,3.7c0.06,7.38-0.16,14.77,0.1,22.14
		c0.13,3.55-1.79,3.36-4.21,3.43c-2.57,0.07-4.2-0.14-4.11-3.51c0.23-8.25,0.08-16.51,0.08-24.93c-2.11,0.1-2.11,1.78-2.61,2.82
		c-3.68,7.58-7.45,15.12-10.78,22.85c-1.33,3.09-3.51,2.88-5.86,2.7c-2.6-0.2-5.53,1.22-7.27-2.62
		c-4.97-10.96-10.29-21.75-15.6-32.55c-1.34-2.73-0.54-3.04,2.16-3.3c4.62-0.44,7.39,0.83,9.32,5.42
		C566.61,269.56,570.42,276.34,574.34,284.18z"/>
	<path class="st0" d="M412.33,214.16c2.09-6.6,4.24-12.85,6-19.21c0.92-3.31,2.48-4.44,5.98-4.3c7.35,0.3,7.36,0.08,7.36,7.34
		c0,8.58-0.22,17.16,0.09,25.73c0.15,4.11-2.33,3.34-4.62,3.33c-2.28,0-4.87,0.8-4.62-3.32c0.34-5.68,0.09-11.39,0.09-17.82
		c-2.76,5.48-3.88,10.88-5.89,15.94c-0.89,2.24-0.61,5.31-4.75,5.36c-4.16,0.05-3.96-2.88-4.8-5.23c-1.91-5.32-3.71-10.69-6.1-15.93
		c0,5.86-0.23,11.74,0.08,17.59c0.21,3.96-2.16,3.48-4.57,3.43c-2.31-0.05-4.78,0.72-4.66-3.37c0.27-9.92,0.14-19.86,0.05-29.79
		c-0.02-2.22,0.48-3.13,2.97-3.23c8.89-0.34,8.87-0.44,11.58,8.09c1.55,4.86,3.16,9.7,4.77,14.54
		C411.36,213.55,411.72,213.69,412.33,214.16z"/>
	<path class="st0" d="M647.61,759.42c0,9.63-0.11,19.26,0.07,28.89c0.05,2.99-0.85,3.98-3.81,3.75c-3.59-0.28-8.09,1.12-10.57-0.58
		c-2.77-1.9-0.91-6.72-1.07-10.24c-0.77-17.28-0.55-34.57-0.02-51.86c0.06-1.9,0.68-2.83,2.64-2.62c0.3,0.03,0.6,0.01,0.9,0
		c11.86-0.34,11.86-0.34,11.86,11.43C647.62,745.27,647.61,752.34,647.61,759.42z"/>
	<path class="st0" d="M359.3,690.6c5.42,0,10.84,0.08,16.26-0.03c2.55-0.05,4.22,0.12,4.3,3.46c0.09,3.54-2.13,3.53-4.35,3.55
		c-8.28,0.09-16.56,0.01-24.84,0.07c-1.75,0.01-4.09-0.86-4.06,2.51c0.04,3.52,2.57,2.26,4.18,2.28c8.28,0.11,16.56,0.19,24.84-0.02
		c3.19-0.08,3.25,1.51,3.27,3.86c0.02,2.33-0.36,3.57-3.16,3.51c-8.43-0.17-16.86-0.08-25.29-0.03c-0.92,0.01-2.32-0.66-2.68,0.77
		c-0.28,1.14,0.82,1.86,1.6,2.53c1.34,1.15,3.02,1.3,4.68,1.33c6.77,0.09,13.54,0.25,20.31,0.16c3.1-0.04,5.01,0.2,4.98,4.24
		c-0.03,4.39-2.77,3.5-5.14,3.43c-7.66-0.23-15.36,0.76-22.98-0.62c-8.27-1.5-12.01-5.77-12.32-14.13
		c-0.16-4.35,0.15-8.73-0.11-13.07c-0.21-3.4,1.32-3.96,4.25-3.86C348.46,690.74,353.88,690.6,359.3,690.6z"/>
	<path class="st0" d="M401.79,709.73c-3.46,0-6.98-0.4-10.38,0.1c-4.72,0.69-5.49-1.68-5.46-5.49c0.08-9.44,4.19-14.02,13.57-14.35
		c7.52-0.26,15.05-0.05,22.58-0.16c2.53-0.04,3.44,0.91,3.28,3.46c-0.14,2.15,0.21,4.23-2.98,4.22c-6.77-0.03-13.55,0.06-20.32,0.13
		c-1.5,0.01-3.01,0.05-4.5,0.2c-1.88,0.19-3.23,1.3-3.19,3.18c0.05,2.52,2.21,1.41,3.41,1.43c7.98,0.11,15.96,0.17,23.94-0.01
		c2.72-0.06,3.6,0.87,3.96,3.48c1.22,8.92-2.73,15.09-11.62,15.9c-8.36,0.77-16.84,0.35-25.26,0.43c-3.35,0.03-2.17-2.53-2.36-4.25
		c-0.22-1.96-0.06-3.49,2.7-3.43c6.62,0.14,13.25,0.05,19.87,0.04c1.5,0,3.02-0.01,4.51-0.18c1.92-0.21,3.88-1.04,3.83-3.12
		c-0.06-2.56-2.45-1.46-3.83-1.51C409.63,709.63,405.71,709.73,401.79,709.73z"/>
	<path class="st0" d="M513.65,710.58c2.62,2.1,4.69,3.59,6.56,5.31c1.75,1.6,3.58,3.2,4.8,5.81c-4.17,0.94-7.93,1.33-11.1-2.17
		c-1.61-1.78-3.54-3.29-5.06-5.14c-2.88-3.52-6.31-5.44-10.97-4.66c-2.77,0.47-3.58-0.75-3.59-3.5c-0.01-2.89,0.74-4,3.81-3.81
		c4.5,0.27,9.02,0.05,13.53,0.08c1.53,0.01,3.03-0.04,4.31-0.99c0.87-0.65,1.59-1.57,1.42-2.66c-0.24-1.54-1.65-0.97-2.56-0.97
		c-7.07-0.05-14.14,0.05-21.21-0.07c-2.39-0.04-3.12,0.83-3.07,3.15c0.13,5.86-0.04,11.73,0.08,17.6c0.04,2.34-0.36,3.73-3.16,3.53
		c-2.24-0.16-4.71,0.44-4.71-3.06c-0.01-8.87-0.04-17.74-0.1-26.61c-0.01-2.04,1.09-2.46,2.87-2.46c12.48,0,24.96-0.03,37.45-0.15
		c2.08-0.02,2.8,0.58,2.92,2.77C526.47,702.55,524.41,706.06,513.65,710.58z"/>
	<path class="st0" d="M453.55,722.05c-5.86,0-11.73-0.08-17.59,0.04c-2.58,0.05-3.46-0.96-3.3-3.48c0.35-5.7,0.34-11.42,0.84-17.1
		c0.58-6.5,5.54-11.09,12.97-11.45c8.55-0.42,17.14-0.06,25.71-0.21c3.43-0.06,2.79,2.17,2.9,4.22c0.12,2.22-0.1,3.68-3.02,3.62
		c-7.52-0.17-15.04-0.1-22.56-0.04c-7.01,0.05-8.67,1.77-8.8,8.87c-0.14,7.73-0.14,7.73,7.44,7.73c5.27,0,10.53,0.04,15.79-0.03
		c1.33-0.02,3.17,0.69,3.31-1.82c0.11-2.03-0.91-2.71-2.71-2.64c-3.6,0.15-2.5-2.54-2.68-4.42c-0.26-2.69,1.52-2.68,3.49-2.74
		c9.85-0.28,9.85-0.31,9.85,9.4c0,9.63,0,9.7-9.47,10.12c-4.05,0.18-8.12,0.03-12.18,0.03
		C453.55,722.11,453.55,722.08,453.55,722.05z"/>
	<path class="st0" d="M647.57,708.17c-0.19,3.75-0.52,7.5-0.53,11.26c-0.01,3.69-2.66,2.35-4.49,2.6c-2.32,0.32-3.05-0.7-3.15-3.06
		c-0.36-9.11-0.45-9.14-9.59-9.22c-4.21-0.04-8.44,0.25-12.64,0.03c-3.52-0.18-4.56,1.32-4.16,4.53c0.15,1.19-0.09,2.42,0.05,3.61
		c0.36,3.04-0.68,4.24-3.96,4.23c-3.37-0.01-4.03-1.42-3.91-4.35c0.18-4.36-0.05-8.73,0.07-13.1c0.24-8.69,5.37-14.3,13.95-14.65
		c8.27-0.33,16.56,0.01,24.83-0.13c2.66-0.05,2.93,1.37,2.93,3.37c-0.02,4.96,0,9.92,0,14.88
		C647.17,708.17,647.37,708.17,647.57,708.17z M625.95,702.49c0-0.03,0-0.06,0-0.09c3.46,0,6.92,0,10.38,0
		c1.71,0,2.91-0.49,2.9-2.54c0-2.03-1.33-2.02-2.75-2.02c-5.57,0.02-11.14,0.02-16.71,0.03c-1.56,0-2.93,0.6-4.22,1.42
		c-0.79,0.51-1.45,1.23-1.27,2.21c0.22,1.22,1.35,0.96,2.18,0.97C619.63,702.51,622.79,702.49,625.95,702.49z"/>
	<path class="st0" d="M437.22,257.42c6.22-0.66,11.69-0.99,16.62,4.59c7.02,7.96,15.06,15.01,23.37,23.14
		c0-8.19,0.19-15.75-0.08-23.3c-0.13-3.72,0.94-4.96,4.76-4.87c3.25,0.08,4.01,1.13,3.96,4.19c-0.17,10.08-0.23,20.18,0.02,30.26
		c0.09,3.58-1.25,3.98-4.4,4.23c-5.12,0.39-8.65-1.35-12.16-5.04c-9.54-10.03-19.51-19.66-29.28-29.48
		C439.01,260.11,437.6,259.35,437.22,257.42z"/>
	<path class="st0" d="M488.06,275.48c8.24-2.09,13.8,0.1,18.38,5.95c1.92,2.46,4.51,7,7.19,5.85c3.06-1.31,0.96-6.17,1.12-9.45
		c0.29-5.85,0.22-11.73,0.02-17.59c-0.09-2.78,1.14-3.26,3.49-3.17c2.21,0.09,4.1-0.18,4.02,3.14c-0.2,7.97-0.09,15.94-0.03,23.92
		c0.01,1.22-0.73,2.92,1.07,3.52c1.55,0.51,2.45-0.79,3.4-1.73c1.49-1.48,3.28-2.78,4.4-4.51c4.18-6.46,10.1-7.8,17.54-6.09
		c-6.48,6.55-12.87,13-19.26,19.45c-0.97,0.98-2.23,0.72-3.41,0.76c-17,0.55-16.99,0.54-29.18-11.61
		C494.08,281.18,491.25,278.55,488.06,275.48z"/>
	<path class="st0" d="M564.69,208.83c0-4.82,0.12-9.64-0.05-14.45c-0.09-2.59,0.43-3.87,3.42-3.69c4.35,0.25,8.73-0.05,13.09,0.1
		c4.96,0.17,9.2,1.85,11.19,6.86c1.87,4.71,0.59,9.68-3.72,13.28c-1.66,1.39-1.27,2.3-0.5,3.73c1.63,3.05,3.09,6.18,4.75,9.22
		c1.19,2.18,1.03,2.99-1.78,3.29c-4.62,0.49-7.79-0.65-9.23-5.44c-0.6-1.99-1.93-3.74-2.73-5.68c-0.75-1.82-2.14-1.83-3.7-1.75
		c-2.2,0.1-1.6,1.78-1.65,3c-0.08,1.8-0.23,3.64,0.02,5.41c0.51,3.66-1.04,4.44-4.49,4.5c-3.79,0.06-4.96-1.1-4.69-4.83
		C564.94,217.88,564.69,213.35,564.69,208.83z M577.74,207.11c3.64,0.39,6.21-0.55,6.31-4.59c0.08-3.5-2.24-4.89-6.96-5.13
		c-4.03-0.21-3.29,2.34-3.34,4.67C573.67,204.97,573.14,208.21,577.74,207.11z"/>
	<path class="st0" d="M568.18,689.97c4.96,0,9.93-0.19,14.88,0.04c8.81,0.4,14.3,5.78,14.76,14.48c0.25,4.8-0.06,9.63,0.11,14.43
		c0.13,3.73-2.41,2.97-4.57,3.13c-2.29,0.17-3.68-0.25-3.53-3.1c0.22-4.35,0.12-8.72,0.04-13.08c-0.1-5.58-2.44-8.11-7.89-8.22
		c-7.22-0.14-14.44,0.04-21.65-0.07c-2.54-0.04-3.43,0.88-3.37,3.41c0.13,5.86-0.09,11.73,0.09,17.59c0.09,2.91-1.14,3.58-3.75,3.51
		c-2.39-0.06-4.04-0.29-4.01-3.35c0.1-8.42,0.06-16.84-0.08-25.26c-0.05-2.72,0.92-3.74,3.64-3.67c5.11,0.14,10.22,0.04,15.34,0.04
		C568.18,689.89,568.18,689.93,568.18,689.97z"/>
	<path class="st0" d="M616.04,295.16c7.92-9.54,15.38-18.53,23.5-28.32c-9.8,0-18.68,0-28.08,0c3.52-6.28,6.66-10.69,14.7-9.96
		c10.57,0.95,21.29,0.23,33.08,0.23c-2.67,3.25-4.68,5.73-6.73,8.18c-7.14,8.55-14.67,16.81-21.31,25.74
		C626.99,296.7,622.05,295.61,616.04,295.16z"/>
	<path class="st0" d="M630.24,797.3c4.66,0,9.32,0.04,13.98-0.02c1.96-0.02,3.46-0.03,3.47,2.72c0.01,2.62-1.02,3.45-3.44,3.43
		c-6.92-0.06-13.84-0.07-20.75,0.03c-1.41,0.02-3.59-0.93-3.74,1.84c-0.17,3.18,2.28,2.14,3.81,2.16c6.62,0.1,13.24,0.14,19.85-0.01
		c2.55-0.06,3.37,0.77,3.38,3.34c0,2.52-1.03,2.99-3.24,2.96c-6.62-0.1-13.23-0.08-19.85,0.01c-1.01,0.01-2.74-0.83-2.92,0.98
		c-0.13,1.26,1.18,2.13,2.37,2.37c1.75,0.35,3.57,0.52,5.36,0.54c5.26,0.07,10.53,0.16,15.79-0.02c3.27-0.12,2.45,2.18,2.84,3.92
		c0.57,2.6-1.04,2.68-2.86,2.67c-6.01-0.02-12.03,0.2-18.03-0.06c-8.73-0.39-12.32-3.97-13.25-12.65
		c-1.52-14.08-1.52-14.08,12.26-14.08c1.65,0,3.31,0,4.96,0C630.24,797.38,630.24,797.34,630.24,797.3z"/>
	<path class="st0" d="M494.77,201.62c-1.97,0.3-3.71,0-4.92-2.7c-1.06-2.36-3.78-2.14-6.04-1.54c-1.35,0.36-2.49,1.3-2.58,2.83
		c-0.15,2.49,1.88,3.22,3.66,3.99c2.89,1.25,5.95,2.16,8.72,3.62c4.98,2.61,6.77,6.28,5.94,11.48c-0.79,4.92-4.25,6.91-8.69,7.89
		c-7.45,1.64-15.24-0.7-18.21-5.73c-1.09-1.84-2.63-4.11-0.86-6.06c1.49-1.64,7.63,0.26,8.68,2.3c1.44,2.8,5.94,4.17,8.54,2.43
		c2.48-1.67,2.26-3.85,0.18-5.6c-1.21-1.02-2.91-1.49-4.44-2.11c-3.06-1.23-6.24-2.22-8.87-4.33c-3.82-3.06-5.01-8.18-2.62-12.12
		c2.94-4.85,7.9-5.88,12.94-5.88c4.95,0,9.59,1.38,12.29,6.16C500.79,200.3,499.94,201.62,494.77,201.62z"/>
	<path class="st0" d="M469.78,227.07c-2.79,0-4.75-0.16-6.67,0.04c-2.42,0.25-3.69-0.75-4.02-3.04c-0.43-2.96-2.1-3.97-5-3.64
		c-1.93,0.22-3.9,0.11-5.85,0.03c-1.44-0.06-2.45,0.53-2.57,1.89c-0.5,5.56-4.48,4.8-8.21,4.75c-2.05-0.02-2.77-0.68-2.04-2.67
		c3.88-10.55,7.81-21.09,11.61-31.67c1.06-2.94,3.38-1.93,5.29-1.95c1.76-0.02,3.82-0.86,4.82,1.93
		C461.17,204.01,465.39,215.21,469.78,227.07z M451.86,202.35c-0.93,2.96-1.64,5.64-2.61,8.21c-0.85,2.25-0.13,2.74,2.1,2.86
		c3.26,0.17,4.9-0.4,3.22-4.06C453.58,207.24,453.51,204.74,451.86,202.35z"/>
	<path class="st0" d="M341.21,286.66c7.41,0,13.98,0,20.62,0c-2.33,7.82-3.66,8.86-11.06,8.86c-6.62,0-13.24,0.01-19.86,0
		c-4.87-0.01-4.91-0.04-2.68-4.12c5.7-10.41,11.5-20.76,17.11-31.21c1.24-2.31,2.72-3.42,5.32-3.09c0.89,0.11,1.8,0.02,2.71,0.02
		c6.7,0,8.27,2.18,6.74,8.92c-0.53,2.32-2.2,1.85-3.49,1.67c-3.51-0.48-5.48,0.91-7.04,4.06
		C347.21,276.58,344.34,281.15,341.21,286.66z"/>
	<path class="st0" d="M548.96,190.76c3.31,0,6.63,0.12,9.94-0.04c2.45-0.12,2.72,1.22,2.6,3.09c-0.11,1.73,0.48,3.84-2.43,3.82
		c-3.61-0.03-7.23,0.14-10.84-0.03c-2.92-0.14-3.08,1.54-3.03,3.71c0.04,2.04-0.17,4.02,2.91,3.81c2.4-0.16,4.83,0.09,7.22-0.06
		c2.55-0.17,3.77,0.4,3.78,3.39c0.02,3.14-1.48,3.43-3.89,3.27c-1.65-0.11-3.31-0.02-4.97-0.02c-4.88,0.01-6.17,1.83-5.02,6.61
		c0.47,1.95,1.8,1.72,3.1,1.73c3.31,0.04,6.63,0.15,9.94-0.02c2.7-0.14,3.31,1.1,3.28,3.51c-0.03,2.25-0.24,3.68-3.12,3.59
		c-6.32-0.18-12.65-0.14-18.97-0.01c-2.36,0.05-3.13-0.71-3.1-3.09c0.11-10.09,0.11-20.18,0-30.27c-0.03-2.42,0.8-3.15,3.12-3.03
		C542.63,190.89,545.8,190.76,548.96,190.76z"/>
	<path class="st0" d="M427.5,294.53c-8.39,0.93-16.67,2.18-23.91-3.36c-3.73-2.86-8.16-3.51-12.83-3.15
		c-3.14,0.24-6.33,0.14-9.49,0.02c-3.88-0.14-7.6-0.6-6.69,5.44c0.46,3.05-2.47,2.07-3.92,1.93c-1.73-0.17-4.72,1.69-4.94-1.89
		c-0.26-4.2-0.03-8.43-0.08-12.65c-0.02-2.01,1.26-2.06,2.71-2.06c9.79,0.01,19.58-0.01,29.37,0.06c1.01,0.01,2.11,0.34,3,0.83
		C409.67,284.6,418.58,289.57,427.5,294.53z"/>
	<path class="st0" d="M427.52,258.07c-9.35,5.06-18.69,10.14-28.07,15.14c-0.87,0.46-2.02,0.57-3.04,0.58
		c-9.18,0.04-18.36-0.06-27.54,0.08c-2.61,0.04-3.42-0.83-3.28-3.36c0.18-3.3,0.29-6.64-0.02-9.92c-0.37-3.91,2.04-3.58,4.51-3.48
		c2.27,0.09,5.27-0.8,4.6,3.3c-0.6,3.65,0.97,4.77,4.46,4.4c2.53-0.27,5.14-0.3,7.66-0.01c7.84,0.91,14.84-0.83,21-5.85
		c1.82-1.49,3.97-1.93,6.33-1.87c4.33,0.11,8.66,0.03,13,0.03C427.27,257.43,427.4,257.75,427.52,258.07z"/>
	<path class="st0" d="M843.74,693.45c2.28-4.64,4.34-8.61,6.17-12.67c0.81-1.79,2.11-1.81,3.65-1.8
		c10.36,0.02,20.71,0.09,31.07-0.04c2.97-0.04,2.68,1.01,1.84,3.13c-4.48,11.37-4.43,11.38-16.81,11.38
		C861.27,693.45,852.87,693.45,843.74,693.45z"/>
	<path class="st0" d="M122.43,693.46c-5.27,0-10.54-0.09-15.81,0.04c-2.1,0.05-3.31-0.57-4.06-2.59c-1.4-3.77-5.6-8.19-4.04-10.91
		c1.65-2.9,7.39-0.84,11.33-0.96c7.07-0.21,14.15,0.02,21.23-0.11c2.25-0.04,3.62,0.52,4.41,2.79c1.37,3.9,4.39,7.1,4.91,11.38
		c-4.03,0.12-8.06,0.25-12.09,0.34C126.35,693.49,124.39,693.46,122.43,693.46z"/>
	<path class="st0" d="M101,642.69c-4.82,0-9.64-0.1-14.46,0.05c-2.15,0.06-3.15-0.68-3.91-2.72c-4.42-11.83-4.47-11.81,8.09-11.81
		c6.78,0,13.56,0.09,20.33-0.05c2.32-0.05,3.58,0.61,4.2,2.95c0.8,3.04,1.84,6.04,3,8.97c0.84,2.13,0.15,2.65-1.89,2.63
		C111.24,642.65,106.12,642.69,101,642.69z"/>
	<path class="st0" d="M883.77,642.7c-4.65,0-9.31-0.09-13.96,0.03c-2.68,0.07-3.8-0.28-2.8-3.49c3.43-10.99,3.31-11.03,14.95-11.03
		c6.9,0,13.81,0.08,20.71-0.04c2.56-0.04,3.01,0.7,2.39,3.16c-2.87,11.35-2.8,11.37-14.54,11.37
		C888.27,642.7,886.02,642.7,883.77,642.7z"/>
	<path class="st0" d="M448.84,811.04c0,3.31-0.09,6.62,0.03,9.92c0.08,2.14-0.31,3.34-2.88,3.32c-2.46-0.02-3.72-0.65-3.38-3.31
		c0.12-0.89-0.08-1.81,0.04-2.7c0.38-2.86-0.62-4.02-3.68-3.85c-4.65,0.24-9.32,0.19-13.97,0.02c-2.63-0.1-4.03,0.57-3.65,3.47
		c0.13,1.03-0.06,2.11,0.03,3.15c0.2,2.31-0.74,3.19-3.1,3.21c-2.38,0.02-3.12-0.83-3.08-3.16c0.12-6.76,0.09-13.53,0.01-20.29
		c-0.02-2.1,0.28-3.33,2.88-3.34c2.6-0.01,3.56,0.89,3.3,3.39c-0.11,1.04,0.08,2.11-0.04,3.15c-0.27,2.46,0.58,3.49,3.23,3.39
		c4.95-0.18,9.92-0.19,14.88,0c2.67,0.1,3.49-0.93,3.19-3.39c-0.11-0.89,0.05-1.81-0.03-2.7c-0.22-2.42,0.16-3.9,3.27-3.88
		c2.98,0.02,3.03,1.52,2.98,3.67C448.78,804.43,448.84,807.74,448.84,811.04z"/>
	<path class="st0" d="M517.68,190.75c3.92,0,7.84,0.12,11.75-0.04c2.45-0.1,3.48,0.52,3.44,3.22c-0.04,2.61-0.59,3.73-3.5,3.79
		c-7.44,0.14-7.44,0.28-7.44,7.69c0,6.02-0.25,12.06,0.09,18.07c0.24,4.28-2.41,3.43-4.89,3.64c-2.93,0.24-4.32-0.38-4.19-3.81
		c0.27-7.22-0.07-14.46,0.15-21.68c0.1-3.15-0.84-4.44-4.02-4c-1.18,0.16-2.43-0.11-3.61,0.05c-3.09,0.43-3.3-1.28-3.37-3.75
		c-0.08-2.68,0.93-3.32,3.4-3.21C509.54,190.88,513.62,190.75,517.68,190.75z"/>
	<path class="st0" d="M355.71,823.79c-4.51,0-9.03-0.05-13.54,0.02c-1.77,0.03-2.67-0.37-2.9-2.39c-0.59-5.12-0.56-10.22,0.35-15.26
		c0.92-5.11,4.46-8.35,9.64-8.53c6.76-0.23,13.53-0.01,20.3-0.11c2.16-0.03,2.9,0.85,3,2.9c0.12,2.48-1.38,2.55-3.18,2.59
		c-5.41,0.1-10.81,0.21-16.22,0.42c-6.11,0.23-10.69,8.05-8,13.52c0.82,1.67,2.32,1.1,3.56,1.11c6.77,0.06,13.54-0.02,20.31,0.07
		c1.54,0.02,3.7-0.91,3.64,2.36c-0.05,2.99-1.33,3.45-3.87,3.36C364.43,823.67,360.07,823.79,355.71,823.79z"/>
	<path class="st0" d="M545.67,810.6c0-3.46,0.13-6.92-0.04-10.37c-0.14-2.76,1.59-2.67,3.47-2.84c2.32-0.21,2.77,0.93,2.74,2.94
		c-0.09,4.81,0.05,9.62-0.05,14.43c-0.04,2.14,0.74,2.94,2.88,2.88c4.21-0.11,8.42-0.03,12.63-0.04c1.39,0,2.85-0.16,3.67-1.35
		c1.63-2.36,4-1.52,6.16-1.66c1.78-0.11,1.99,0.74,1.42,2.23c-1.39,3.6-3.68,6.31-7.66,6.83c-7.47,0.96-14.98,0.74-22.5,0.37
		c-2.18-0.11-2.82-0.99-2.75-3.04C545.76,817.52,545.67,814.06,545.67,810.6z"/>
	<path class="st0" d="M462.59,289.22c-0.21,4.69-2.5,6.25-7.01,4.66c-7.37-2.6-14.68-5.39-22.12-7.77c-3.03-0.97-2.88-2.41-1.8-4.63
		c0.95-1.95,0.67-4.95,4.65-3.34c7.94,3.2,16.09,5.87,24.12,8.85C461.36,287.35,463.1,287.25,462.59,289.22z"/>
	<path class="st0" d="M540.96,706.56c0,4.22-0.08,8.43,0.03,12.65c0.06,2.15-0.74,3.14-2.87,2.86c-1.83-0.24-4.43,1.12-4.66-2.48
		c-0.57-9.02-0.59-18.04-0.23-27.07c0.13-3.3,2.66-2.58,4.66-2.7c2.28-0.14,3.19,0.82,3.11,3.19
		C540.85,697.52,540.96,702.05,540.96,706.56z"/>
	<path class="st0" d="M831.15,678.99c-2.61,4.87-4.77,8.79-6.8,12.77c-0.64,1.25-1.48,1.72-2.84,1.71
		c-4.76-0.04-9.53-0.02-14.96-0.02c2.59-4.75,4.88-8.91,7.13-13.1c0.58-1.08,1.42-1.39,2.57-1.38
		C820.88,679.01,825.52,678.99,831.15,678.99z"/>
	<path class="st0" d="M178.53,693.46c-1.62,0-2.52-0.01-3.42,0c-14.79,0.11-14.79,0.11-20.85-14.44c5.24,0,10.22-0.01,15.2,0
		c1.06,0,1.53,0.76,1.98,1.58C173.65,684.66,175.9,688.7,178.53,693.46z"/>
	<path class="st0" d="M917.47,693.46c-8.09,0-8.09,0-4.99-7.28c3.06-7.2,3.06-7.2,11.25-7.2c7.63,0,7.63,0,4.82,6.99
		C925.54,693.46,925.54,693.46,917.47,693.46z"/>
	<path class="st0" d="M53.71,678.99c4.93,0,9.26,0.04,13.6-0.02c1.52-0.02,2.47,0.37,3.07,1.93c1.56,4.03,3.31,7.99,5.22,12.56
		c-5.11,0-9.7-0.01-14.3,0.01c-1.18,0.01-1.93-0.36-2.39-1.56C57.29,687.73,55.58,683.6,53.71,678.99z"/>
	<path class="st0" d="M852.11,628.21c-1.61,4.55-3.09,8.59-4.46,12.67c-0.47,1.38-1.32,1.84-2.68,1.83
		c-3.75-0.03-7.49-0.05-11.24,0.01c-1.71,0.03-2.55-0.26-1.74-2.25c1.34-3.33,2.57-6.71,3.7-10.12c0.5-1.52,1.32-2.18,2.92-2.16
		C842.93,628.24,847.25,628.21,852.11,628.21z"/>
	<path class="st0" d="M144.99,642.7c-2.08-0.42-5.54,1.3-6.83-0.85c-2.19-3.64-3.27-7.98-4.65-12.08c-0.55-1.64,0.91-1.54,1.9-1.55
		c3.74-0.03,7.48,0.04,11.22-0.04c1.47-0.03,2.18,0.68,2.61,1.93c0.53,1.55,1.07,3.1,1.64,4.65
		C153.82,642.7,153.82,642.7,144.99,642.7z"/>
	<path class="st0" d="M48.75,642.7c-1.2,0-2.43-0.14-3.61,0.03c-2.95,0.42-4.4-0.8-4.96-3.7c-0.54-2.79-1.31-5.56-2.24-8.25
		c-0.76-2.21,0.15-2.69,2.06-2.57c0.45,0.03,0.9,0.01,1.35,0c11.36-0.15,11.21-0.11,14.4,10.8c0.98,3.34,0.02,3.99-2.95,3.71
		C51.47,642.6,50.11,642.7,48.75,642.7z"/>
	<path class="st0" d="M936.18,642.7c-7.84,0-7.83,0-5.73-7.45c0.45-1.59,0.86-3.18,1.28-4.78c0.27-1.04,0.52-2.19,1.85-2.21
		c4.05-0.06,8.1-0.02,12.15-0.01c1.57,0.01,1.59,1.05,1.34,2.17c-0.36,1.61-0.76,3.2-1.2,4.79
		C943.83,642.7,943.83,642.7,936.18,642.7z"/>
	<path class="st0" d="M576.93,712.37c0,1.66-0.22,3.35,0.04,4.96c0.69,4.25-1.32,5.16-5.09,4.84c-2.24-0.19-2.77-1.08-2.73-3.09
		c0.09-4.82,0.18-9.64-0.02-14.45c-0.14-3.49,2.12-2.85,4.17-2.96c2.21-0.12,3.87,0.1,3.66,3.02
		C576.78,707.24,576.92,709.81,576.93,712.37z"/>
	<path class="st0" d="M496.76,810.57c0,3.16-0.08,6.31,0.03,9.46c0.08,2.34,0,3.91-3.21,3.87c-3.35-0.04-3.06-1.93-3.05-4.1
		c0.03-6.16,0.08-12.32-0.02-18.48c-0.04-2.41,0.17-3.9,3.29-3.88c2.96,0.02,3.05,1.49,2.99,3.66
		C496.7,804.26,496.76,807.42,496.76,810.57z"/>
</g>
</svg>
