<?xml version="1.0" encoding="utf-8"?>
<!-- Generator: Adobe Illustrator 24.3.0, SVG Export Plug-In . SVG Version: 6.00 Build 0)  -->
<svg version="1.1" id="Capa_1" xmlns="http://www.w3.org/2000/svg" xmlns:xlink="http://www.w3.org/1999/xlink" x="0px" y="0px"
	 viewBox="0 0 975 1024" style="enable-background:new 0 0 975 1024;" xml:space="preserve">
<style type="text/css">
	.st0{fill:#FFFFFF;}
</style>
<g>
	<path class="st0" d="M123,229.29c13.06-16.78,26.86-31.76,41.59-45.85c56.71-54.24,122.79-92.1,198.54-112.83
		c53.1-14.53,107.12-19.38,161.95-14.43C632.54,65.86,725.27,108.31,803.82,182c14.64,13.74,28.13,28.61,40.78,44.22
		c1.85,2.28,2.05,3.26-1.17,3.99c-10.87,2.45-21.72,5.01-32.54,7.67c-2.65,0.65-4.07-0.38-5.73-2.26
		c-44.75-50.68-98.33-88.97-161.03-114.36c-45.06-18.25-91.91-28.63-140.49-30.3c-118.5-4.08-221.55,34.1-309.13,114.03
		c-10.53,9.61-20.31,19.94-29.72,30.63c-1.27,1.44-2.29,3.04-4.76,2.45C147.94,235.13,135.85,232.32,123,229.29z"/>
	<path class="st0" d="M104.03,605.18c-4.79,0-9.31-0.13-13.81,0.05c-2.69,0.11-2.59-1.67-2.98-3.4
		c-3.51-15.48-5.88-31.15-7.29-46.93c-3.27-36.58-2.1-73.02,4.38-109.24c13.72-76.72,46.43-144.28,98.81-201.93
		c62.82-69.14,140.3-113.07,232.61-127.95c131.8-21.25,248.23,13.19,346.72,103.55c67.65,62.07,108.3,139.62,123.69,230.21
		c8.6,50.64,7.12,101.12-3.18,151.4c-0.65,3.15-1.64,4.73-5.27,4.34c-3.82-0.42-7.73-0.09-11.84-0.09
		c17.76-81.11,12.36-160.14-19.07-236.75c-31.37-76.47-82.37-136.96-151.8-181.79c-125.04-80.75-288.23-81.9-415.96-2.52
		c-71.1,44.19-123.04,105.23-155.21,182.51C91.75,443.73,86.07,523.35,104.03,605.18z"/>
	<path class="st0" d="M484.51,301.95c6.28,9.14,12.4,18.01,18.48,26.91c33.17,48.6,66.29,97.23,99.59,145.74
		c2.53,3.69,2.68,6.38,0.58,10.31c-17.98,33.59-35.78,67.29-53.5,101.02c-1.9,3.62-2.97,4.22-6.16,0.98
		c-18.15-18.47-36.63-36.61-54.78-55.08c-3.14-3.19-4.73-3.68-8.15-0.18c-17.99,18.4-36.31,36.47-54.46,54.71
		c-1.24,1.24-2,2.95-3.49,5.2c-7.37-13.85-13.89-26.08-20.38-38.33c-12.4-23.4-24.76-46.83-37.18-70.22
		c-1.09-2.05-1.79-3.59-0.13-6.01C404.76,418.86,444.46,360.63,484.51,301.95z M484.55,337.03c-32.32,47.32-64.3,94.17-96.36,140.97
		c-1.5,2.2-1.46,3.8-0.23,6.1c12.33,23.06,24.63,46.14,36.68,69.35c2.07,3.99,3.23,3.27,5.83,0.65
		c16.61-16.8,33.45-33.37,49.98-50.24c3.13-3.2,4.7-3.68,8.11-0.18c16.6,17.03,33.59,33.68,50.3,50.6c2.68,2.71,3.63,2.86,5.54-0.81
		c11.91-22.92,24.03-45.74,36.29-68.47c1.74-3.22,1.4-5.31-0.58-8.18c-18.24-26.49-36.32-53.09-54.46-79.65
		C512.08,377.31,498.5,357.44,484.55,337.03z"/>
	<path class="st0" d="M550.74,973.68c5.12-12.87,9.99-24.99,14.72-37.16c0.9-2.31,2.74-2.51,4.6-2.89
		c55.15-11.23,106.04-32.62,152.71-64.08c45.07-30.38,82.93-68.04,113.64-112.86c1.96-2.87,3.91-4.02,7.41-3.95
		c12.3,0.23,24.6,0.09,38.05,0.09c-29.24,48.77-65.52,90.33-109.46,125.16C707.31,929.59,633.59,961.36,550.74,973.68z"/>
	<path class="st0" d="M87.93,752.83c14.16,0,27.39,0.08,40.62-0.07c2.55-0.03,3.27,1.63,4.32,3.17
		c30.08,44.02,67.04,81.21,110.98,111.4c47.45,32.61,99.36,54.77,155.81,66.24c1.83,0.37,3.74,0.39,4.66,2.76
		c4.74,12.17,9.64,24.27,14.84,37.29c-69.36-10.15-132.55-34.25-190.21-72.7C171.15,862.39,124.46,813.17,87.93,752.83z"/>
	<path class="st0" d="M815.45,754.32C737.43,856.89,634.8,916.3,505.16,922.13c-145.96,6.56-262.17-53-350.87-167.58
		c0.16-0.57,0.32-1.14,0.49-1.71c5.87,0,11.74-0.02,17.61,0.01c2.4,0.01,3.04,2.21,4.16,3.65c34.18,43.68,75.67,78.72,124.58,104.84
		c51.4,27.45,106.26,43.01,164.5,45.31c113.86,4.49,211.85-33.18,293.9-112.26c12.49-12.04,23.89-25.07,34.45-38.81
		c1.55-2.01,3.06-2.9,5.61-2.8c5.1,0.2,10.22,0.06,15.33,0.06C815.09,753.32,815.27,753.82,815.45,754.32z"/>
	<path class="st0" d="M901.53,605.18c6.64-31.56,9.61-63.03,9.22-94.85c-0.38-31.34-4.34-62.21-11.4-92.72
		c-0.36-1.55-1.17-3.01-0.09-4.64c8.34-12.64,16.64-25.3,25.34-38.54c4.51,13.1,7.82,25.74,10.74,38.47
		c8.15,35.62,12.03,71.74,11.65,108.27c-0.28,26.89-2.97,53.58-7.74,80.06c-0.57,3.18-1.79,4.1-4.99,4.04
		C923.43,605.05,912.6,605.18,901.53,605.18z"/>
	<path class="st0" d="M45.27,374.4c8.75,13.31,16.98,25.86,25.25,38.38c1.04,1.58,0.53,3.14,0.15,4.67
		c-9.53,39.25-12.93,79.08-11.16,119.36c0.95,21.67,3.64,43.16,8.08,64.4c0.7,3.33,0.09,4.1-3.25,4.04
		c-9.71-0.2-19.42-0.2-29.13,0.01c-3.11,0.07-3.95-1-4.49-3.94c-4.19-22.94-6.76-46.04-7.52-69.35c-1.7-52.15,5.03-103.16,20.53-153
		C44.13,377.74,44.56,376.52,45.27,374.4z"/>
	<path class="st0" d="M484.33,685.13c-6.13-11.54-12.11-22.73-18.05-33.95c-9.52-17.97-18.94-35.99-28.61-53.88
		c-1.72-3.18-1.72-5.09,1.01-7.76c14.33-14.03,28.49-28.24,42.57-42.51c2.3-2.34,3.56-3.1,6.32-0.28
		c14.36,14.69,28.96,29.13,43.52,43.63c1.56,1.56,2.64,2.64,1.24,5.26c-15.62,29.16-31.05,58.43-46.55,87.66
		C485.49,683.84,485.01,684.28,484.33,685.13z M484.56,643.41c8.2-15.51,15.97-30.35,23.9-45.1c1.18-2.19-0.32-2.93-1.37-3.99
		c-6.6-6.65-13.32-13.2-19.83-19.94c-1.98-2.05-3.11-2.41-5.29-0.12c-6.34,6.68-12.88,13.18-19.53,19.55c-2.1,2.01-2.42,3.52-1,6.14
		C469.13,614.12,476.6,628.4,484.56,643.41z"/>
	<path class="st0" d="M469.09,749.75c13.6,0,27.19,0.08,40.79-0.06c2.99-0.03,4.16,0.53,4.15,3.9c0,12.69,0.14,12.69-12.35,12.69
		c-18.61,0-37.23,0.21-55.84-0.13c-5.31-0.1-4.09,2.95-4.25,5.84c-0.17,3.14-0.23,5.33,4.36,5.26c20.55-0.29,41.11-0.03,61.67-0.22
		c3.62-0.03,4.64,0.9,4.62,4.52c-0.07,11.28,0.08,11.28-11.31,11.28c-17.97,0-35.93-0.02-53.9,0.04c-1.33,0-3.18-0.88-3.93,0.77
		c-0.66,1.45,0.66,2.75,1.5,3.87c3.18,4.21,7.65,5.8,12.74,5.83c17.16,0.08,34.31,0.24,51.47,0.08c3.81-0.04,5.25,0.61,5.3,4.85
		c0.13,11.77,0.36,11.76-11.29,11.76c-14.57,0-29.14,0-43.7,0c-21.67,0-34.59-12.42-35.04-33.98c-0.23-10.84,0.06-21.69-0.1-32.53
		c-0.05-2.99,0.85-3.85,3.84-3.82C441.57,749.83,455.33,749.75,469.09,749.75z"/>
	<path class="st0" d="M573.09,749.75c13.44,0,26.87,0.09,40.31-0.06c3.2-0.04,4.61,0.64,4.55,4.21c-0.2,11,0.13,22.02-0.12,33.02
		c-0.48,20.7-13.21,33.06-33.81,33.09c-17,0.03-34-0.08-50.99,0.08c-3.34,0.03-4.55-0.91-4.52-4.29c0.12-11.65,0.06-23.3-0.05-34.95
		c-0.02-2.68,0.85-3.57,3.63-3.66c13.46-0.43,13.43-0.52,13.48,12.64c0.02,4.34-1.42,10.12,0.78,12.65
		c2.6,2.99,8.54,0.86,13.02,0.96c7.6,0.17,15.22,0.15,22.82,0.02c12.46-0.2,18.05-5.78,18.34-18.12c0.11-4.85-0.01-9.72,0.36-14.55
		c0.27-3.59-0.8-4.65-4.51-4.62c-20.88,0.19-41.77-0.03-62.65,0.2c-4.19,0.05-5.49-0.84-5.36-5.25c0.34-11.37,0.1-11.38,11.69-11.38
		C551.08,749.75,562.09,749.75,573.09,749.75z"/>
	<path class="st0" d="M407.08,785.3c0,10.2-0.16,20.4,0.09,30.6c0.09,3.52-1.06,4.23-4.35,4.2c-17.65-0.16-35.29,0.02-52.94-0.11
		c-14.5-0.1-27.09-9.26-31.03-22.13c-0.99-3.22-1.1-5.38,3.33-4.81c2.07,0.27,4.22,0.19,6.31,0.01c4.25-0.37,7.48,0.32,9.98,4.63
		c2.5,4.31,7.44,5.58,12.29,5.65c11.98,0.16,23.96,0.08,35.94,0.18c2.24,0.02,3.13-0.66,3.1-3.04c-0.11-10.36-0.15-20.72,0.02-31.08
		c0.05-2.73-1.19-3.34-3.4-3.31c-1.77,0.02-3.54,0.13-5.32,0.16c-2.45,0.04-3.67-0.76-3.78-3.65c-0.49-12.86-0.6-12.86,12.24-12.86
		c4.7,0,9.4,0.16,14.08-0.06c2.8-0.13,3.52,0.86,3.49,3.56C407,763.93,407.08,774.62,407.08,785.3z"/>
	<path class="st0" d="M681.51,233.01c-131.74,0-263.48,0-395.23,0c-0.02-0.19-0.03-0.37-0.05-0.56c4.14-0.27,8.27-0.59,12.41-0.8
		c42.78-2.16,85.55-4.37,128.33-6.41c22.92-1.09,45.8-3.66,68.78-2.55c47.78,2.31,95.55,4.95,143.32,7.43
		c14.15,0.74,28.31,1.43,42.46,2.14C681.53,232.51,681.52,232.76,681.51,233.01z"/>
	<path class="st0" d="M534.35,286.58c-8.57,0-17.13-0.1-25.7,0.05c-3.35,0.06-4.55-1.14-4.5-4.53c0.16-10.83,0.14-21.66,0.01-32.48
		c-0.03-2.9,0.89-4.06,3.85-4.05c17.29,0.08,34.59,0.08,51.88,0c2.91-0.01,4.12,1.13,4.12,3.94c-0.02,10.99-0.03,21.98,0.02,32.97
		c0.02,3.14-1.44,4.19-4.47,4.14C551.16,286.5,542.75,286.58,534.35,286.58z M534.45,276.31c5.81,0,11.63-0.09,17.44,0.04
		c2.6,0.06,3.83-0.6,3.7-3.49c-0.21-4.67-0.2-9.37,0-14.04c0.12-2.8-0.88-3.56-3.59-3.53c-11.63,0.13-23.26,0.15-34.88-0.01
		c-2.95-0.04-3.47,1.13-3.37,3.69c0.16,4.52,0.21,9.05-0.01,13.56c-0.15,2.94,0.72,3.98,3.76,3.86
		C523.14,276.15,528.79,276.31,534.45,276.31z"/>
	<path class="st0" d="M507.91,195.59c1.36-6.14,2.95-12.23,3.98-18.43c0.52-3.16,2.13-3.41,4.66-3.32c2.47,0.09,4.62-0.27,5.22,3.28
		c1.06,6.28,2.68,12.47,4.74,18.7c1-5.38,2.23-10.73,2.92-16.15c0.54-4.28,1.85-6.93,6.8-5.82c1.06,0.24,2.23,0.03,3.95,0.03
		c-2.68,12.73-5.14,25.13-7.96,37.45c-0.85,3.72-4.37,1.48-6.65,1.89c-1.91,0.35-3.72,0.29-4.28-2.49
		c-1.13-5.59-2.63-11.11-5.04-16.65c-1.16,5.06-2.65,10.08-3.37,15.2c-0.59,4.18-3.07,4.13-6.16,4.04c-2.82-0.08-5,0.22-5.73-3.85
		c-2.08-11.58-4.83-23.05-7.45-35.15c2.76-0.84,5.56-0.34,8.29-0.4c2.05-0.05,1.55,1.77,1.76,2.85c1.27,6.31,2.44,12.64,3.64,18.97
		C507.45,195.69,507.68,195.64,507.91,195.59z"/>
	<path class="st0" d="M651.06,785.26c0,10.34-0.11,20.68,0.07,31.02c0.05,2.96-0.75,3.79-3.77,3.82
		c-12.94,0.12-12.98,0.23-12.97-12.88c0.01-17.77,0.19-35.54,0.07-53.3c-0.02-3.54,1.22-4.23,4.45-4.23
		c12.15,0.02,12.15-0.09,12.15,11.83C651.06,769.43,651.06,777.35,651.06,785.26z"/>
	<path class="st0" d="M650.74,245.96c-5.24,8.18-6.99,16.93-4.75,26.36c0.11,0.47,0.12,0.99,0.33,1.41
		c0.76,1.56,1.02,3.99,2.95,4.05c1.62,0.05,1.97-2.27,2.7-3.65c4.51-8.56,8.97-17.16,13.5-25.71c1.9-3.59,11.62-4.34,13.59-0.89
		c7.26,12.71,14.34,25.52,21.9,39.04c-3.09,0-5.45-0.17-7.77,0.05c-2.48,0.23-3.69-0.84-4.81-2.96
		c-5.05-9.52-10.29-18.94-15.79-29.01c-5.19,9.8-10.14,19.02-14.94,28.3c-1.19,2.29-2.24,4.24-5.35,3.65
		c-3.5-0.66-7.53,1.61-10.11-3.24c-5.23-9.84-6.34-19.93-3.04-30.43C641.37,245.89,642.92,245.14,650.74,245.96z"/>
	<path class="st0" d="M328.68,731.63c1.38,4.91,4.98,4.99,8.28,5.07c7.27,0.17,14.56,0.35,21.82-0.05c4.55-0.25,3.79,2.7,4.15,5.22
		c0.47,3.33-1.79,3.08-3.97,3.06c-7.27-0.04-14.54,0.08-21.81-0.04c-11.77-0.19-17.16-5.46-17.56-17.1
		c-0.15-4.52-0.03-9.05-0.1-13.57c-0.03-2.28,0.57-3.42,3.27-3.38c12.45,0.15,24.89,0.15,37.34,0c3.11-0.04,3.23,1.52,3.35,3.88
		c0.15,2.73-0.78,3.74-3.52,3.71c-9.21-0.09-18.43-0.06-27.64-0.01c-1.93,0.01-4.35-0.81-4.36,2.76c-0.01,3.69,2.56,2.61,4.39,2.62
		c8.4,0.08,16.81,0.08,25.22,0.01c2.74-0.02,4.81-0.28,4.88,3.8c0.08,4.38-2.23,4.06-5.1,4.04
		C347.94,731.59,338.57,731.63,328.68,731.63z"/>
	<path class="st0" d="M387.33,731.63c-4.69,0-9.39-0.01-14.08,0c-1.52,0-2.84,0.02-3-2.13c-0.76-10.36,1.26-18.87,15.05-19.24
		c7.76-0.21,15.54,0.1,23.3-0.1c3.46-0.09,3.92,1.52,3.97,4.42c0.05,3.01-1,3.94-3.93,3.88c-7.28-0.16-14.56-0.09-21.85-0.03
		c-1.76,0.01-3.6,0.11-5.27,0.6c-1.63,0.48-2.81,1.91-2.51,3.69c0.31,1.88,2.09,1.04,3.2,1.05c8.74,0.07,17.48,0.21,26.21-0.04
		c3.31-0.09,4.16,1.24,4.42,4.15c0.97,10.72-4.23,16.83-14.88,17c-7.93,0.13-15.86-0.08-23.79,0.08c-2.82,0.06-4.05-0.54-3.99-3.71
		c0.06-2.9,0.58-4.56,3.84-4.53c7.12,0.07,14.24,0.01,21.36-0.01c1.29,0,2.6,0.09,3.88-0.05c2.39-0.27,4.98-1.21,4.68-3.86
		c-0.26-2.39-2.96-1.02-4.5-1.1C395.43,731.49,391.38,731.64,387.33,731.63z"/>
	<path class="st0" d="M443.15,744.92c-6.15,0-12.3-0.09-18.44,0.04c-2.96,0.06-4.49-0.63-4.27-4.04c0.33-5.16,0.1-10.35,0.38-15.52
		c0.51-9.33,5.62-14.67,15-15.06c8.88-0.38,17.8,0,26.69-0.15c3.93-0.07,3.28,2.48,3.44,4.89c0.18,2.63-0.58,3.74-3.48,3.68
		c-8.57-0.17-17.15-0.11-25.73-0.04c-5.41,0.04-7.19,1.79-7.67,7.16c-0.94,10.58-0.94,10.58,9.54,10.58
		c5.34,0,10.68-0.01,16.02,0.01c1.58,0.01,2.86-0.08,2.8-2.26c-0.05-1.87-0.79-2.71-2.61-2.56c-4.2,0.35-2.87-2.73-3.09-4.88
		c-0.33-3.25,2.01-2.6,3.85-2.65c10.6-0.25,10.6-0.25,10.6,10.18c0,10.62,0,10.62-10.91,10.63
		C451.24,744.92,447.2,744.92,443.15,744.92z"/>
	<path class="st0" d="M507.38,732.36c4.86,4.09,8.9,7.5,12.95,10.91c-5.33,1.84-9.74,2.76-13.27-1.65c-1.6-2-3.88-3.47-5.48-5.47
		c-2.88-3.62-6.4-5.29-10.98-4.51c-3.28,0.56-3.91-0.96-4-4.01c-0.11-3.46,1.33-3.98,4.26-3.86c4.68,0.19,9.38,0.07,14.07,0.04
		c1.61-0.01,3.24,0.01,4.66-1c0.99-0.7,1.72-1.66,1.63-2.82c-0.14-1.78-1.7-1.11-2.66-1.11c-7.6-0.06-15.2,0.09-22.8-0.1
		c-2.8-0.07-3.11,1.18-3.07,3.46c0.11,6.3-0.18,12.62,0.12,18.91c0.17,3.6-1.55,3.8-4.34,3.83c-2.87,0.03-4.49-0.38-4.42-3.86
		c0.19-9.21,0.14-18.43,0.01-27.65c-0.03-2.51,0.7-3.34,3.28-3.31c13.26,0.12,26.52,0.12,39.78,0c2.79-0.03,3.62,0.88,3.54,3.61
		C520.31,725.72,518.3,728.54,507.38,732.36z"/>
	<path class="st0" d="M650.75,728.14c0,4.53-0.09,9.06,0.03,13.58c0.1,3.9-2.73,2.73-4.75,2.89c-1.99,0.15-3.86,0.26-3.8-2.82
		c0.07-3.03,1.43-7.13-0.59-8.86c-2.7-2.3-7.07-1.29-10.75-1.3c-4.37-0.01-8.74,0-13.1,0.02c-2.62,0.01-4.34,0.82-3.83,3.98
		c0.23,1.42-0.04,2.91,0.06,4.36c0.19,2.79,0.23,4.87-3.82,4.78c-3.69-0.07-4.81-1.18-4.59-4.76c0.28-4.51-0.06-9.06,0.1-13.58
		c0.33-9.66,5.11-15.21,14.74-15.88c9.02-0.62,18.1-0.2,27.16-0.35c2.54-0.04,2.98,1.45,2.99,3.38c0.04,4.85,0.01,9.7,0.01,14.55
		C650.65,728.14,650.7,728.14,650.75,728.14z M627.97,723.75c0-0.02,0-0.05,0-0.07c3.69,0,7.39,0.01,11.08-0.01
		c1.69-0.01,3.1-0.15,3.16-2.53c0.06-2.58-1.51-2.3-3.12-2.3c-5.79,0.01-11.57,0.03-17.36-0.01c-2.03-0.01-3.79,0.64-5.33,1.86
		c-0.72,0.57-1.57,1.32-1.12,2.42c0.38,0.94,1.38,0.6,2.09,0.61C620.9,723.78,624.44,723.75,627.97,723.75z"/>
	<path class="st0" d="M307.85,266.21c0,5.66-0.08,11.32,0.04,16.97c0.05,2.34-0.37,3.51-3.13,3.46c-8.57-0.16-17.14-0.17-25.7,0
		c-2.93,0.06-4.5-1.69-5.9-3.58c-8.5-11.51-4.09-27.56,4.45-36.37c0.83-0.86,12.89-1.63,13.7-0.73c2.08,2.28,0.7,5.17,0.93,7.78
		c0.21,2.3-1.76,2.05-3.08,1.86c-2.22-0.33-4.7,1.17-6.7-1.16c-1.31-1.53-1.94,0.3-2.22,1.05c-2.3,6.18-2.86,12.53-1.46,19.02
		c0.37,1.7,1.4,2.45,3.12,2.34c0.32-0.02,0.65,0.01,0.97,0c4.97-0.12,11.36,1.57,14.52-0.89c3-2.33,0.69-9.07,0.87-13.86
		c0.15-4.2,0.34-8.43-0.05-12.6c-0.39-4.15,2-3.81,4.7-3.76c2.79,0.04,5.41-0.5,5.06,3.99
		C307.52,255.19,307.85,260.71,307.85,266.21z"/>
	<path class="st0" d="M589.55,191.4c0,5.63-0.26,11.28,0.09,16.89c0.25,4.06-1.09,5.05-5.09,5.16c-4.48,0.13-4.88-1.74-4.8-5.4
		c0.22-9.7,0-19.41,0.15-29.11c0.03-1.65-1.3-4.72,1.31-4.8c3.14-0.1,7.12-2.29,9.53,2.05c3.76,6.76,7.65,13.45,12.4,20.05
		c0-6.32,0.28-12.65-0.1-18.95c-0.25-4.15,2.24-3.44,4.59-3.39c2.39,0.05,5.18-1.04,5.05,3.47c-0.3,10.34-0.03,20.7-0.16,31.05
		c-0.02,1.64,1.32,4.62-1.7,4.66c-3.07,0.04-6.86,1.98-9.14-2.12c-3.67-6.61-7.45-13.16-11.18-19.74
		C590.18,191.28,589.86,191.34,589.55,191.4z"/>
	<path class="st0" d="M410.89,255.42c-9.72,0-19.15,0-28.74,0c3.37-8.92,4.41-9.66,13.12-9.66c11.77,0,23.54,0,35.41,0
		c0.05,2.3-1.59,3.3-2.67,4.57c-8.11,9.63-16.76,18.86-24.26,28.95c-4.92,6.63-10.47,8.77-18.62,6.72c4.15-4.74,8.23-9.4,12.61-14.4
		c-4.65-1.28-9.13,0.02-13.46-0.84c2.5-6.86,6.52-10.67,14.38-9.43C403.38,262.08,408.6,262.39,410.89,255.42z"/>
	<path class="st0" d="M565.48,710.23c5.02,0,10.03-0.11,15.05,0.02c10.9,0.29,16.76,6.08,17.08,16.84c0.14,4.69-0.15,9.39,0.1,14.07
		c0.19,3.58-1.69,3.71-4.46,3.82c-3.14,0.13-4.32-0.77-4.15-4.03c0.24-4.68,0.2-9.39-0.02-14.07c-0.27-5.64-2.41-8.01-8.05-8.25
		c-8.07-0.34-16.17-0.13-24.25-0.26c-2.73-0.04-3.08,1.39-3.04,3.66c0.11,6.47-0.02,12.94,0.07,19.41c0.03,2.26-0.24,3.87-3.07,3.45
		c-2.11-0.31-4.84,1.17-5.03-3.08c-0.42-9.38-0.15-18.75-0.19-28.13c-0.01-2.64,1.28-3.61,3.95-3.52
		C554.8,710.36,560.14,710.23,565.48,710.23z"/>
	<path class="st0" d="M424.71,193.19c0-5.33,0.1-10.66-0.05-15.98c-0.07-2.43,0.52-3.55,3.19-3.38c3.38,0.21,6.78-0.03,10.16,0.07
		c10.26,0.3,17.23,7.47,17.63,18.03c0.46,12.08-5.36,19.74-15.93,21c-15.01,1.78-15.01,1.78-15.01-12.95
		C424.71,197.71,424.71,195.45,424.71,193.19z M434.29,193.64c0,3.06,0.18,6.14-0.05,9.18c-0.23,2.91,1.27,3.16,3.5,2.93
		c4.76-0.49,7.45-3.58,8.01-9.32c0.77-7.84-1.32-13.28-5.63-14.61c-0.61-0.19-1.27-0.22-1.9-0.29c-2.56-0.31-4.37-0.01-3.98,3.42
		C434.54,187.81,434.28,190.74,434.29,193.64z"/>
	<path class="st0" d="M572.51,213.08c-4,0.85-6.53-0.06-7-4.07c-0.28-2.37-1.53-3.3-3.94-3.09c-2.09,0.18-4.22,0.21-6.3-0.01
		c-2.55-0.26-3.73,0.7-4.4,3.17c-0.97,3.57-7.13,5.82-10.32,4.1c-1.37-0.74-0.63-1.67-0.35-2.44c4.24-11.68,8.5-23.36,12.81-35.02
		c1.24-3.36,4.18-1.43,6.34-1.78c1.68-0.27,3.38-0.4,4.24,2.02c4.18,11.7,8.82,23.25,12.72,35.04
		C577.89,215.77,573.15,211.85,572.51,213.08z M558,186.46c-1.06,3.3-2.07,6.34-3,9.41c-0.26,0.85-0.77,2.18,0.63,2.31
		c1.89,0.19,4.1,0.43,5.65-0.38c1.2-0.62-0.06-2.6-0.48-3.92C560.03,191.47,559.67,188.89,558,186.46z"/>
	<path class="st0" d="M489.41,213.08c-3.9,0.86-6.16-0.11-6.61-3.91c-0.3-2.48-1.67-3.57-4.29-3.26c-1.92,0.23-3.9,0.22-5.82,0
		c-2.77-0.31-4.03,0.72-4.66,3.48c-0.74,3.26-7.94,5.6-10.57,3.72c-1.21-0.87-0.24-1.75,0.04-2.52c4.19-11.53,8.49-23.03,12.6-34.58
		c1.26-3.54,4.02-1.78,6.15-2.08c1.86-0.26,3.72-0.43,4.65,2.17c4.08,11.4,8.46,22.7,12.5,34.11
		C495.45,216.01,490.14,211.85,489.41,213.08z M475.43,185.8c-1.25,3.93-2.24,6.97-3.18,10.03c-0.42,1.38-0.42,2.29,1.57,2.55
		c4.97,0.65,5.62,0,4.11-4.93C477.23,191.2,476.46,188.97,475.43,185.8z"/>
	<path class="st0" d="M417.11,213.06c-4.02,0.92-6.12-0.3-6.57-4.01c-0.31-2.57-1.88-3.41-4.38-3.13c-1.76,0.19-3.57,0.19-5.32,0
		c-2.81-0.3-4.44,0.48-5.13,3.53c-0.74,3.25-7.11,5.34-10.13,3.7c-1.27-0.69-0.76-1.57-0.44-2.44c4.28-11.64,8.66-23.25,12.82-34.93
		c1-2.81,3.09-1.92,4.75-1.8c1.97,0.14,4.57-1.44,5.75,1.8c4.26,11.65,8.91,23.16,12.78,34.93
		C422.81,215.46,417.93,211.95,417.11,213.06z M399.31,198.23c2.96,0.02,5.27,0.42,7.76-0.37c-1.22-3.85-2.34-7.35-3.45-10.85
		c-0.3,0.05-0.61,0.11-0.91,0.16C401.63,190.68,400.56,194.19,399.31,198.23z"/>
	<path class="st0" d="M621.76,843.34c1.9,4.72,5.52,4.27,8.56,4.42c5.49,0.27,11,0.18,16.49,0.04c2.68-0.07,4.09,0.29,4.08,3.58
		c-0.01,3.1-1.35,3.45-3.8,3.32c-7.41-0.38-14.88,0.77-22.25-0.71c-7.32-1.47-10.72-5.29-10.79-12.68
		c-0.05-5.1-2.2-11.75,0.95-14.86c2.5-2.46,9.18-0.73,14-0.77c6.31-0.05,12.62,0.05,18.92-0.05c2.14-0.03,3.3,0.38,3.22,2.88
		c-0.07,2.2-0.19,3.64-3.05,3.61c-7.76-0.07-15.52,0.09-23.27,0.26c-1.52,0.03-3.93-0.95-3.81,2.14c0.12,3.04,2.52,1.91,4,1.93
		c6.79,0.12,13.59,0,20.38,0.1c2.51,0.04,5.11-0.23,4.86,3.99c-0.25,4.03-2.85,2.72-4.75,2.75
		C637.77,843.41,630.05,843.34,621.76,843.34z"/>
	<path class="st0" d="M356.56,193.32c0-5.49,0.1-10.99-0.05-16.48c-0.06-2.34,0.7-3.08,3.02-3c4.52,0.16,9.05-0.06,13.57,0.07
		c8.51,0.25,14.32,5.67,14.4,13.24c0.07,7.16-5.17,12.06-13.68,12.79c-7.65,0.66-7.92,0.67-7.58,8.5c0.19,4.28-1.43,4.87-5.22,5.01
		c-4.27,0.16-4.66-1.73-4.52-5.11C356.71,203.34,356.56,198.32,356.56,193.32z M369.87,192.34c5.59,0.02,8.16-1.7,7.81-5.33
		c-0.43-4.41-3.33-5.42-7.45-5.64c-4.21-0.22-4.49,1.84-4.09,4.87C366.5,188.92,364.22,193.48,369.87,192.34z"/>
	<path class="st0" d="M634.46,286.27c-10.35,0.76-19.51,1.28-27.55-4.64c-3.69-2.71-7.89-3.27-12.39-3.03
		c-4.84,0.25-9.71,0.23-14.55-0.01c-3.07-0.15-4.2,0.96-3.69,3.88c0.94,5.35-2.94,3.8-5.71,4.16c-3.7,0.48-4.4-1.3-4.06-4.45
		c0.46-4.29-1.86-10.03,1-12.51c2.45-2.12,8.05-0.32,12.19-0.82c16.07-1.92,30.61,1.66,43.76,11.17
		C626.56,282.27,630.14,283.85,634.46,286.27z"/>
	<path class="st0" d="M501.36,285.79c-8.36,0.39-16.83,2.68-24.24-2.94c-5.8-4.4-12.52-4.58-19.38-4.22
		c-2.58,0.13-5.19,0.23-7.76-0.03c-4.09-0.4-7,0.08-6.02,5.36c0.61,3.28-2.03,2.92-3.71,2.52c-2.04-0.49-5.66,2.23-5.92-2.29
		c-0.25-4.19,0.04-8.41-0.09-12.61c-0.07-2.19,0.83-2.71,2.84-2.7c10.67,0.07,21.34,0.02,32.02,0.06c0.94,0,2.01,0.1,2.81,0.53
		C481.74,274.87,491.54,280.34,501.36,285.79z"/>
	<path class="st0" d="M379.3,286.11c-11.03,1.52-20.6,0.68-29.07-5.45c-3.44-2.49-7.34-1.99-11.19-2
		c-3.55-0.01-7.11,0.15-10.66-0.04c-4.28-0.23-7.62-0.45-7.18,5.87c0.28,4.01-3.95,1.48-6.08,2.01c-1.67,0.42-3.57,0.45-3.45-2.43
		c0.17-4.19,0.14-8.4,0.01-12.59c-0.07-2.32,1.11-2.59,2.98-2.58c10.66,0.05,21.32,0.02,31.98,0.03c1.15,0,2.18,0.27,3.22,0.85
		C359.39,275.11,368.96,280.38,379.3,286.11z"/>
	<path class="st0" d="M632.69,246.54c-10,5.43-19.99,10.89-30.04,16.25c-0.92,0.49-2.19,0.45-3.3,0.46
		c-9.7,0.03-19.41-0.1-29.1,0.09c-3,0.06-4-0.81-3.77-3.81c0.26-3.38,0.34-6.82-0.01-10.17c-0.45-4.24,2.17-3.88,4.82-3.73
		c2.32,0.13,5.72-1.08,4.96,3.4c-0.71,4.17,1.4,4.87,4.9,4.57c2.73-0.24,5.52-0.3,8.24,0c8.39,0.92,15.97-0.76,22.53-6.27
		c1.69-1.42,3.68-1.79,5.88-1.74c4.91,0.1,9.82,0.03,14.72,0.03C632.58,245.92,632.64,246.23,632.69,246.54z"/>
	<path class="st0" d="M500.51,246.51c-10,5.41-20.02,10.81-30,16.25c-1.24,0.67-2.51,0.48-3.78,0.49
		c-9.54,0.02-19.08-0.14-28.61,0.1c-3.33,0.08-4.16-1.07-3.89-4.1c0.23-2.57,0.36-5.21-0.02-7.74c-0.73-4.91,1.05-6.38,5.96-6.05
		c3.28,0.22,4.32,1.2,3.82,4.19c-0.54,3.23,0.84,4.21,3.97,3.95c3.05-0.26,6.17-0.34,9.2,0c8.41,0.95,15.95-0.86,22.53-6.28
		c1.72-1.42,3.68-1.78,5.87-1.74c4.92,0.1,9.83,0.03,14.75,0.03C500.37,245.91,500.44,246.21,500.51,246.51z"/>
	<path class="st0" d="M377.68,246.6c-9.86,5.33-19.74,10.65-29.58,16.02c-1.23,0.67-2.47,0.63-3.75,0.63
		c-9.69,0.01-19.38-0.14-29.06,0.09c-3.2,0.07-3.79-1.12-3.62-3.91c0.21-3.38,0.32-6.81-0.02-10.16c-0.38-3.71,1.63-3.99,4.32-3.65
		c2.33,0.29,6.21-1.5,5.43,3.44c-0.66,4.22,1.47,4.79,4.9,4.52c2.73-0.22,5.52-0.31,8.22,0c8.39,0.96,15.92-0.84,22.49-6.3
		c1.53-1.27,3.33-1.76,5.39-1.72c4.99,0.11,9.98,0.04,14.98,0.04C377.48,245.94,377.58,246.27,377.68,246.6z"/>
	<path class="st0" d="M862.33,713.97c2.53-5.05,4.82-9.45,6.91-13.94c0.59-1.27,1.33-1.62,2.57-1.61
		c12.39,0.02,24.78,0.01,37.85,0.01c-2.21,4.92-4.25,9.26-6.09,13.67c-0.83,2-2.34,1.88-3.97,1.87
		C887.49,713.97,875.37,713.97,862.33,713.97z"/>
	<path class="st0" d="M60.18,698.43c12.86,0,24.81,0.04,36.76-0.04c1.97-0.01,3.29,0.37,4.17,2.35c1.56,3.53,3.34,6.97,5.14,10.39
		c0.99,1.88,1.13,2.88-1.55,2.87c-11.79-0.07-23.58-0.06-35.37,0c-1.52,0.01-2.36-0.53-2.96-1.87
		C64.43,707.75,62.42,703.38,60.18,698.43z"/>
	<path class="st0" d="M401.37,840.12c0-3.72,0.14-7.45-0.05-11.16c-0.15-3.02,1.68-2.84,3.73-2.94c2.28-0.11,3.01,0.68,3.1,3.03
		c0.29,7.43,0.41,7.43,7.68,7.43c3.07,0,6.19-0.31,9.21,0.07c4.68,0.6,6.56-1.02,5.74-5.75c-0.57-3.27,0.24-5.29,4.27-4.82
		c2.11,0.24,2.77,0.97,2.75,2.98c-0.07,7.6-0.12,15.21,0.02,22.81c0.06,2.93-1.57,2.89-3.69,2.99c-2.48,0.11-3.34-0.69-3.44-3.27
		c-0.26-7.33-0.38-7.33-7.83-7.33c-3.72,0-7.46,0.22-11.16-0.07c-3.13-0.25-4.03,0.93-3.66,3.83c0.18,1.43-0.06,2.91,0.05,4.36
		c0.18,2.45-1.36,2.5-3.11,2.42c-1.73-0.07-3.71,0.42-3.64-2.46C401.44,848.21,401.37,844.16,401.37,840.12z"/>
	<path class="st0" d="M40.8,644.03c12.2,0,23.8,0.04,35.4-0.04c1.76-0.01,2.6,0.61,3.11,2.22c1.34,4.28,2.79,8.53,4.38,13.36
		c-12.25,0-24.1-0.03-35.95,0.03c-1.84,0.01-2.51-0.89-2.97-2.46C43.57,652.99,42.27,648.86,40.8,644.03z"/>
	<path class="st0" d="M905.13,659.58c-5.32,0-10.65-0.08-15.97,0.04c-2.23,0.05-2.98-0.63-2.12-2.76c0.18-0.45,0.36-0.9,0.51-1.36
		c3.72-11.46,3.72-11.46,15.74-11.46c7.42,0,14.84,0.11,22.26-0.05c3.05-0.07,3.33,0.72,2.52,3.56
		c-3.41,12.01-3.3,12.04-15.69,12.04C909.97,659.58,907.55,659.58,905.13,659.58z"/>
	<path class="st0" d="M337.76,854.44c-4.84,0-9.69-0.07-14.53,0.03c-2.13,0.04-3.41-0.53-3.45-2.9c-0.08-5.48-0.69-10.97,0.56-16.4
		c1.34-5.85,4.29-8.85,10.26-9.17c7.41-0.4,14.85-0.12,22.27-0.23c2.22-0.04,2.63,1.1,2.78,2.97c0.19,2.32-0.8,3.32-2.98,3.33
		c-5.17,0.03-10.34,0.08-15.5,0.02c-11.26-0.13-11.06,4.95-10.79,14.3c0.07,2.41,2.09,1.54,3.33,1.55
		c7.43,0.08,14.86,0.03,22.28,0.05c1.8,0.01,3.84-0.68,3.73,2.65c-0.09,2.96-0.99,3.98-3.94,3.85
		C347.13,854.3,342.44,854.44,337.76,854.44z"/>
	<path class="st0" d="M541.94,840.3c0-3.71,0.11-7.43-0.04-11.14c-0.1-2.54,0.89-3.27,3.37-3.42c2.78-0.17,2.71,1.26,2.69,3.19
		c-0.06,5.17,0.13,10.34-0.08,15.5c-0.12,2.84,0.91,3.61,3.6,3.47c3.87-0.2,7.75-0.06,11.62-0.05c2.48,0,4.84-0.28,6.49-2.48
		c1.72-2.28,4.18-1.05,6.3-1.17c1.93-0.11,1.34,1.44,1.02,2.4c-1.25,3.78-3.66,6.58-7.72,7.2c-8.33,1.28-16.75,0.4-25.12,0.56
		c-2.17,0.04-2.16-1.4-2.15-2.94C541.95,847.73,541.94,844.01,541.94,840.3z"/>
	<path class="st0" d="M822.37,713.97c2.81-5.12,5.3-9.56,7.68-14.06c0.75-1.42,1.86-1.51,3.2-1.5c4.83,0.03,9.66,0.01,15.03,0.01
		c-1.75,5.36-4.72,9.7-7.08,14.33c-0.52,1.02-1.4,1.22-2.41,1.22C833.56,713.97,828.31,713.97,822.37,713.97z"/>
	<path class="st0" d="M147.53,713.97c-6,0-11.11-0.03-16.22,0.02c-1.25,0.01-2.2-0.32-2.79-1.44c-2.37-4.51-4.73-9.02-7.41-14.12
		c5.81,0,10.92,0.04,16.02-0.02c1.54-0.02,2.28,0.75,2.94,1.99C142.34,704.64,144.7,708.83,147.53,713.97z"/>
	<path class="st0" d="M536.44,727.57c0,4.84-0.1,9.68,0.04,14.51c0.07,2.51-1.14,3.09-3.24,2.81c-1.84-0.24-4.61,1.06-4.64-2.46
		c-0.07-9.83-0.07-19.67-0.1-29.5c-0.01-3.45,2.62-2.53,4.53-2.67c1.95-0.14,3.5,0.2,3.44,2.79
		C536.36,717.89,536.44,722.73,536.44,727.57z"/>
	<path class="st0" d="M848.99,659.32c0.54-1.61,0.92-2.82,1.36-4c4.7-12.46,4.69-12.38,17.99-11.35c2.47,0.19,2.6,1.1,1.96,2.95
		c-0.11,0.3-0.23,0.6-0.33,0.91C866.06,660.57,866.06,660.57,848.99,659.32z"/>
	<path class="st0" d="M120.43,659.58c-4.69,0-9.34-0.09-13.98,0.04c-1.77,0.05-2.64-0.66-3.16-2.2c-1.25-3.64-2.48-7.3-3.84-10.9
		c-0.76-2.01-0.07-2.65,1.88-2.5c0.48,0.04,0.97,0.01,1.45,0C116.7,643.82,117.96,644.91,120.43,659.58z"/>
	<path class="st0" d="M575.17,733.44c0,2.1,0,4.19,0,6.29c-0.01,4.63-2.54,6.37-6.89,4.92c-1.74-0.58-1.5-1.87-1.5-3.11
		c-0.02-5.16,0.17-10.33-0.07-15.48c-0.17-3.64,2.07-3.2,4.37-3.26c2.45-0.07,4.54-0.14,4.14,3.39
		C574.95,728.58,575.17,731.02,575.17,733.44z"/>
	<path class="st0" d="M482.69,839.91c0-3.56,0.1-7.12-0.04-10.67c-0.09-2.28,0.69-3.13,3.03-3.1c2.35,0.02,3.55,0.55,3.49,3.23
		c-0.14,6.95-0.02,13.9-0.09,20.85c-0.02,2.13-0.13,3.95-3.37,3.92c-3.36-0.04-3.06-1.88-3.04-4.04
		C482.72,846.7,482.69,843.31,482.69,839.91z"/>
</g>
</svg>
