<svg xmlns="http://www.w3.org/2000/svg" xmlns:xlink="http://www.w3.org/1999/xlink" width="240" height="240" viewBox="0 0 240 240">
  <defs>
    <filter id="jedi-order-svgrepo-com" x="-13.809" y="-18.335" width="267.618" height="265.755" filterUnits="userSpaceOnUse">
      <feOffset input="SourceAlpha"/>
      <feGaussianBlur stdDeviation="20" result="blur"/>
      <feFlood flood-color="#036cf5"/>
      <feComposite operator="in" in2="blur"/>
      <feComposite in="SourceGraphic"/>
    </filter>
    <clipPath id="clip-jedi-hover">
      <rect width="240" height="240"/>
    </clipPath>
  </defs>
  <g id="jedi-hover" clip-path="url(#clip-jedi-hover)">
    <g transform="matrix(1, 0, 0, 1, 0, 0)" filter="url(#jedi-order-svgrepo-com)">
      <g id="jedi-order-svgrepo-com-2" data-name="jedi-order-svgrepo-com" transform="translate(45.18 38.78)" fill="#fff" stroke-linecap="round">
        <path d="M 75.48174285888672 147.6350860595703 L 75.47596740722656 147.6350860595703 L 74.16301727294922 147.6350860595703 L 74.15719604492188 147.6350860595703 L 74.15140533447266 147.6350250244141 C 66.23074340820312 147.5429534912109 58.76969909667969 146.5977478027344 51.97555923461914 144.82568359375 C 45.78415298461914 143.2108001708984 40.00778961181641 140.8735504150391 34.80690383911133 137.8788146972656 C 26.03892517089844 132.8300933837891 18.73124313354492 125.8493194580078 13.08685684204102 117.1303863525391 C 10.87260627746582 113.7099990844727 8.912652015686035 110.0109558105469 7.261424541473389 106.1359710693359 C 5.941220283508301 103.0377960205078 4.814084053039551 99.82026672363281 3.911333799362183 96.57281494140625 C 2.370333909988403 91.02935791015625 2.020311117172241 87.35729217529297 2.006151914596558 87.20368194580078 L 3.937811136245728 86.75963592529297 C 5.240242481231689 90.21900939941406 6.571307182312012 93.21312713623047 7.866516590118408 95.78858184814453 C 6.18899393081665 91.93361663818359 4.906360149383545 88.01313781738281 4.026697635650635 84.04351806640625 C 2.264924764633179 76.09320068359375 2.108538389205933 67.93697357177734 3.561856508255005 59.80140686035156 C 4.853765487670898 52.56947326660156 7.206106662750244 46.69229125976562 8.951992988586426 43.03543090820312 C 10.85156154632568 39.05665588378906 12.43321990966797 36.81088256835938 12.49960613250732 36.71722412109375 L 14.19901561737061 37.76377105712891 C 8.331151962280273 48.83940505981445 8.723152160644531 61.17411041259766 15.36415195465088 74.42527008056641 C 17.14505767822266 77.97881317138672 19.15468406677246 81.10511779785156 20.93216514587402 83.584716796875 C 14.49132061004639 69.85894775390625 12.80617713928223 56.47089004516602 15.9271068572998 43.67327117919922 C 17.35085678100586 37.83513259887695 19.79146957397461 32.11792755126953 23.18115234375 26.68047523498535 C 25.88665199279785 22.34056663513184 29.19949340820312 18.16824722290039 33.02767562866211 14.27938365936279 C 39.54571914672852 7.658065795898438 45.22794723510742 4.195906639099121 45.46665191650391 4.051770210266113 L 46.58308410644531 5.708156585693359 C 39.08828735351562 11.32202053070068 34.88969802856445 18.29711151123047 34.10394668579102 26.4397029876709 C 33.14303970336914 36.39747619628906 37.48215103149414 46.42840576171875 41.29144668579102 53.08983993530273 C 45.4543342590332 60.36963272094727 49.91242599487305 65.3272705078125 49.95697021484375 65.37649536132812 L 50.43188095092773 65.90133666992188 L 50.09492492675781 66.52390289306641 C 41.85415267944336 81.73851776123047 39.81165313720703 95.91147613525391 44.02419662475586 108.649040222168 C 47.53260803222656 119.257453918457 54.83069610595703 126.9089050292969 60.33524322509766 131.4596099853516 C 64.49514007568359 134.8986968994141 68.28856658935547 137.1370086669922 70.24048614501953 138.1940765380859 C 70.30892944335938 135.4721832275391 70.47811126708984 128.8153533935547 70.83994293212891 114.909912109375 L 61.57735824584961 124.6332702636719 L 59.96260833740234 123.4889526367188 L 67.08271026611328 109.5373229980469 L 48.39833450317383 106.820426940918 L 48.39833450317383 104.8412475585938 L 67.24786376953125 102.1003646850586 L 61.19322204589844 85.46768188476562 L 62.95822143554688 84.56092834472656 L 71.28059387207031 96.72454833984375 C 72.05570220947266 67.23133850097656 73.71833038330078 3.63629412651062 73.73564910888672 2.973861217498779 L 75.73351287841797 2.94011116027832 C 75.76737213134766 3.504470825195312 77.43781280517578 67.10283660888672 78.19265747070312 96.73227691650391 L 86.51301574707031 84.57186126708984 L 88.27796936035156 85.4786376953125 L 82.22283935546875 102.1111679077148 L 101.0837173461914 104.8521575927734 L 101.083740234375 106.8313598632812 L 82.38796997070312 109.5488662719727 L 89.50804138183594 123.5004272460938 L 87.89308166503906 124.6445236206055 C 87.81671142578125 124.5643081665039 81.82290649414062 118.2687149047852 78.63129425048828 114.9197235107422 C 78.99640655517578 128.8253173828125 79.16419982910156 135.4815216064453 79.2315673828125 138.2049102783203 C 81.18365478515625 137.1474456787109 84.97682952880859 134.9086608886719 89.13655853271484 131.4691162109375 C 94.64138031005859 126.9173355102539 101.9396743774414 119.264404296875 105.4475402832031 108.6548614501953 C 109.6587905883789 95.91783905029297 107.6159210205078 81.74663543701172 99.37571716308594 66.53483581542969 L 99.03820037841797 65.91179656982422 L 99.51417541503906 65.3868408203125 C 99.55851745605469 65.33788299560547 104.0129699707031 60.38947296142578 108.1739273071289 53.11960983276367 C 111.9814682006836 46.46722412109375 116.3199691772461 36.44776916503906 115.3659896850586 26.49327087402344 C 114.5848770141602 18.34251976013184 110.3863143920898 11.35681533813477 102.8869018554688 5.730156898498535 L 104.0041732788086 4.074361324310303 C 104.2429504394531 4.218634128570557 109.9271774291992 7.683861255645752 116.4466552734375 14.30899715423584 C 120.2756729125977 18.20008850097656 123.5889892578125 22.37442970275879 126.2945404052734 26.71606636047363 C 129.6843414306641 32.15574645996094 132.1244049072266 37.87472534179688 133.5469970703125 43.71415710449219 C 136.6639862060547 56.50880813598633 134.9761047363281 69.89174652099609 128.5341796875 83.609375 C 130.3128051757812 81.13068389892578 132.3244476318359 78.00404357910156 134.1069183349609 74.44890594482422 C 140.7479858398438 61.20336151123047 141.1399230957031 48.86431503295898 135.2718505859375 37.77452087402344 L 136.9714508056641 36.72836303710938 C 137.0378570556641 36.82199859619141 138.6198272705078 39.0677490234375 140.5199890136719 43.04647445678711 C 142.2664184570312 46.70329284667969 144.61962890625 52.58042907714844 145.9126281738281 59.81233978271484 C 147.3671722412109 67.94786071777344 147.2119750976562 76.10404205322266 145.4513854980469 84.05433654785156 C 144.4773406982422 88.45277404785156 143.0081939697266 92.79168701171875 141.0556945800781 97.04710388183594 C 142.5714569091797 94.20268249511719 144.1548767089844 90.79959106445312 145.7037353515625 86.76451873779297 L 147.633056640625 87.21527099609375 C 147.6188049316406 87.36885833740234 147.2662658691406 91.04056549072266 145.7221069335938 96.58338165283203 C 144.8175201416016 99.83045196533203 143.6886901855469 103.0475692749023 142.3670196533203 106.1453628540039 C 140.7139434814453 110.0198135375977 138.7524719238281 113.7183609008789 136.5370635986328 117.1382446289062 C 130.8897399902344 125.8558807373047 123.5814437866211 132.8354034423828 114.8152008056641 137.8829345703125 C 109.6152877807617 140.8769683837891 103.8407440185547 143.2135620117188 97.65192413330078 144.8277893066406 C 90.86060333251953 146.5991516113281 83.40342712402344 147.5436553955078 75.48751831054688 147.6350250244141 L 75.48174285888672 147.6350860595703 Z" stroke="none"/>
        <path d="M 74.73531341552734 3 C 74.73531341552734 3 72.94029235839844 71.66018676757812 72.19907379150391 99.83790588378906 L 62.13291168212891 85.12561798095703 L 68.60793304443359 102.9130859375 L 48.54222106933594 105.8308258056641 L 68.60793304443359 108.7485961914062 L 60.85331726074219 123.9435195922852 L 71.90719604492188 112.3397521972656 C 71.33262634277344 134.3923797607422 71.20045471191406 139.8118743896484 71.20045471191406 139.8118743896484 C 71.20045471191406 139.8118743896484 21.71028900146484 116.8295669555664 49.21562194824219 66.04763793945312 C 49.21562194824219 66.04763793945312 14.91583251953125 28.17854309082031 45.98357391357422 4.907806396484375 C 45.98357391357422 4.907806396484375 -7.067855834960938 36.94351959228516 26.59140777587891 91.94882965087891 C 26.59140777587891 91.94882965087891 -1.2388916015625 64.76687622070312 13.31536865234375 37.29561614990234 C 13.31536865234375 37.29561614990234 -11.90937805175781 72.87371063232422 18.83674621582031 112.014518737793 C 18.83674621582031 112.014518737793 10.43710327148438 106.8604965209961 3.001953125 87.11196899414062 C 3.001953125 87.11196899414062 8.413238525390625 145.8708801269531 74.16300964355469 146.6350860595703 L 75.47595977783203 146.6350860595703 C 141.1856536865234 145.8766174316406 146.6373138427734 87.12287902832031 146.6373138427734 87.12287902832031 C 139.0700378417969 106.8369293212891 130.6454315185547 112.0254516601562 130.6454315185547 112.0254516601562 C 161.3857879638672 72.88463592529297 136.1557159423828 37.30683135986328 136.1557159423828 37.30683135986328 C 150.7100067138672 64.81227874755859 122.8793182373047 91.95976257324219 122.8793182373047 91.95976257324219 C 156.53857421875 36.98344421386719 103.4870529174805 4.930252075195312 103.4870529174805 4.930252075195312 C 134.5491790771484 28.23549652099609 100.2549819946289 66.05854034423828 100.2549819946289 66.05854034423828 C 127.7604598999023 116.8347625732422 78.27074432373047 139.8233489990234 78.27074432373047 139.8233489990234 C 78.27074432373047 139.8233489990234 78.14376831054688 134.4033050537109 77.56343078613281 112.3512573242188 C 78.94243621826172 113.7929000854492 88.61734008789062 123.9549942016602 88.61734008789062 123.9549942016602 L 80.86271667480469 108.7600708007812 L 100.9399108886719 105.8417587280273 L 80.86271667480469 102.9240188598633 L 87.33831787109375 85.13654327392578 L 77.27153015136719 99.84938049316406 C 76.55905151367188 71.72914123535156 74.76979064941406 3.5745849609375 74.73531341552734 3 M 76.73171997070312 2.880203247070312 C 76.76941680908203 3.508590698242188 78.3516845703125 63.84546661376953 79.11337280273438 93.61568450927734 L 85.68769836425781 84.00716400146484 L 89.2176513671875 85.82073211669922 L 83.58297729492188 101.2983245849609 L 101.2275314331055 103.8625411987305 L 101.2276000976562 107.8209533691406 L 83.91323852539062 110.3376693725586 L 90.39877319335938 123.0458526611328 L 87.16883850097656 125.3340682983398 C 87.105224609375 125.2672348022461 82.93442535400391 120.8864593505859 79.69905090332031 117.4900970458984 C 79.96173095703125 127.5196838378906 80.11045074462891 133.3531494140625 80.18981170654297 136.5171661376953 C 82.26228332519531 135.3059997558594 85.29277038574219 133.3554534912109 88.54931640625 130.6570739746094 C 93.93817138671875 126.1918029785156 101.0805053710938 118.6925888061523 104.5036926269531 108.323974609375 C 108.6174774169922 95.86357116699219 106.5963439941406 81.96392059326172 98.49642944335938 67.01116180419922 L 97.8214111328125 65.76504516601562 L 98.77333831787109 64.71514129638672 C 98.81671905517578 64.66721343994141 103.2217712402344 59.76899719238281 107.3290100097656 52.58268737792969 C 111.0543670654297 46.06449890136719 115.2999572753906 36.26251983642578 114.3699340820312 26.58204650878906 C 113.6151504516602 18.72579956054688 109.5497894287109 11.97932434082031 102.2867660522461 6.530044555664062 L 104.5213165283203 3.21844482421875 C 104.7644805908203 3.365371704101562 110.5528411865234 6.8939208984375 117.1594085693359 13.60758972167969 C 121.0398864746094 17.55091857910156 124.3989105224609 21.78330230712891 127.1432418823242 26.18718719482422 C 130.58935546875 31.71723175048828 133.0707855224609 37.53452301025391 134.5185852050781 43.47744750976562 C 136.8770294189453 53.15847015380859 136.537841796875 63.15946197509766 133.5218200683594 73.37591552734375 C 139.7120361328125 60.67255401611328 140.0038909912109 48.85554504394531 134.3879547119141 38.24223327636719 L 137.7871551513672 36.14990234375 C 137.8555755615234 36.24642181396484 139.4856262207031 38.56021118164062 141.4223327636719 42.61551666259766 C 143.1953430175781 46.32797241210938 145.5843658447266 52.29449462890625 146.8969879150391 59.63632965087891 C 148.3748931884766 67.90251922607422 148.2170104980469 76.19068908691406 146.4277038574219 84.27056884765625 C 146.2510070800781 85.06842803955078 146.0582275390625 85.86460876464844 145.8495941162109 86.65835571289062 L 148.6287689208984 87.30766296386719 C 148.6141662597656 87.46490478515625 148.25341796875 91.22337341308594 146.6854095458984 96.85173034667969 C 145.7690734863281 100.1409225463867 144.6256256103516 103.3997802734375 143.2867736816406 106.5377807617188 C 141.6113433837891 110.4647369384766 139.6227722167969 114.2141571044922 137.3763427734375 117.6819458007812 C 131.6419830322266 126.5339508056641 124.2191925048828 133.6221313476562 115.3141708374023 138.7495422363281 C 110.0369567871094 141.7881164550781 104.1794357299805 144.15869140625 97.90431213378906 145.7954254150391 C 91.03438568115234 147.5872802734375 83.49617004394531 148.5426330566406 75.49905395507812 148.6349487304688 L 75.47595977783203 148.6350860595703 L 74.1397705078125 148.6349487304688 C 66.13790893554688 148.5419464111328 58.59588623046875 147.5858764648438 51.72317504882812 145.7933044433594 C 45.4454345703125 144.1558990478516 39.58609771728516 141.78466796875 34.30790710449219 138.7454071044922 C 25.40107727050781 133.6167297363281 17.97886657714844 126.5272369384766 12.24740600585938 117.673828125 C 10.00212097167969 114.2054901123047 8.01507568359375 110.4554901123047 6.341476440429688 106.5279998779297 C 5.004119873046875 103.3895416259766 3.862335205078125 100.130256652832 2.947891235351562 96.84066772460938 C 1.383071899414062 91.21156311035156 1.024856567382812 87.45263671875 1.010391235351562 87.29537963867188 L 3.640213012695312 86.69082641601562 C 3.427001953125 85.88249206542969 3.230453491210938 85.07246398925781 3.050384521484375 84.25984954833984 C 1.2598876953125 76.17996978759766 1.100738525390625 67.89178466796875 2.577438354492188 59.62554168701172 C 3.88897705078125 52.28366088867188 6.277099609375 46.31707000732422 8.049560546875 42.60459136962891 C 9.985702514648438 38.54920959472656 11.61538696289062 36.23537445068359 11.68382263183594 36.13885498046875 L 15.0826416015625 38.23192596435547 C 9.467758178710938 48.830078125 9.7589111328125 60.6400146484375 15.9451904296875 73.34378814697266 C 12.93099975585938 63.12281799316406 12.59426879882812 53.11904907226562 14.95558166503906 43.43635559082031 C 16.40452575683594 37.49475860595703 18.88650512695312 31.67928314208984 22.33255004882812 26.15145111083984 C 25.07681274414062 21.74932861328125 28.43540954589844 17.51896667480469 32.31503295898438 13.577880859375 C 38.92021942138672 6.868026733398438 44.70662689208984 3.342544555664062 44.94972229003906 3.19573974609375 L 47.18257904052734 6.508544921875 C 39.92436218261719 11.94520568847656 35.85916900634766 18.68112182617188 35.09996032714844 26.52918243408203 C 34.16316986083984 36.21282958984375 38.40946197509766 46.02613830566406 42.13660430908203 52.55330657958984 C 46.24581909179688 59.74956512451172 50.65455627441406 64.65697479248047 50.69860076904297 64.70571136474609 L 51.64748382568359 65.75530242919922 L 50.97422027587891 67.00016021728516 C 42.87374114990234 81.95575714111328 40.85295867919922 95.85711669921875 44.96800231933594 108.3180389404297 C 48.3917236328125 118.685546875 55.53383636474609 126.1833038330078 60.92243194580078 130.6475219726562 C 64.17916870117188 133.3455810546875 67.21018218994141 135.2959747314453 69.28278350830078 136.5068511962891 C 69.36294555664062 133.3438415527344 69.51213073730469 127.5114898681641 69.77276611328125 117.4799957275391 L 62.30143737792969 125.322998046875 L 59.07188415527344 123.0343780517578 L 65.55747985839844 110.3260650634766 L 48.25443267822266 107.8100204467773 L 48.25443267822266 103.8516387939453 L 65.88782501220703 101.2875823974609 L 60.25355529785156 85.80973815917969 L 63.78353118896484 83.99625396728516 L 70.36203765869141 93.61112976074219 C 71.16596221923828 63.00048828125 72.71926879882812 3.587890625 72.73600769042969 2.947738647460938 L 76.73171997070312 2.880203247070312 Z" stroke="none" fill="#004dbb"/>
      </g>
    </g>
  </g>
</svg>
