<svg xmlns="http://www.w3.org/2000/svg" xmlns:xlink="http://www.w3.org/1999/xlink" width="240" height="240" viewBox="0 0 240 240">
  <defs>
    <filter id="Sustracción_6" x="-16.431" y="-14.34" width="272.863" height="268.482" filterUnits="userSpaceOnUse">
      <feOffset input="SourceAlpha"/>
      <feGaussianBlur stdDeviation="20" result="blur"/>
      <feFlood flood-color="#515151"/>
      <feComposite operator="in" in2="blur"/>
      <feComposite in="SourceGraphic"/>
    </filter>
    <filter id="Unión_1" x="6.624" y="5.504" width="224.684" height="224.684" filterUnits="userSpaceOnUse">
      <feOffset input="SourceAlpha"/>
      <feGaussianBlur stdDeviation="20" result="blur-2"/>
      <feFlood flood-color="#535353"/>
      <feComposite operator="in" in2="blur-2"/>
      <feComposite in="SourceGraphic"/>
    </filter>
    <clipPath id="clip-neutral-hover">
      <rect width="240" height="240"/>
    </clipPath>
  </defs>
  <g id="neutral-hover" clip-path="url(#clip-neutral-hover)">
    <g id="Grupo_70" data-name="Grupo 70" transform="translate(5221.233 -6420.34)">
      <g transform="matrix(1, 0, 0, 1, -5221.23, 6420.34)" filter="url(#Sustracción_6)">
        <g id="Sustracción_6-2" data-name="Sustracción 6" transform="translate(45.73 47.66)" fill="#fff" stroke-linecap="round">
          <path d="M 74.70069122314453 145.5815277099609 L 74.52278137207031 145.2117614746094 L 74.25533294677734 144.7048492431641 L 73.83351135253906 145.5815277099609 L 14.27603244781494 116.9255294799805 L 13.84199237823486 116.7166900634766 L 13.73473262786865 116.2471313476562 L -0.9748672842979431 51.8584098815918 L -1.082207322120667 51.38852691650391 L -0.7815472483634949 51.01184844970703 L 40.43395233154297 -0.6238318681716919 L 40.73421096801758 -0.9999918937683105 L 41.21551132202148 -0.9999918937683105 L 107.3186950683594 -0.9999918937683105 L 107.7999954223633 -0.9999918937683105 L 108.1002502441406 -0.6238318681716919 L 149.3157958984375 51.01184844970703 L 149.616455078125 51.38852691650391 L 149.5091094970703 51.8584098815918 L 134.7994689941406 116.2471313476562 L 134.6922149658203 116.7166900634766 L 134.2581787109375 116.9255294799805 L 74.70069122314453 145.5815277099609 Z M 22.84681510925293 110.6175384521484 L 73.37791442871094 134.9726409912109 L 123.9090118408203 110.6175384521484 L 136.3894805908203 55.89204025268555 L 101.4206848144531 12.00610828399658 L 45.33514404296875 12.00610828399658 L 10.36637020111084 55.89204025268555 L 22.84681510925293 110.6175384521484 Z" stroke="none"/>
          <path d="M 74.26691436767578 144.6805114746094 L 74.26711273193359 144.6804046630859 L 133.8246002197266 116.0244064331055 L 148.5342254638672 51.63568878173828 L 107.3186950683594 8.107909707177896e-06 L 41.21551132202148 8.107909707177896e-06 L 1.273193356610136e-05 51.63568878173828 L 14.70961284637451 116.0244064331055 L 74.26708984375 144.6804046630859 L 74.26691436767578 144.6805114746094 M 44.85333251953125 11.00608825683594 L 44.85331344604492 11.00610828399658 L 101.9025115966797 11.00610828399658 L 137.471435546875 55.64520645141602 L 124.7769165039062 111.3093109130859 L 73.37791442871094 136.0827331542969 L 21.97891235351562 111.3093109130859 L 9.284412384033203 55.64520645141602 L 44.85331344604492 11.00610828399658 M 75.13425445556641 146.4826507568359 L 74.77802276611328 145.7422790527344 L 74.24360656738281 144.7292175292969 L 73.39995574951172 146.4826507568359 L 12.97439289093018 117.4089660644531 L -2.164427280426025 51.14138793945312 L 40.25291442871094 -1.999991893768311 L 108.2812957763672 -1.999991893768311 L 150.6986694335938 51.14138793945312 L 135.559814453125 117.4089660644531 L 75.13425445556641 146.4826507568359 Z M 23.71474266052246 109.9257507324219 L 73.37791442871094 133.8625335693359 L 123.0410842895508 109.9257507324219 L 135.3074951171875 56.13883590698242 L 100.9388809204102 13.00610828399658 L 45.81695175170898 13.00610828399658 L 11.44834327697754 56.13883590698242 L 23.71474266052246 109.9257507324219 Z" stroke="none" fill="#373737"/>
        </g>
      </g>
      <g transform="matrix(1, 0, 0, 1, -5221.23, 6420.34)" filter="url(#Unión_1)">
        <g id="Unión_1-2" data-name="Unión 1" transform="translate(68.62 67.5)" fill="#fff" stroke-linecap="round">
          <path d="M 50.34177780151367 101.6838150024414 C 46.85872650146484 101.6838150024414 43.37776565551758 101.3329010009766 39.99560546875 100.6408157348633 C 36.69847106933594 99.96596527099609 33.45555114746094 98.95929718017578 30.35688400268555 97.64876556396484 C 27.31463050842285 96.36196136474609 24.38031196594238 94.769287109375 21.6353645324707 92.91496276855469 C 18.91603088378906 91.07753753662109 16.3598575592041 88.96836090087891 14.03776454925537 86.64598083496094 C 11.71523094177246 84.32372283935547 9.606058120727539 81.76744842529297 7.768884658813477 79.04823303222656 C 5.914524555206299 76.30349731445312 4.321831226348877 73.36914825439453 3.03505802154541 70.32668304443359 C 1.7245112657547 67.22795104980469 0.7178446650505066 63.98504638671875 0.04300465062260628 60.68801879882812 C -0.6490753293037415 57.30607223510742 -0.9999953508377075 53.82509613037109 -0.9999953508377075 50.34177780151367 C -0.9999953508377075 46.85872650146484 -0.6490753293037415 43.37776565551758 0.04300465062260628 39.99560546875 C 0.7178446650505066 36.69853973388672 1.7245112657547 33.45561981201172 3.03505802154541 30.35688400268555 C 4.321844577789307 27.31468391418457 5.914511203765869 24.3803653717041 7.768857955932617 21.63537788391113 C 9.606258392333984 18.91607093811035 11.71543121337891 16.35989761352539 14.03784465789795 14.03776454925537 C 16.35989761352539 11.71543121337891 18.91607093811035 9.606258392333984 21.63528442382812 7.768911361694336 C 24.3803653717041 5.914511203765869 27.31468391418457 4.321844577789307 30.35684394836426 3.03507137298584 C 33.45561981201172 1.7245112657547 36.69853973388672 0.7178446650505066 39.99555206298828 0.04300465062260628 C 43.37776565551758 -0.6490753293037415 46.85872650146484 -0.9999953508377075 50.34177780151367 -0.9999953508377075 C 53.82509613037109 -0.9999953508377075 57.30607223510742 -0.6490753293037415 60.68799209594727 0.04300465062260628 C 63.98504638671875 0.7178446650505066 67.22795104980469 1.7245112657547 70.32666778564453 3.03505802154541 C 73.36914825439453 4.321831226348877 76.30349731445312 5.914524555206299 79.0482177734375 7.768884658813477 C 81.76744842529297 9.606058120727539 84.32372283935547 11.71523094177246 86.64605712890625 14.03784465789795 C 88.96836090087891 16.3598575592041 91.07753753662109 18.91603088378906 92.91490936279297 21.63528442382812 C 94.769287109375 24.38031196594238 96.36196136474609 27.31463050842285 97.64875030517578 30.35684394836426 C 98.95929718017578 33.45555114746094 99.96596527099609 36.69847106933594 100.6408157348633 39.99555206298828 C 101.3329010009766 43.37776565551758 101.6838150024414 46.85872650146484 101.6838150024414 50.34177780151367 C 101.6838150024414 53.82483291625977 101.3329010009766 57.30578994750977 100.6408157348633 60.68796539306641 C 99.96596527099609 63.98511123657227 98.95929718017578 67.22801971435547 97.64876556396484 70.32668304443359 C 96.36196136474609 73.36920166015625 94.76927185058594 76.30355072021484 92.91493988037109 79.04823303222656 C 91.07773590087891 81.76748657226562 88.96855163574219 84.32376098632812 86.64598083496094 86.64605712890625 C 84.32376098632812 88.96855163574219 81.76748657226562 91.07773590087891 79.04823303222656 92.91493988037109 C 76.30355072021484 94.76927185058594 73.36920166015625 96.36196136474609 70.32668304443359 97.64876556396484 C 67.22801971435547 98.95929718017578 63.98511123657227 99.96596527099609 60.68801879882812 100.6408157348633 C 57.30578994750977 101.3329010009766 53.82483291625977 101.6838150024414 50.34177780151367 101.6838150024414 Z M 73.16902923583984 75.56350708007812 C 62.13505554199219 76.41570281982422 53.385986328125 84.86018371582031 52.21640014648438 95.78680419921875 C 63.30962753295898 95.16615295410156 72.22924041748047 86.55671691894531 73.16902923583984 75.56350708007812 Z M 28.70779418945312 75.61717987060547 C 29.6568489074707 86.29295349121094 38.30446243286133 94.8470458984375 49.0566291809082 95.74459075927734 C 47.89221954345703 85.11630249023438 39.40804290771484 76.72447204589844 28.70779418945312 75.61717987060547 Z M 96.96852874755859 51.86899185180664 C 85.93647766113281 52.80928421020508 77.07406616210938 61.81391143798828 76.21094512939453 72.90199279785156 C 87.32115173339844 72.13976287841797 96.28208160400391 63.0333251953125 96.96852874755859 51.86899185180664 Z M 52.17400741577148 51.84969329833984 C 53.15668487548828 62.84152221679688 62.08525466918945 71.64273071289062 73.149658203125 72.52853393554688 C 72.11095428466797 61.47031784057617 63.18295669555664 52.66876602172852 52.17400741577148 51.84969329833984 Z M 49.10093688964844 51.90375518798828 C 38.43598937988281 53.00083160400391 29.77902030944824 61.74159622192383 28.72887802124023 72.47389221191406 C 39.63050842285156 71.33295440673828 48.12786483764648 62.75286865234375 49.10093688964844 51.90375518798828 Z M 6.127902507781982 51.96576690673828 C 7.013406753540039 62.70242691040039 15.25376415252686 71.15303039550781 25.89854621887207 72.24102783203125 C 24.78588485717773 61.72299575805664 16.54987335205078 53.27773284912109 6.127902507781982 51.96576690673828 Z M 73.18020629882812 27.80032539367676 C 61.91057205200195 28.67534637451172 52.94783020019531 37.63824081420898 52.14350509643555 48.83656311035156 C 63.33860015869141 48.0244026184082 72.30127716064453 39.06118774414062 73.18020629882812 27.80032539367676 Z M 76.23497772216797 28.08039855957031 C 77.22278594970703 39.175048828125 85.89412689208984 47.87631607055664 96.94815826416016 48.81338119506836 C 96.1219482421875 37.79472732543945 87.23417663574219 28.8460521697998 76.23497772216797 28.08039855957031 Z M 28.69529151916504 27.85614013671875 C 28.85002136230469 29.80353355407715 29.24688720703125 31.70321655273438 29.87895202636719 33.51728439331055 C 32.83978652954102 42.01679611206055 40.32271957397461 47.90971755981445 49.12936782836914 48.7844352722168 C 48.30383682250977 37.90688705444336 39.61186218261719 29.00491142272949 28.69529151916504 27.85614013671875 Z M 25.95433616638184 27.84219551086426 C 14.99565601348877 28.92312240600586 6.701431274414062 37.64027404785156 6.085716247558594 48.72383880615234 C 16.80850791931152 47.40472412109375 25.09827041625977 38.69283676147461 25.95433616638184 27.84219551086426 Z M 52.19300079345703 4.598153114318848 C 53.26433563232422 15.4924898147583 62.202880859375 24.20636749267578 73.18901062011719 25.06625175476074 C 72.36630249023438 13.92777538299561 63.42289733886719 5.208628177642822 52.19300079345703 4.598153114318848 Z M 49.08325576782227 4.639517784118652 C 38.19781494140625 5.531054496765137 29.52279853820801 14.19654273986816 28.68719100952148 25.01455116271973 C 39.51829528808594 23.91070175170898 48.02774047851562 15.40993690490723 49.08325576782227 4.639517784118652 Z" stroke="none"/>
          <path d="M 50.34178161621094 100.6838226318359 C 53.75736999511719 100.6838226318359 57.17081069946289 100.3398132324219 60.48749542236328 99.66112518310547 C 63.71971130371094 98.99955749511719 66.89899444580078 98.01268005371094 69.93715667724609 96.72775268554688 C 72.92024230957031 95.46607971191406 75.79722595214844 93.90452575683594 78.48841094970703 92.08632659912109 C 81.15421295166016 90.28524017333984 83.66095733642578 88.21714019775391 85.93891143798828 85.93891143798828 C 88.21714019775391 83.66095733642578 90.28524017333984 81.15421295166016 92.08632659912109 78.48841094970703 C 93.90452575683594 75.79722595214844 95.46607971191406 72.92024230957031 96.72775268554688 69.93715667724609 C 98.01268005371094 66.89899444580078 98.99955749511719 63.71971130371094 99.66112518310547 60.48749542236328 C 100.3398132324219 57.17081069946289 100.6838226318359 53.75736999511719 100.6838226318359 50.34178161621094 C 100.6838226318359 46.92619705200195 100.3398132324219 43.51275253295898 99.66112518310547 40.19606781005859 C 98.99955749511719 36.9638557434082 98.01268005371094 33.78456878662109 96.72775268554688 30.74641036987305 C 95.46607971191406 27.76358222961426 93.90452575683594 24.88661193847656 92.08632659912109 22.19515419006348 C 90.28524017333984 19.52961158752441 88.21714019775391 17.02285385131836 85.93891143798828 14.74491119384766 C 83.66095733642578 12.46669673919678 81.15421295166016 10.39858245849609 78.48841094970703 8.59749698638916 C 75.79722595214844 6.779311180114746 72.92024230957031 5.217740058898926 69.93715667724609 3.956068515777588 C 66.89899444580078 2.671154260635376 63.71971130371094 1.684268474578857 60.48749542236328 1.022696971893311 C 57.17108154296875 0.3440256118774414 53.75736999511719 -2.969796241814038e-06 50.34178161621094 -2.969796241814038e-06 C 46.92619705200195 -2.969796241814038e-06 43.51275253295898 0.3440256118774414 40.19606781005859 1.022696971893311 C 36.9638557434082 1.684268474578857 33.78456878662109 2.671154260635376 30.74641036987305 3.956068515777588 C 27.76358222961426 5.217740058898926 24.88661193847656 6.779311180114746 22.19515419006348 8.59749698638916 C 19.52961158752441 10.39858245849609 17.02285385131836 12.46669673919678 14.74491119384766 14.74491119384766 C 12.46669673919678 17.02285385131836 10.39858245849609 19.52961158752441 8.59749698638916 22.19515419006348 C 6.779311180114746 24.88661193847656 5.217740058898926 27.76358222961426 3.956068515777588 30.74641036987305 C 2.671154260635376 33.78456878662109 1.684268474578857 36.9638557434082 1.022696971893311 40.19606781005859 C 0.3440256118774414 43.51275253295898 -2.969796241814038e-06 46.92619705200195 -2.969796241814038e-06 50.34178161621094 C -2.969796241814038e-06 53.75736999511719 0.3440256118774414 57.17108154296875 1.022696971893311 60.48749542236328 C 1.684268474578857 63.71971130371094 2.671154260635376 66.89899444580078 3.956068515777588 69.93715667724609 C 5.217740058898926 72.92024230957031 6.779311180114746 75.79722595214844 8.59749698638916 78.48841094970703 C 10.39858245849609 81.15421295166016 12.46669673919678 83.66095733642578 14.74491119384766 85.93891143798828 C 17.02285385131836 88.21714019775391 19.52961158752441 90.28524017333984 22.19515419006348 92.08632659912109 C 24.88661193847656 93.90452575683594 27.76358222961426 95.46607971191406 30.74641036987305 96.72775268554688 C 33.78456878662109 98.01268005371094 36.9638557434082 98.99955749511719 40.19606781005859 99.66112518310547 C 43.51275253295898 100.3398132324219 46.92619705200195 100.6838226318359 50.34178161621094 100.6838226318359 M 74.23511505126953 74.50468444824219 C 73.78594207763672 86.79892730712891 63.55238342285156 96.72135162353516 51.12698364257812 96.82185363769531 C 51.8570556640625 84.59174346923828 61.88224029541016 74.88777160644531 74.23511505126953 74.50468444824219 M 27.6374683380127 74.52975463867188 C 39.74648284912109 75.19287109375 49.42466735839844 84.70211029052734 50.15008163452148 96.80963897705078 C 37.94829559326172 96.40629577636719 28.09145355224609 86.64170837402344 27.6374683380127 74.52975463867188 M 75.16402435302734 27.0318546295166 C 87.80508422851562 27.28323936462402 98.01081085205078 37.70985412597656 98.01081085205078 50.49039840698242 C 98.01081085205078 63.27409744262695 87.79850769042969 73.70274353027344 75.15313720703125 73.94916534423828 C 75.53129577636719 61.52682495117188 85.30345153808594 51.43236923217773 97.71196746826172 50.81676864624023 C 97.71329498291016 50.70745468139648 97.714111328125 50.59785461425781 97.714111328125 50.49039840698242 C 97.714111328125 50.28750991821289 97.71144104003906 50.07768249511719 97.70635223388672 49.86651229858398 C 85.43169403076172 49.25389862060547 75.68952178955078 39.30075454711914 75.16402435302734 27.0318546295166 M 51.10371017456055 50.79523849487305 C 63.55598449707031 51.11505508422852 73.65840911865234 61.12313842773438 74.22572326660156 73.58981323242188 C 61.75775527954102 73.19561004638672 51.60439682006836 63.12150955200195 51.10371017456055 50.79523849487305 M 50.17351150512695 50.81842422485352 C 49.67482376098633 63.01768112182617 39.87422561645508 72.87688446044922 27.64775466918945 73.56368255615234 C 28.22091102600098 61.34778213500977 38.08325576782227 51.44095230102539 50.17351150512695 50.81842422485352 M 5.062454223632812 50.8543701171875 C 16.94441223144531 51.74101257324219 26.31992530822754 61.32576751708984 26.98919677734375 73.32749938964844 C 14.90158271789551 72.70229339599609 5.464568614959717 63.01374053955078 5.062454223632812 50.8543701171875 M 74.23908233642578 26.74179649353027 C 73.846923828125 39.36205291748047 63.63824081420898 49.57162475585938 51.09201049804688 49.88882446289062 C 51.40215301513672 37.24879837036133 61.45866775512695 27.13516807556152 74.23908233642578 26.74179649353027 M 27.63371086120605 26.76782608032227 C 39.97314071655273 27.45582580566406 49.86252593994141 37.52684020996094 50.18549728393555 49.86613845825195 C 40.59249877929688 49.37894058227539 32.14587020874023 43.06464004516602 28.93463897705078 33.84630966186523 C 28.14804077148438 31.58878326416016 27.71082496643066 29.20903968811035 27.63371086120605 26.76782608032227 M 27.01514053344727 26.76068305969238 C 26.62922477722168 39.04441070556641 17.13401222229004 48.93451309204102 5.050011157989502 49.83039855957031 C 5.158740043640137 37.38445281982422 14.71895408630371 27.38246917724609 27.01514053344727 26.76068305969238 M 51.11417007446289 3.56462550163269 C 63.68419647216797 3.658896923065186 73.91958618164062 13.68888282775879 74.24273681640625 26.12474060058594 C 61.77405548095703 25.7434253692627 51.72525405883789 15.88389682769775 51.11417007446289 3.56462550163269 M 50.16399765014648 3.576482772827148 C 49.55916976928711 15.80126857757568 39.86622619628906 25.43642616271973 27.62965393066406 26.09978294372559 C 27.95965385437012 13.87068271636963 37.87399673461914 3.975482702255249 50.16399765014648 3.576482772827148 M 50.34178161621094 102.6838226318359 C 46.79152679443359 102.6838226318359 43.24311065673828 102.3260803222656 39.79512405395508 101.6205291748047 C 36.4333381652832 100.9324264526367 33.12682723999023 99.90602874755859 29.96735382080078 98.56978607177734 C 26.86559677124023 97.2578125 23.87399673461914 95.63405609130859 21.07558250427246 93.74359893798828 C 18.30342483520508 91.87046813964844 15.69768238067627 89.72041320800781 13.33061122894287 87.35304260253906 C 10.96313953399658 84.98583984375 8.813068389892578 82.37999725341797 6.940282821655273 79.60807037353516 C 5.049768447875977 76.80983734130859 3.425997018814087 73.81819915771484 2.114039897918701 70.71622467041016 C 0.7777827382087708 67.55667114257812 -0.2486172616481781 64.25016784667969 -0.9366744160652161 60.8885383605957 C -1.642260074615479 57.44067001342773 -2.000002861022949 53.89225387573242 -2.000002861022949 50.34178161621094 C -2.000002861022949 46.79159545898438 -1.642260074615479 43.24319839477539 -0.9367029666900635 39.79512405395508 C -0.2486172616481781 36.43339538574219 0.7777827382087708 33.12689590454102 2.114039897918701 29.96736907958984 C 3.425982713699341 26.86565399169922 5.049739837646484 23.87405395507812 6.940211296081543 21.07559776306152 C 8.813325881958008 18.30346870422363 10.96338272094727 15.69773960113525 13.33078289031982 13.33061122894287 C 15.69773960113525 10.96338272094727 18.30346870422363 8.813325881958008 21.07542610168457 6.940325736999512 C 23.87405395507812 5.049739837646484 26.86565399169922 3.425982713699341 29.96728324890137 2.114068508148193 C 33.12689590454102 0.7777827382087708 36.43339538574219 -0.2486172616481781 39.79502487182617 -0.9366744160652161 C 43.24319839477539 -1.642260074615479 46.79159545898438 -2.000002861022949 50.34178161621094 -2.000002861022949 C 53.89225387573242 -2.000002861022949 57.44067001342773 -1.642260074615479 60.88846969604492 -0.9367029666900635 C 64.25016784667969 -0.2486172616481781 67.55667114257812 0.7777827382087708 70.71619415283203 2.114039897918701 C 73.81819915771484 3.425997018814087 76.80983734130859 5.049768447875977 79.60805511474609 6.940268516540527 C 82.37999725341797 8.813068389892578 84.98583984375 10.96313953399658 87.35321044921875 13.33078289031982 C 89.72041320800781 15.69768238067627 91.87046813964844 18.30342483520508 93.74349975585938 21.07542610168457 C 95.63405609130859 23.87399673461914 97.2578125 26.86559677124023 98.56975555419922 29.96728324890137 C 99.90602874755859 33.12682723999023 100.9324264526367 36.4333381652832 101.6204986572266 39.79502487182617 C 102.3260803222656 43.24311065673828 102.6838226318359 46.79152679443359 102.6838226318359 50.34178161621094 C 102.6838226318359 53.89204025268555 102.3260803222656 57.44045257568359 101.6205291748047 60.8884391784668 C 100.9324264526367 64.25022888183594 99.90602874755859 67.55673980712891 98.56978607177734 70.71620941162109 C 97.25779724121094 73.81825256347656 95.63402557373047 76.80989837646484 93.74355316162109 79.60805511474609 C 91.8707275390625 82.38004302978516 89.72064208984375 84.98588562011719 87.35304260253906 87.35321044921875 C 84.98588562011719 89.72064208984375 82.38004302978516 91.8707275390625 79.60807037353516 93.74353790283203 C 76.80989837646484 95.63402557373047 73.81825256347656 97.25779724121094 70.71622467041016 98.56978607177734 C 67.55673980712891 99.90602874755859 64.25022888183594 100.9324264526367 60.8885383605957 101.6204986572266 C 57.44045257568359 102.3260803222656 53.89204025268555 102.6838226318359 50.34178161621094 102.6838226318359 Z M 72.02812957763672 76.68800354003906 C 62.46208572387695 77.95252990722656 54.92153549194336 85.22636413574219 53.37480545043945 94.68025207519531 C 62.84781646728516 93.56711578369141 70.63472747802734 86.05509948730469 72.02812957763672 76.68800354003906 Z M 29.85288047790527 76.77703857421875 C 31.23252296447754 85.97183227539062 38.62256240844727 93.27756500244141 47.88915252685547 94.60633087158203 C 46.34426879882812 85.45261383056641 39.07473754882812 78.26601409912109 29.85288047790527 76.77703857421875 Z M 95.86346435546875 53.00048828125 C 86.26667785644531 54.36434555053711 78.62229156494141 62.13284301757812 77.3336181640625 71.78840637207031 C 86.99725341796875 70.56747436523438 94.71615600585938 62.72153854370117 95.86346435546875 53.00048828125 Z M 53.31306838989258 52.97189712524414 C 54.71491241455078 62.50860214233398 62.39799118041992 70.08283233642578 72.00429534912109 71.39890289306641 C 70.55455780029297 61.80720520019531 62.87129211425781 54.23202133178711 53.31306838989258 52.97189712524414 Z M 47.95664978027344 53.06426239013672 C 38.75135040283203 54.56903076171875 31.348388671875 62.04381942749023 29.88508605957031 71.31112670898438 C 39.28422164916992 69.78433990478516 46.5734748840332 62.42494201660156 47.95664978027344 53.06426239013672 Z M 7.26685905456543 53.15543746948242 C 8.571454048156738 62.37611389160156 15.60464763641357 69.59276580810547 24.7324161529541 71.07833862304688 C 23.23841285705566 62.03738784790039 16.21160888671875 54.82767486572266 7.26685905456543 53.15543746948242 Z M 72.05650329589844 28.92363929748535 C 62.24486541748047 30.22650527954102 54.50175857543945 37.96912384033203 53.25917053222656 47.7201042175293 C 63.0078125 46.47110366821289 70.75035095214844 38.72811508178711 72.05650329589844 28.92363929748535 Z M 77.37123107910156 29.19705963134766 C 78.75537872314453 38.82538604736328 86.23618316650391 46.33460235595703 95.82595825195312 47.68118667602539 C 94.55840301513672 38.11240005493164 86.91694641113281 30.42043876647949 77.37123107910156 29.19705963134766 Z M 29.8257007598877 29.0164909362793 C 30.02058029174805 30.44565391540527 30.35412979125977 31.84179306030273 30.82328224182129 33.18824005126953 C 33.51655960083008 40.91971588134766 40.12018966674805 46.39592361450195 48.00328063964844 47.63253021240234 C 46.73554611206055 38.20427322387695 39.27328491210938 30.56220626831055 29.8257007598877 29.0164909362793 Z M 24.82597732543945 28.99354553222656 C 15.37903594970703 30.46835517883301 8.252178192138672 37.96351623535156 7.186983585357666 47.54542922973633 C 16.43829154968262 45.87018966674805 23.55828285217285 38.3819694519043 24.82597732543945 28.99354553222656 Z M 53.33987808227539 5.695241928100586 C 54.81369400024414 15.15468120574951 62.51584625244141 22.66025924682617 72.06928253173828 23.94218826293945 C 70.80630493164062 14.27969264984131 63.09609985351562 6.76633358001709 53.33987808227539 5.695241928100586 Z M 47.93192672729492 5.77302885055542 C 38.528076171875 7.092606544494629 31.09461784362793 14.51479721069336 29.81600761413574 23.85957717895508 C 39.17170333862305 22.37615394592285 46.48274612426758 15.07510375976562 47.93192672729492 5.77302885055542 Z" stroke="none" fill="#373737"/>
        </g>
      </g>
    </g>
  </g>
</svg>
