<svg xmlns="http://www.w3.org/2000/svg" xmlns:xlink="http://www.w3.org/1999/xlink" width="240" height="240" viewBox="0 0 240 240">
  <defs>
    <filter id="Sustracción_6" x="36.733" y="38.66" width="166.534" height="162.681" filterUnits="userSpaceOnUse">
      <feOffset input="SourceAlpha"/>
      <feGaussianBlur stdDeviation="3" result="blur"/>
      <feFlood flood-color="#515151"/>
      <feComposite operator="in" in2="blur"/>
      <feComposite in="SourceGraphic"/>
    </filter>
    <filter id="Unión_1" x="59.624" y="58.504" width="118.684" height="118.684" filterUnits="userSpaceOnUse">
      <feOffset input="SourceAlpha"/>
      <feGaussianBlur stdDeviation="3" result="blur-2"/>
      <feFlood flood-color="#535353"/>
      <feComposite operator="in" in2="blur-2"/>
      <feComposite in="SourceGraphic"/>
    </filter>
    <clipPath id="clip-neutral">
      <rect width="240" height="240"/>
    </clipPath>
  </defs>
  <g id="neutral" clip-path="url(#clip-neutral)">
    <g id="Grupo_70" data-name="Grupo 70" transform="translate(5221.233 -6420.34)">
      <g transform="matrix(1, 0, 0, 1, -5221.23, 6420.34)" filter="url(#Sustracción_6)">
        <path id="Sustracción_6-2" data-name="Sustracción 6" d="M74.267,144.68h0L14.71,116.024,0,51.636,41.216,0h66.1l41.216,51.636-14.71,64.389L74.267,144.68ZM44.853,11.006,9.284,55.645l12.695,55.664,51.4,24.773,51.4-24.773,12.695-55.664L101.9,11.006H44.853Z" transform="translate(45.73 47.66)" fill="#fff" opacity="0.6"/>
      </g>
      <g transform="matrix(1, 0, 0, 1, -5221.23, 6420.34)" filter="url(#Unión_1)">
        <path id="Unión_1-2" data-name="Unión 1" d="M40.2,99.661a50.068,50.068,0,0,1-18-7.575A50.49,50.49,0,0,1,3.956,69.937a50.108,50.108,0,0,1-2.933-9.45,50.837,50.837,0,0,1,0-20.291A50.068,50.068,0,0,1,8.6,22.2,50.488,50.488,0,0,1,30.746,3.956,50.108,50.108,0,0,1,40.2,1.023a50.837,50.837,0,0,1,20.291,0,50.068,50.068,0,0,1,18,7.575A50.487,50.487,0,0,1,96.728,30.746a50.107,50.107,0,0,1,2.933,9.45,50.837,50.837,0,0,1,0,20.291,50.068,50.068,0,0,1-7.575,18A50.489,50.489,0,0,1,69.937,96.728a50.107,50.107,0,0,1-9.45,2.933,50.837,50.837,0,0,1-20.291,0Zm10.931-2.839A23.333,23.333,0,0,0,74.235,74.5,23.84,23.84,0,0,0,51.127,96.822Zm-.977-.012A23.743,23.743,0,0,0,27.637,74.53,23.272,23.272,0,0,0,50.15,96.81ZM97.706,49.867c.005.211.008.421.008.624,0,.107,0,.217,0,.326A23.806,23.806,0,0,0,75.153,73.949a23.467,23.467,0,0,0,.011-46.917A23.84,23.84,0,0,0,97.706,49.867ZM74.226,73.59A23.865,23.865,0,0,0,51.1,50.8,23.963,23.963,0,0,0,74.226,73.59Zm-46.578-.026A23.867,23.867,0,0,0,50.174,50.818,23.967,23.967,0,0,0,27.648,73.564Zm-.659-.236A23.774,23.774,0,0,0,5.062,50.854,23.093,23.093,0,0,0,26.989,73.327Zm24.1-23.439A23.9,23.9,0,0,0,74.239,26.742,23.714,23.714,0,0,0,51.092,49.889ZM28.935,33.846a23.859,23.859,0,0,0,21.251,16.02,23.892,23.892,0,0,0-22.552-23.1A23.756,23.756,0,0,0,28.935,33.846ZM5.05,49.83a23.779,23.779,0,0,0,21.965-23.07A23.1,23.1,0,0,0,5.05,49.83ZM74.243,26.125A23.274,23.274,0,0,0,51.114,3.565,23.835,23.835,0,0,0,74.243,26.125ZM27.63,26.1A23.707,23.707,0,0,0,50.164,3.576,23.268,23.268,0,0,0,27.63,26.1Z" transform="translate(68.62 67.5)" fill="#fff"/>
      </g>
    </g>
  </g>
</svg>
