<svg xmlns="http://www.w3.org/2000/svg" xmlns:xlink="http://www.w3.org/1999/xlink" width="240" height="240" viewBox="0 0 240 240">
  <defs>
    <filter id="Sith_Empire" x="49" y="40" width="141.363" height="160.419" filterUnits="userSpaceOnUse">
      <feOffset input="SourceAlpha"/>
      <feGaussianBlur stdDeviation="3" result="blur"/>
      <feFlood flood-color="#f50303"/>
      <feComposite operator="in" in2="blur"/>
      <feComposite in="SourceGraphic"/>
    </filter>
    <clipPath id="clip-sith">
      <rect width="240" height="240"/>
    </clipPath>
  </defs>
  <g id="sith" clip-path="url(#clip-sith)">
    <g transform="matrix(1, 0, 0, 1, 0, 0)" filter="url(#Sith_Empire)">
      <path id="Sith_Empire-2" data-name="Sith Empire" d="M198.532,174.072c-1.128-2.117-1.151-2.094.921-3.291,2.232-1.289,4.465-2.6,6.836-3.959-3.544-2.6-6.951-5.086-10.357-7.6-3.521-2.578-7.066-5.155-10.587-7.779a1.3,1.3,0,0,0-1.7-.115c-3.383,2-6.813,3.982-10.242,5.915a1.219,1.219,0,0,0-.713,1.427c.875,7.342,1.68,14.707,2.509,22.072.115.944.207,1.887.3,2.854.069.69.276.9.967.483,2.348-1.4,4.741-2.693,7.066-4.12.783-.483,1.128-.414,1.588.391,1.128,1.91,1.174,1.887-.76,3.084-4.81,3.015-9.62,6.007-14.408,9.045a1.868,1.868,0,0,1-2.325.069c-5.155-3.268-10.357-6.467-15.581-9.643-.852-.506-1.013-.875-.414-1.749,1.174-1.726,1.128-1.749,2.946-.713,2.325,1.335,4.649,2.647,7.135,4.074.253-2.117.483-4.1.713-6.053.69-6.283,1.335-12.566,2.071-18.85.161-1.4-.046-2.256-1.427-2.992-3.176-1.657-6.26-3.521-9.367-5.34a1.152,1.152,0,0,0-1.5.023c-6.859,5.063-13.763,10.1-20.645,15.167a4.161,4.161,0,0,0-.391.368q2.589,1.554,5.109,3.038c.552.322,1.128.667,1.68.99,2.048,1.22,2.025,1.22.829,3.291-.345.6-.621.783-1.289.414q-8.32-4.523-16.686-9a1.133,1.133,0,0,1-.736-1.2c.207-6.329.368-12.659.529-18.988.023-.806.3-1.128,1.082-.99h.138c2.232.046,2.232.046,2.232,2.256,0,2.394.023,4.764,0,7.158,0,.736.184.9.875.6q11.5-5.109,23.038-10.15a1.068,1.068,0,0,0,.713-1.174c-.023-4.028-.023-8.055,0-12.106a1.079,1.079,0,0,0-.76-1.151Q136.46,124.8,125,119.732c-.921-.414-.99-.069-.967.713.023,2.6,0,5.2.046,7.8.023.921-.115,1.358-1.22,1.4-2.624.115-2.186.23-2.256-2.117-.184-5.754-.322-11.531-.529-17.285a1.594,1.594,0,0,1,.944-1.726q8.182-4.384,16.318-8.884c.829-.46,1.151-.253,1.565.506,1.036,1.933,1.082,1.91-.783,2.992-2.279,1.312-4.557,2.647-7,4.051,2.578,1.91,5.017,3.729,7.48,5.547,4.4,3.245,8.815,6.444,13.188,9.713a1.4,1.4,0,0,0,1.818.092c3.314-1.956,6.674-3.867,10.035-5.754a1.527,1.527,0,0,0,.921-1.749c-.6-5.109-1.128-10.242-1.68-15.374-.322-2.877-.644-5.754-.944-8.654-.161-1.542-.161-1.565-1.542-.783-2.209,1.266-4.465,2.509-6.651,3.821-.76.46-1.128.414-1.588-.391-1.1-1.91-1.174-1.887.713-3.061q7.457-4.626,14.891-9.275a1.383,1.383,0,0,1,1.726-.023q7.906,5.006,15.881,9.874c.736.437.829.76.345,1.5-1.22,1.91-1.174,1.933-3.107.806-2.025-1.174-4.051-2.325-6.053-3.521-.713-.437-.967-.322-1.036.506-.345,3.406-.713,6.813-1.082,10.2-.483,4.442-.944,8.861-1.473,13.3-.253,2.14-.322,2.14,1.588,3.245q4.626,2.658,9.206,5.34c.506.3.9.506,1.5.069,6.951-5.109,13.9-10.2,20.944-15.328a8.64,8.64,0,0,0-2.256-1.473c-1.864-1.1-3.729-2.209-5.616-3.245-.69-.391-.783-.713-.414-1.4,1.082-2.071,1.059-2.071,3.107-.967,5.109,2.739,10.219,5.5,15.351,8.193a1.553,1.553,0,0,1,.99,1.7c-.276,6.1-.506,12.221-.69,18.32-.023,1.059-.322,1.519-1.4,1.289a3.947,3.947,0,0,0-1.036-.092c-.76.046-.921-.322-.921-1.013.023-2.739,0-5.455.023-8.193,0-.806-.161-.99-.944-.644-7.641,3.383-15.259,6.744-22.923,10.1a1.054,1.054,0,0,0-.713,1.174c.023,3.982.023,7.986,0,11.968a1.071,1.071,0,0,0,.76,1.151q11.427,5.006,22.785,10.058c1.013.46,1.036,0,1.036-.783-.023-2.555.046-5.109-.023-7.687-.023-1.036.207-1.45,1.335-1.427,1.933.069,1.956-.023,2.025,1.979.23,5.938.437,11.876.667,17.814a1.316,1.316,0,0,1-.806,1.4c-5.593,2.969-11.162,5.938-16.709,8.953C199.131,174.831,198.855,174.716,198.532,174.072Zm3.636-89.139-3.13,5.409L224.1,104.818v29.667h6.26V101.2ZM168.681,72.8l25.869,14.937,3.13-5.409-29-16.732-28.4,16.387,3.13,5.409ZM113.26,104.8,138.9,90l-3.13-5.409L107,101.2v33.28h6.237V104.8Zm0,34.891H107v32.751l29,16.732,3.13-5.409L113.26,168.824V139.687ZM224.1,168.824l-25.271,14.592,3.13,5.409,28.4-16.41V139.687h-6.237v29.138Zm-55.421,31.991-25.041-14.454-3.13,5.409,28.171,16.249,28.746-16.594-3.13-5.409Z" transform="translate(-49 -16.6)" fill="#fff"/>
    </g>
  </g>
</svg>
