<svg xmlns="http://www.w3.org/2000/svg" xmlns:xlink="http://www.w3.org/1999/xlink" width="240" height="240" viewBox="0 0 240 240">
  <defs>
    <filter id="Sith_Empire" x="-4" y="-13.31" width="247.363" height="267.038" filterUnits="userSpaceOnUse">
      <feOffset input="SourceAlpha"/>
      <feGaussianBlur stdDeviation="20" result="blur"/>
      <feFlood flood-color="#f50303"/>
      <feComposite operator="in" in2="blur"/>
      <feComposite in="SourceGraphic"/>
    </filter>
    <clipPath id="clip-sith-hover">
      <rect width="240" height="240"/>
    </clipPath>
  </defs>
  <g id="sith-hover" clip-path="url(#clip-sith-hover)">
    <g transform="matrix(1, 0, 0, 1, 0, 0)" filter="url(#Sith_Empire)">
      <g id="Sith_Empire-2" data-name="Sith Empire" transform="translate(-49 -16.6)" fill="#fff" stroke-linecap="round">
        <path d="M 168.6815795898438 209.174072265625 L 168.1817474365234 208.8857727050781 L 140.0108489990234 192.6368560791016 L 139.1433563232422 192.1364898681641 L 139.6449737548828 191.2697296142578 L 142.7750701904297 185.8611297607422 L 143.2754058837891 184.9966125488281 L 144.1404876708984 185.4959564208984 L 168.68115234375 199.6609649658203 L 193.7973327636719 185.1508941650391 L 194.6625671386719 184.6510467529297 L 195.1630706787109 185.5158996582031 L 198.2931823730469 190.9245300292969 L 198.7946166992188 191.7909851074219 L 197.9276123046875 192.2914733886719 L 169.1813201904297 208.8855895996094 L 168.6815795898438 209.174072265625 Z M 168.7204895019531 193.9265747070312 C 168.1849212646484 193.9265899658203 167.6511383056641 193.7539215087891 167.0886688232422 193.398681640625 C 162.6077117919922 190.5580291748047 157.6630249023438 187.4977264404297 151.5254974365234 183.7664642333984 C 151.0075531005859 183.4580078125 150.4589233398438 183.0495147705078 150.3069152832031 182.3604888916016 C 150.1528930664062 181.6624298095703 150.4904022216797 181.0507507324219 150.8016357421875 180.5958557128906 L 150.8814544677734 180.4783630371094 C 151.2101745605469 179.9943542480469 151.4476776123047 179.6446380615234 151.6964416503906 179.3776092529297 C 151.8411560058594 179.2222595214844 152.2815704345703 178.74951171875 153.0110015869141 178.74951171875 C 153.6131439208984 178.74951171875 154.1272125244141 179.0423278808594 155.0604553222656 179.5739288330078 L 155.06787109375 179.5781555175781 C 156.2229156494141 180.2414245605469 157.3523864746094 180.8844909667969 158.5482025146484 181.5653076171875 C 159.3137664794922 182.0011901855469 160.0961303710938 182.4466400146484 160.8931427001953 182.9020233154297 C 161.0090942382812 181.9218597412109 161.12109375 180.9666290283203 161.2306365966797 180.0324554443359 C 161.2966003417969 179.4698486328125 161.362060546875 178.9117279052734 161.427490234375 178.3554840087891 C 161.6574401855469 176.2630004882812 161.8861083984375 174.1348876953125 162.1072387695312 172.0768737792969 C 162.5500183105469 167.9560852050781 163.0078582763672 163.6950073242188 163.4993743896484 159.5016784667969 C 163.6334838867188 158.3330841064453 163.4736480712891 157.9779357910156 162.5993347167969 157.5107269287109 C 159.9915161132812 156.1499786376953 157.4133148193359 154.6320648193359 154.9200592041016 153.1641845703125 C 154.3447570800781 152.8254852294922 153.7693939208984 152.4867553710938 153.1932678222656 152.1496124267578 C 153.0487823486328 152.0653228759766 152.9756011962891 152.0359497070312 152.9435424804688 152.0258026123047 C 152.9194641113281 152.0362396240234 152.8698272705078 152.0614624023438 152.7901000976562 152.1185913085938 C 148.7636108398438 155.0911560058594 144.6536712646484 158.1053314208984 140.6787567138672 161.0205078125 C 138.1312713623047 162.8888397216797 135.5045318603516 164.8152618408203 132.9098205566406 166.7233581542969 C 134.2153778076172 167.5033111572266 135.5135955810547 168.2735443115234 136.7831573486328 169.0213623046875 C 137.0577239990234 169.1815185546875 137.3417816162109 169.3496246337891 137.6258392333984 169.5177307128906 C 137.9056701660156 169.683349609375 138.1855010986328 169.8489685058594 138.4596405029297 170.0088806152344 L 138.4635467529297 170.0111541748047 L 138.4674224853516 170.0134582519531 C 139.6353149414062 170.7089538574219 140.3402557373047 171.1287536621094 140.5516967773438 171.93505859375 C 140.7625579833984 172.7391815185547 140.3779296875 173.40478515625 139.6796722412109 174.6130981445312 L 139.6501770019531 174.6641082763672 C 139.4763488769531 174.9654998779297 139.0136108398438 175.7676239013672 138.0703582763672 175.7677307128906 C 137.7378845214844 175.7677612304688 137.4026336669922 175.6685333251953 137.0156555175781 175.4555053710938 C 131.4745483398438 172.4435729980469 125.8165664672852 169.4041442871094 120.3446197509766 166.4646453857422 L 120.3410873413086 166.4627532958984 C 119.7725067138672 166.1650695800781 119.0262069702148 165.6214599609375 119.0734558105469 164.3453216552734 C 119.2804870605469 158.0190887451172 119.4441604614258 151.5882415771484 119.6024551391602 145.3691253662109 C 119.6539459228516 143.5680084228516 120.8529815673828 143.3738708496094 121.3661270141602 143.3738708496094 C 121.4929046630859 143.3738708496094 121.6238632202148 143.3840637207031 121.7640991210938 143.4048767089844 L 121.8219451904297 143.4048767089844 L 121.8322525024414 143.4048767089844 L 121.8425598144531 143.4050903320312 C 123.1834182739258 143.4327545166016 123.9220352172852 143.4479827880859 124.4861068725586 144.0178985595703 C 125.0544509887695 144.5921020507812 125.0544509887695 145.37060546875 125.0544509887695 146.660400390625 C 125.0544509887695 147.45751953125 125.0570526123047 148.2657470703125 125.0595626831055 149.04736328125 C 125.0640106201172 150.4272613525391 125.0685806274414 151.8485717773438 125.0589981079102 153.2645721435547 C 132.1691589355469 150.1059112548828 139.5384979248047 146.8599548339844 147.5669555664062 143.3504943847656 L 147.5723876953125 143.3481292724609 L 147.5778350830078 143.3458251953125 C 147.6217803955078 143.3272399902344 147.6508178710938 143.3117065429688 147.6687774658203 143.3009033203125 C 147.6742095947266 143.2684478759766 147.6808624267578 143.2060852050781 147.6809692382812 143.0953369140625 C 147.6580810546875 139.0889129638672 147.6580810546875 135.0139923095703 147.6809539794922 130.9846649169922 C 147.6808624267578 130.9082183837891 147.6758880615234 130.8610076904297 147.6716156005859 130.8345184326172 C 147.6465606689453 130.8174438476562 147.5979614257812 130.7881927490234 147.5108489990234 130.7479553222656 C 140.1453399658203 127.508918762207 132.5342864990234 124.1618957519531 125.0346221923828 120.8421325683594 C 125.0411224365234 121.7539443969727 125.0427398681641 122.6726455688477 125.0443267822266 123.5649337768555 C 125.0470352172852 125.0936660766602 125.0498352050781 126.6744842529297 125.0772171020508 128.225341796875 C 125.0912628173828 128.7926483154297 125.054443359375 129.3845367431641 124.6952514648438 129.8715515136719 C 124.214599609375 130.5232543945312 123.440055847168 130.6285858154297 122.8992691040039 130.6511077880859 C 122.7595596313477 130.6572418212891 122.6266937255859 130.6634826660156 122.5022506713867 130.6692962646484 C 122.1153793334961 130.6874237060547 121.8097991943359 130.7017364501953 121.5492553710938 130.7017364501953 C 121.0256576538086 130.7017517089844 120.4848556518555 130.6454010009766 120.0766525268555 130.2365264892578 C 119.6087799072266 129.7678527832031 119.6098022460938 129.1624908447266 119.6111068725586 128.3960571289062 C 119.6115112304688 128.1560974121094 119.6119842529297 127.8841171264648 119.6025619506836 127.5639724731445 C 119.5287246704102 125.2570419311523 119.4611434936523 122.9055480957031 119.3957824707031 120.6314926147461 C 119.2982177734375 117.237678527832 119.1973419189453 113.7282943725586 119.0734176635742 110.2859497070312 L 119.0732574462891 110.2818450927734 L 119.0731430053711 110.277717590332 C 119.0480422973633 109.3731155395508 119.2036666870117 108.3523712158203 120.5478057861328 107.6403884887695 C 125.3121337890625 105.0873489379883 130.4928283691406 102.2668075561523 136.8518676757812 98.76393127441406 C 137.3017272949219 98.51402282714844 137.6844940185547 98.39682006835938 138.0533142089844 98.39682006835938 C 139.0842895507812 98.39682006835938 139.5699310302734 99.28713226318359 139.7773132324219 99.66731262207031 L 139.7791137695312 99.67063903808594 L 139.7808837890625 99.67396545410156 L 139.8514556884766 99.80554962158203 C 140.4249114990234 100.8745880126953 140.7710571289062 101.5198440551758 140.5470581054688 102.2725524902344 C 140.3270111083984 103.0119323730469 139.6840362548828 103.3850250244141 138.6187591552734 104.0031509399414 C 137.5132751464844 104.6396408081055 136.4324493408203 105.267204284668 135.2881927490234 105.9316253662109 C 134.5217437744141 106.3766708374023 133.7383117675781 106.8315658569336 132.9398651123047 107.2934188842773 C 133.5013427734375 107.710090637207 134.0573883056641 108.1230316162109 134.609619140625 108.5331115722656 C 136.18359375 109.7019882202148 137.6702880859375 110.806037902832 139.1941680908203 111.93115234375 C 140.8611297607422 113.161735534668 142.5599060058594 114.4065704345703 144.2027435302734 115.6104202270508 C 146.8885040283203 117.5785064697266 149.6654052734375 119.6133880615234 152.3805236816406 121.6425094604492 C 152.6310272216797 121.8229751586914 152.7266693115234 121.8321685791016 152.7433929443359 121.8321685791016 C 152.7666931152344 121.8321685791016 152.8606567382812 121.8213882446289 153.0917663574219 121.6827163696289 L 153.0948486328125 121.6808776855469 L 153.0979461669922 121.6790390014648 C 156.7560729980469 119.5197296142578 160.3921966552734 117.4640960693359 163.1513061523438 115.9144592285156 L 163.1567077636719 115.9114227294922 L 163.1621398925781 115.9084625244141 C 163.5724487304688 115.6846542358398 163.6155090332031 115.6055603027344 163.5677490234375 115.1478500366211 C 163.1147003173828 111.2791061401367 162.6943511962891 107.3333435058594 162.287841796875 103.5174407958984 C 162.1548004150391 102.2684783935547 162.0217132568359 101.0191650390625 161.8872528076172 99.76985931396484 C 161.5708770751953 96.94529724121094 161.2432250976562 94.02009582519531 160.9431457519531 91.1116943359375 L 160.9425201416016 91.10564422607422 C 160.9412384033203 91.09326171875 160.93994140625 91.08084106445312 160.9386291503906 91.06835174560547 C 160.9217224121094 91.07792663574219 160.9051055908203 91.08734130859375 160.8888549804688 91.09654998779297 C 160.2010345458984 91.49062347412109 159.4936370849609 91.89100646972656 158.8095245361328 92.27820587158203 C 157.3063507080078 93.12899017333984 155.7519989013672 94.00871276855469 154.2588500976562 94.90460205078125 C 153.9260864257812 95.10629272460938 153.4751129150391 95.34043884277344 152.9710235595703 95.34049224853516 C 151.9698028564453 95.34058380126953 151.4763336181641 94.48145294189453 151.2894744873047 94.15445709228516 L 151.1911468505859 93.98468017578125 C 150.5873565673828 92.94313049316406 150.2229309082031 92.31446075439453 150.4360656738281 91.54651641845703 C 150.6426391601562 90.80231475830078 151.2821502685547 90.40458679199219 152.3416595458984 89.74562072753906 C 157.2314605712891 86.71213531494141 162.2838897705078 83.57775115966797 167.2290191650391 80.47265625 C 167.5469970703125 80.2724609375 168.0405883789062 80.00542449951172 168.6412963867188 80.00542449951172 C 169.0927429199219 80.00542449951172 169.5290222167969 80.14571380615234 170.0142974853516 80.4468994140625 L 170.0181121826172 80.44927978515625 L 170.0219116210938 80.45167541503906 C 175.2614898681641 83.76931762695312 180.5982666015625 87.08743286132812 185.8838653564453 90.313720703125 C 186.3145294189453 90.570068359375 186.8253173828125 90.94618988037109 186.9730377197266 91.58533477783203 C 187.1214141845703 92.22738647460938 186.8268127441406 92.79046630859375 186.5519714355469 93.21012115478516 L 186.4760589599609 93.32913208007812 C 185.7461090087891 94.47354888916016 185.2638702392578 95.22958374023438 184.2614593505859 95.22964477539062 C 183.6347045898438 95.22966003417969 183.0933227539062 94.91385650634766 182.1105041503906 94.34053039550781 L 182.1018676757812 94.33549499511719 C 181.5388946533203 94.00922393798828 180.9734497070312 93.68333435058594 180.4085235595703 93.35771179199219 C 179.1119995117188 92.61045837402344 177.7755126953125 91.84014129638672 176.4608306884766 91.05960845947266 C 176.1254730224609 94.34725952148438 175.7679748535156 97.64978790283203 175.4293823242188 100.7607345581055 C 175.3154602050781 101.8078384399414 175.2027740478516 102.8537139892578 175.0901947021484 103.8988952636719 C 174.7314147949219 107.2295837402344 174.3604431152344 110.673698425293 173.9552612304688 114.0737838745117 L 173.9310302734375 114.2772598266602 C 173.8695983886719 114.7918930053711 173.7931518554688 115.4323883056641 173.8507843017578 115.5426406860352 C 173.9243621826172 115.6834411621094 174.6023406982422 116.0755157470703 175.0509643554688 116.3349533081055 C 178.4367523193359 118.2805328369141 181.4506225585938 120.0285873413086 184.2624053955078 121.677619934082 C 184.3392181396484 121.7229995727539 184.5008544921875 121.8185195922852 184.5856781005859 121.8516998291016 C 184.6029815673828 121.8422698974609 184.6284790039062 121.8267364501953 184.6625061035156 121.8018798828125 C 191.2252960205078 116.9775695800781 197.7342376708984 112.2128143310547 204.5234375 107.2630844116211 C 204.4147491455078 107.2041854858398 204.3018646240234 107.145637512207 204.1852569580078 107.0851516723633 C 203.935546875 106.9556274414062 203.6774749755859 106.8217544555664 203.4214324951172 106.6624603271484 C 201.5987091064453 105.5823135375977 199.7143249511719 104.4657669067383 197.8441925048828 103.4394607543945 L 197.8382415771484 103.4361877441406 L 197.8323059082031 103.4328384399414 C 197.4274139404297 103.2034072875977 196.9398193359375 102.8621292114258 196.7615814208984 102.2545166015625 C 196.5833740234375 101.6470108032227 196.8091430664062 101.1005859375 197.0268096923828 100.6917877197266 L 197.0522155761719 100.6431350708008 C 197.3749237060547 100.0250396728516 197.6080932617188 99.57847595214844 197.8587036132812 99.24536895751953 C 198.4522705078125 98.45647430419922 199.0847930908203 98.45647430419922 199.2926483154297 98.45647430419922 C 199.9064788818359 98.45647430419922 200.4597778320312 98.75491333007812 201.4642486572266 99.29667663574219 L 201.4927978515625 99.31208038330078 C 202.6172027587891 99.91478729248047 203.7438659667969 100.5198440551758 204.8707580566406 101.1250076293945 C 208.7868957519531 103.2280960083008 212.8365325927734 105.4028625488281 216.8327331542969 107.49951171875 C 217.9515991210938 108.0777130126953 218.4221801757812 108.8913269042969 218.3579406738281 110.1365432739258 C 218.0847320556641 116.1702194213867 217.8526916503906 122.3269805908203 217.6682891845703 128.4353637695312 C 217.6533203125 129.1026306152344 217.5423736572266 129.5674743652344 217.3087768554688 129.9419250488281 C 217.1191253662109 130.2459564208984 216.6640930175781 130.7559661865234 215.7474517822266 130.7559814453125 C 215.5367736816406 130.7559814453125 215.3125915527344 130.7302551269531 215.0622711181641 130.6773223876953 C 214.7970733642578 130.6245574951172 214.5904235839844 130.5999755859375 214.4123687744141 130.5999755859375 C 214.3723297119141 130.5999755859375 214.3329925537109 130.6012420654297 214.2954559326172 130.6037292480469 L 214.2924652099609 130.6039276123047 L 214.2894897460938 130.6041107177734 C 214.2272491455078 130.6078948974609 214.1659088134766 130.6098022460938 214.1071319580078 130.6098022460938 C 213.2860870361328 130.6098022460938 212.8539581298828 130.2290344238281 212.6360015869141 129.9096069335938 C 212.3455810546875 129.4839630126953 212.308349609375 128.9825439453125 212.308349609375 128.5932769775391 L 212.308349609375 128.5890808105469 L 212.3083801269531 128.5848846435547 C 212.3198547363281 127.2196578979492 212.3198547363281 125.8353118896484 212.3198547363281 124.4965286254883 C 212.3198547363281 123.3112411499023 212.3198547363281 122.0902786254883 212.3277893066406 120.8755187988281 C 204.2346801757812 124.458366394043 196.8824768066406 127.6986465454102 189.8659057617188 130.7749633789062 C 189.8094635009766 130.7998046875 189.7742004394531 130.820068359375 189.7538604736328 130.8332977294922 C 189.7503051757812 130.8611297607422 189.7468109130859 130.9112091064453 189.7500915527344 130.9929504394531 L 189.7507781982422 131.0100250244141 L 189.7508697509766 131.0271301269531 C 189.7738494873047 135.0004577636719 189.7738494873047 139.0299377441406 189.7508850097656 143.0032958984375 C 189.7509918212891 143.0816345214844 189.7559509277344 143.1298980712891 189.7602233886719 143.1570129394531 C 189.7848663330078 143.1733245849609 189.83154296875 143.2005004882812 189.9131317138672 143.2364044189453 C 197.0956420898438 146.3828125 204.7752838134766 149.7559356689453 212.3290710449219 153.1291656494141 C 212.3232574462891 152.2006378173828 212.3283081054688 151.2644195556641 212.3332214355469 150.3560638427734 C 212.3413238525391 148.8524627685547 212.3497314453125 147.2976837158203 212.3087158203125 145.7665710449219 C 212.2946166992188 145.1325073242188 212.3494415283203 144.4183502197266 212.8620758056641 143.8942108154297 C 213.3725280761719 143.3722991943359 214.0735778808594 143.3119354248047 214.5565032958984 143.3119354248047 C 214.5914764404297 143.3119354248047 214.6271667480469 143.3123168945312 214.6636352539062 143.3130340576172 L 214.6712646484375 143.3132019042969 L 214.6789093017578 143.3134765625 C 214.7638854980469 143.3165130615234 214.8451232910156 143.3192291259766 214.9228363037109 143.3218231201172 C 215.9426116943359 143.3559722900391 216.6163330078125 143.3785095214844 217.1256866455078 143.9354705810547 C 217.6060485839844 144.4607391357422 217.6293792724609 145.1371154785156 217.6680145263672 146.2576904296875 C 217.7829742431641 149.2234802246094 217.8941650390625 152.2427368164062 218.0016784667969 155.1625823974609 C 218.1091461181641 158.0813293457031 218.2202758789062 161.0994415283203 218.3353118896484 164.0673828125 L 218.3354339599609 164.0706176757812 L 218.3355255126953 164.0738830566406 C 218.3705749511719 165.1600036621094 217.9759979248047 165.8509521484375 217.0162048339844 166.3842163085938 L 217.0078582763672 166.3888549804688 L 216.9994201660156 166.3933258056641 C 211.7035675048828 169.2046813964844 206.0149993896484 172.2345581054688 200.2989044189453 175.3416595458984 L 200.2953948974609 175.3435668945312 L 200.2918548583984 175.345458984375 C 199.8696594238281 175.5706024169922 199.5316772460938 175.6710052490234 199.1959991455078 175.6710052490234 C 198.2271881103516 175.6710052490234 197.7922058105469 174.8270721435547 197.6439056396484 174.5308074951172 L 197.6069488525391 174.46142578125 C 196.9813995361328 173.2873992919922 196.6038360595703 172.5787811279297 196.8370513916016 171.7869720458984 C 197.0677032470703 171.0037841796875 197.7295989990234 170.6213989257812 198.9311676025391 169.9272003173828 L 198.9527587890625 169.9147186279297 C 199.8482360839844 169.3977355957031 200.7636413574219 168.8654632568359 201.6489105224609 168.3507080078125 C 202.5651702880859 167.8179473876953 203.5027923583984 167.2727508544922 204.4593658447266 166.7204742431641 C 203.5460357666016 166.051025390625 202.6410369873047 165.3883056640625 201.7417602539062 164.7298126220703 C 199.5409851074219 163.1182250976562 197.4622497558594 161.5960235595703 195.3386535644531 160.0320281982422 C 194.59716796875 159.4892272949219 193.852294921875 158.9447174072266 193.1068420410156 158.3997650146484 C 190.3641662597656 156.3948211669922 187.5281066894531 154.3216094970703 184.7471160888672 152.2494964599609 L 184.740966796875 152.2449188232422 L 184.7348785400391 152.240234375 C 184.5204162597656 152.0752716064453 184.4434661865234 152.0678558349609 184.4427795410156 152.0678558349609 C 184.4395751953125 152.0678558349609 184.3619232177734 152.0693206787109 184.1471405029297 152.1952209472656 C 180.8148345947266 154.1674346923828 177.3645935058594 156.1600646972656 173.8957366943359 158.11572265625 C 173.7378692626953 158.2071380615234 173.6855926513672 158.2598114013672 173.6724090576172 158.2750396728516 C 173.6679992675781 158.2947387695312 173.6559295654297 158.3710632324219 173.6783447265625 158.5504302978516 L 173.6787109375 158.5532836914062 L 173.6790466308594 158.55615234375 C 174.3414306640625 164.1167755126953 174.9746551513672 169.7836303710938 175.5870208740234 175.2639007568359 C 175.786865234375 177.0525512695312 175.9867858886719 178.8415832519531 176.1880340576172 180.6305541992188 C 176.28173828125 181.3993835449219 176.35986328125 182.1629180908203 176.4347839355469 182.9356994628906 C 177.3268890380859 182.4090728759766 178.2276916503906 181.8944091796875 179.1031951904297 181.3941802978516 C 180.3908538818359 180.6584930419922 181.7223663330078 179.8977508544922 183.003173828125 179.1114807128906 C 183.3419036865234 178.9022827148438 183.7984313964844 178.6604919433594 184.3056793212891 178.6604919433594 C 185.2916412353516 178.6604919433594 185.7890930175781 179.5202026367188 185.9790802001953 179.8526153564453 L 186.0483856201172 179.9698944091797 C 186.6779632568359 181.0350341796875 187.0579833984375 181.6779479980469 186.8390350341797 182.4595489501953 C 186.6297912597656 183.2065277099609 186.0094604492188 183.5909423828125 184.8835296630859 184.2879486083984 C 183.5585327148438 185.1184539794922 182.2335510253906 185.9471893310547 180.9090118408203 186.775634765625 C 177.4869079589844 188.9160766601562 173.9483032226562 191.1293792724609 170.4830474853516 193.3284606933594 C 169.8365325927734 193.7415466308594 169.2921447753906 193.926513671875 168.7204895019531 193.9265747070312 Z M 136.3647308349609 190.5351715087891 L 135.4996948242188 190.0360565185547 L 106.5002365112305 173.3038177490234 L 106 173.0151824951172 L 106 172.4376525878906 L 106 139.6867065429688 L 106 138.6867065429688 L 107 138.6867065429688 L 113.2602005004883 138.6867065429688 L 114.2602005004883 138.6867065429688 L 114.2602005004883 139.6867065429688 L 114.2602157592773 168.2469177246094 L 139.6295928955078 182.895263671875 L 140.4964599609375 183.3957824707031 L 139.9950714111328 184.2621459960938 L 136.8649597167969 189.6707916259766 L 136.3647308349609 190.5351715087891 Z M 201.5967407226562 190.1904449462891 L 201.0962066650391 189.3255310058594 L 197.9661102294922 183.9169158935547 L 197.4647216796875 183.0505523681641 L 198.3315887451172 182.5500183105469 L 223.1255950927734 168.2336273193359 L 223.1255950927734 139.6867065429688 L 223.1255950927734 138.6867065429688 L 224.1255950927734 138.6867065429688 L 230.3627624511719 138.6867065429688 L 231.3627624511719 138.6867065429688 L 231.3627624511719 139.6867065429688 L 231.3627624511719 172.4146728515625 L 231.3627624511719 172.9918060302734 L 230.8630523681641 173.2805328369141 L 202.4620056152344 189.6904907226562 L 201.5967407226562 190.1904449462891 Z M 114.2371826171875 135.4852294921875 L 113.2371826171875 135.4852294921875 L 107 135.4852294921875 L 106 135.4852294921875 L 106 134.4852294921875 L 106 101.2048950195312 L 106 100.6276779174805 L 106.4998321533203 100.3389663696289 L 135.2691497802734 83.7218017578125 L 136.1343383789062 83.22206115722656 L 136.6348114013672 84.08683776855469 L 139.7649078369141 89.49547576904297 L 140.266357421875 90.36198425292969 L 139.3993072509766 90.86245727539062 L 114.2371826171875 105.3860244750977 L 114.2371826171875 134.4852294921875 L 114.2371826171875 135.4852294921875 Z M 231.3627624511719 135.4851989746094 L 230.3627624511719 135.4851989746094 L 224.1025695800781 135.4851989746094 L 223.1025695800781 135.4851989746094 L 223.1025695800781 134.4851989746094 L 223.1025695800781 105.3955383300781 L 198.5386047363281 91.20753479003906 L 197.6719512939453 90.70694732666016 L 198.1732482910156 89.84071350097656 L 201.3033447265625 84.43207550048828 L 201.8036346435547 83.56758880615234 L 202.6687316894531 84.06685638427734 L 230.8626403808594 100.3387832641602 L 231.3627624511719 100.62744140625 L 231.3627624511719 101.2048950195312 L 231.3627624511719 134.4851989746094 L 231.3627624511719 135.4851989746094 Z M 194.9158477783203 89.10640716552734 L 194.0507049560547 88.60685729980469 L 168.6813812255859 73.95856475830078 L 143.9104766845703 88.26161956787109 L 143.0453338623047 88.76116943359375 L 142.544921875 87.89651489257812 L 139.4148101806641 82.48787689208984 L 138.9132690429688 81.62123870849609 L 139.7805633544922 81.12082672119141 L 168.1816101074219 64.73384094238281 L 168.6813812255859 64.44549560546875 L 169.18115234375 64.73384094238281 L 198.1806182861328 81.46605682373047 L 199.0479125976562 81.96647644042969 L 198.5463562011719 82.83311462402344 L 195.416259765625 88.24175262451172 L 194.9158477783203 89.10640716552734 Z" stroke="none"/>
        <path d="M 168.6813812255859 208.01953125 L 197.4276885986328 191.4254150390625 L 194.2975616455078 186.0167846679688 L 168.6813812255859 200.8157043457031 L 143.6405792236328 186.3620300292969 L 140.5104827880859 191.7706298828125 L 168.6813812255859 208.01953125 M 168.7204132080078 192.9265594482422 C 169.1171112060547 192.9265441894531 169.5023651123047 192.7683715820312 169.9472351074219 192.484130859375 C 174.7344665527344 189.4461059570312 179.544677734375 186.4541015625 184.3549041748047 183.4390869140625 C 186.2882080078125 182.2422943115234 186.2421875 182.2652740478516 185.1143951416016 180.3550109863281 C 184.6541442871094 179.5494689941406 184.3088989257812 179.4803924560547 183.5263671875 179.9637145996094 C 181.2017822265625 181.3906860351562 178.8081817626953 182.6795654296875 176.4606018066406 184.08349609375 C 175.7701416015625 184.4978179931641 175.56298828125 184.2906494140625 175.4939575195312 183.6001892089844 C 175.4018859863281 182.6335144042969 175.309814453125 181.6899108886719 175.1947479248047 180.7462463378906 C 174.3661956787109 173.3813018798828 173.5606536865234 166.0163879394531 172.6860809326172 158.6744537353516 C 172.593994140625 157.9379730224609 172.8011474609375 157.5927124023438 173.3995666503906 157.2474822998047 C 176.8288421630859 155.3141937255859 180.2581634521484 153.3348693847656 183.6414337158203 151.3325347900391 C 184.3088531494141 150.9412689208984 184.7461395263672 150.9872589111328 185.3445739746094 151.4476013183594 C 188.8659362792969 154.0713500976562 192.4103088378906 156.6490936279297 195.9316864013672 159.2268218994141 C 199.3379669189453 161.7355041503906 202.7442474365234 164.2211761474609 206.2886352539062 166.8219146728516 C 203.9180145263672 168.1798553466797 201.685546875 169.4917144775391 199.4530487060547 170.7805938720703 C 197.3816680908203 171.9773559570312 197.4046630859375 171.954345703125 198.5324249267578 174.0717620849609 C 198.8546295166016 174.7162017822266 199.1307983398438 174.8313140869141 199.8213195800781 174.4630737304688 C 205.3680267333984 171.4480285644531 210.9377746582031 168.4790344238281 216.530517578125 165.5100708007812 C 217.1519470214844 165.1648254394531 217.3590850830078 164.8195953369141 217.3360595703125 164.1061096191406 C 217.1059265136719 158.1681213378906 216.8987579345703 152.2301330566406 216.6686248779297 146.2921752929688 C 216.5995635986328 144.2898101806641 216.5765686035156 144.3818664550781 214.6432342529297 144.3128356933594 C 213.5153198242188 144.289306640625 213.2853546142578 144.7040863037109 213.3083648681641 145.7397918701172 C 213.3773956298828 148.3175048828125 213.3083648681641 150.8722229003906 213.3313598632812 153.4269561767578 C 213.3313598632812 154.2094573974609 213.3084106445312 154.6697998046875 212.2956848144531 154.20947265625 C 204.7235870361328 150.8262023925781 197.1284942626953 147.4889526367188 189.5104064941406 144.1517028808594 C 188.9350280761719 143.8985443115234 188.7508850097656 143.5993347167969 188.7508850097656 143.0009460449219 C 188.7738952636719 139.0192718505859 188.7738952636719 135.0145874023438 188.7508850097656 131.0329132080078 C 188.7278747558594 130.4575347900391 188.8889770507812 130.1123046875 189.4643859863281 129.859130859375 C 197.1284942626953 126.4988708496094 204.7466278076172 123.1386260986328 212.3877410888672 119.7553482055664 C 213.1703033447266 119.4101257324219 213.3313751220703 119.5942611694336 213.3313598632812 120.399787902832 C 213.3083648681641 123.1386260986328 213.3313598632812 125.8544464111328 213.3083648681641 128.59326171875 C 213.3083648681641 129.2837524414062 213.4694519042969 129.6521911621094 214.2289886474609 129.6059417724609 C 214.5741119384766 129.5829467773438 214.9194488525391 129.6289672851562 215.2646789550781 129.6980133056641 C 216.3464508056641 129.9281921386719 216.6456146240234 129.4678802490234 216.6686248779297 128.4091491699219 C 216.8527221679688 122.3100662231445 217.0828857421875 116.1879501342773 217.3590850830078 110.0888671875 C 217.4051055908203 109.2142715454102 217.1289215087891 108.776985168457 216.3694152832031 108.3857269287109 C 211.2369842529297 105.6929092407227 206.1275482177734 102.9310684204102 201.0181274414062 100.1922302246094 C 198.9697570800781 99.08750152587891 198.9927673339844 99.08747100830078 197.9110260009766 101.1588668823242 C 197.5427856445312 101.8493270874023 197.6348419189453 102.1715469360352 198.3253021240234 102.5628051757812 C 200.2125549316406 103.5985107421875 202.0768280029297 104.7032470703125 203.9410552978516 105.807991027832 C 204.6775665283203 106.268310546875 205.5521392822266 106.5444869995117 206.1965789794922 107.2809906005859 C 199.1538543701172 112.4134292602539 192.2031860351562 117.4998321533203 185.2525177001953 122.6092681884766 C 184.6541290283203 123.0465621948242 184.2628784179688 122.8394165039062 183.7565155029297 122.5402069091797 C 180.6954650878906 120.7450103759766 177.6343994140625 118.9728317260742 174.5503387451172 117.2006301879883 C 172.6400604248047 116.0958862304688 172.7091064453125 116.0958862304688 172.9622650146484 113.955451965332 C 173.4916229248047 109.5134887695312 173.9519348144531 105.0945281982422 174.4352569580078 100.6525268554688 C 174.8034973144531 97.26927185058594 175.1717681884766 93.86296844482422 175.5169830322266 90.45668792724609 C 175.5860443115234 89.62811279296875 175.8392486572266 89.51309204101562 176.5526885986328 89.95034790039062 C 178.5550231933594 91.14714813232422 180.5803833007812 92.29792785644531 182.6057434082031 93.47171020507812 C 184.5390472412109 94.59949493408203 184.4930267333984 94.576416015625 185.7128143310547 92.66616821289062 C 186.1961669921875 91.9296875 186.1040954589844 91.60746765136719 185.3675994873047 91.170166015625 C 180.051025390625 87.92498779296875 174.7574768066406 84.6337890625 169.4869384765625 81.29654693603516 C 168.8194885253906 80.88227844238281 168.3822021484375 80.92829132080078 167.7607879638672 81.31957244873047 C 162.8124542236328 84.42665100097656 157.8411254882812 87.51071166992188 152.8697814941406 90.59478759765625 C 150.9825286865234 91.76856994628906 151.0515747070312 91.74556732177734 152.1563262939453 93.65584564208984 C 152.6165771484375 94.46137237548828 152.9848480224609 94.5074462890625 153.7443542480469 94.04711151123047 C 155.9308471679688 92.73520660400391 158.1863403320312 91.49238586425781 160.3958282470703 90.22653198242188 C 161.7767486572266 89.44398498535156 161.7767486572266 89.46705627441406 161.9378662109375 91.00907135009766 C 162.2370758056641 93.90901184082031 162.5592803955078 96.78592681884766 162.8815002441406 99.66287231445312 C 163.4338684082031 104.7953109741211 163.9632263183594 109.9277496337891 164.5616149902344 115.0371856689453 C 164.6536865234375 115.9117660522461 164.4005279541016 116.3720703125 163.6410064697266 116.7863464355469 C 160.2807464599609 118.6736297607422 156.9205017089844 120.5839080810547 153.6062774658203 122.5402069091797 C 152.9158172607422 122.9545211791992 152.4555053710938 122.9314880371094 151.7880554199219 122.4481506347656 C 147.4151458740234 119.1799697875977 142.9961547851562 115.9808120727539 138.6002044677734 112.7356262207031 C 136.1375579833984 110.9174270629883 133.6979217529297 109.0991897583008 131.1202087402344 107.1889114379883 C 133.559814453125 105.7849655151367 135.8383483886719 104.450065612793 138.1168823242188 103.1382064819336 C 139.9811248779297 102.0564651489258 139.9351043701172 102.0794906616211 138.8994140625 100.1461868286133 C 138.4851226806641 99.38668823242188 138.1629028320312 99.17954254150391 137.3343658447266 99.63984680175781 C 131.9026947021484 102.6318664550781 126.4710845947266 105.6008453369141 121.0164031982422 108.523811340332 C 120.2338790893555 108.9380874633789 120.0497589111328 109.4214096069336 120.0727844238281 110.2499694824219 C 120.2799224853516 116.0038299560547 120.4179992675781 121.7807083129883 120.6021194458008 127.5345687866211 C 120.6711807250977 129.8821258544922 120.2338485717773 129.7671051025391 122.8576431274414 129.6519622802734 C 123.9623794555664 129.6059417724609 124.1004791259766 129.1686706542969 124.0774841308594 128.248046875 C 124.0314407348633 125.6473083496094 124.0544586181641 123.0465698242188 124.0314407348633 120.4458084106445 C 124.0084228515625 119.6632843017578 124.0774917602539 119.3180541992188 124.9980850219727 119.7323303222656 C 132.6392059326172 123.115608215332 140.2803344726562 126.4758453369141 147.9214630126953 129.8361358642578 C 148.4738464355469 130.0892944335938 148.6809539794922 130.3654632568359 148.6809539794922 130.9868621826172 C 148.6579437255859 135.0375823974609 148.6579437255859 139.0653076171875 148.6809539794922 143.0930023193359 C 148.6809539794922 143.6453704833984 148.5658874511719 144.0136108398438 147.9674835205078 144.2667846679688 C 140.2803344726562 147.6270446777344 132.5931854248047 151.0103149414062 124.9290390014648 154.4166107177734 C 124.2385482788086 154.7157745361328 124.0544357299805 154.5546875 124.054443359375 153.8182067871094 C 124.0774841308594 151.4245910644531 124.054443359375 149.0540161132812 124.054443359375 146.6604156494141 C 124.054443359375 144.450927734375 124.054443359375 144.450927734375 121.8219375610352 144.4048614501953 C 121.7759246826172 144.4048614501953 121.7299041748047 144.4048614501953 121.6838607788086 144.4048614501953 C 120.9013214111328 144.266845703125 120.6251678466797 144.5890197753906 120.6021194458008 145.3945617675781 C 120.4410247802734 151.7237854003906 120.279899597168 158.0530548095703 120.0727844238281 164.3822937011719 C 120.0497589111328 165.0036926269531 120.279899597168 165.3028869628906 120.8092575073242 165.5791015625 C 126.3789978027344 168.5711059570312 131.9487457275391 171.5631103515625 137.4954681396484 174.578125 C 138.1629180908203 174.9464263916016 138.4391174316406 174.7622833251953 138.7843475341797 174.1638488769531 C 139.9811248779297 172.0924682617188 140.0041351318359 172.0924682617188 137.9557647705078 170.8726501464844 C 137.4033966064453 170.5504455566406 136.8280029296875 170.2052154541016 136.275634765625 169.8829956054688 C 134.5955200195312 168.8933410644531 132.8923797607422 167.8806457519531 131.1662139892578 166.844970703125 C 131.3733673095703 166.6378021240234 131.4654083251953 166.5457458496094 131.5574798583984 166.4767150878906 C 138.4390869140625 161.4133148193359 145.3437194824219 156.3729248046875 152.2023468017578 151.3095245361328 C 152.7776794433594 150.895263671875 153.1459503173828 150.9642944335938 153.6983184814453 151.2865142822266 C 156.805419921875 153.1047210693359 159.8894958496094 154.968994140625 163.0656280517578 156.6261138916016 C 164.4465484619141 157.3625946044922 164.6536865234375 158.2141418457031 164.4925842285156 159.6181030273438 C 163.7560882568359 165.9013061523438 163.1116485595703 172.1845550537109 162.4211883544922 178.4677429199219 C 162.1910247802734 180.4240417480469 161.9608764648438 182.4033813476562 161.7077026367188 184.5208129882812 C 159.2220458984375 183.0938720703125 156.8974761962891 181.7819519042969 154.5729217529297 180.4470825195312 C 152.7546844482422 179.4113922119141 152.8007354736328 179.4344177246094 151.6269683837891 181.1605224609375 C 151.0285339355469 182.0351257324219 151.1896667480469 182.4033508300781 152.0412139892578 182.9097137451172 C 157.2657470703125 186.0858917236328 162.4672241210938 189.2849731445312 167.6226654052734 192.5531921386719 C 168.0276641845703 192.8089752197266 168.3782806396484 192.9265899658203 168.7204132080078 192.9265594482422 M 135.9994659423828 189.1698913574219 L 139.1295623779297 183.7612762451172 L 113.2602005004883 168.8242492675781 L 113.2602005004883 139.6867065429688 L 107 139.6867065429688 L 107 172.4376525878906 L 135.9994659423828 189.1698913574219 M 201.9617156982422 188.8246459960938 L 230.3627624511719 172.4146728515625 L 230.3627624511719 139.6867065429688 L 224.1255950927734 139.6867065429688 L 224.1255950927734 168.8242492675781 L 224.1025543212891 168.8242492675781 L 198.8316192626953 183.416015625 L 201.9617156982422 188.8246459960938 M 230.3627624511719 134.4852142333984 L 230.3627624511719 101.2048873901367 L 202.1688537597656 84.93296813964844 L 199.0387573242188 90.34160614013672 L 224.1025543212891 104.8183059692383 L 224.1025543212891 134.4852142333984 L 230.3627624511719 134.4852142333984 M 113.2371826171875 134.4852142333984 L 113.2371826171875 104.7952880859375 L 113.2602005004883 104.7952880859375 L 138.8993988037109 89.99636840820312 L 135.7693023681641 84.58774566650391 L 107 101.2048873901367 L 107 134.4852142333984 L 113.2371826171875 134.4852142333984 M 194.5507354736328 87.74085235595703 L 197.6808471679688 82.33222961425781 L 168.6813812255859 65.60000610351562 L 140.2803344726562 81.98699188232422 L 143.4104461669922 87.39560699462891 L 168.6813812255859 72.80382537841797 L 194.5507354736328 87.74085235595703 M 168.6817779541016 210.32861328125 L 137.7762145996094 192.5023651123047 L 142.9102020263672 183.6311950683594 L 168.6809387207031 198.5061950683594 L 195.0275421142578 183.2852935791016 L 200.1615753173828 192.1565551757812 L 168.6817779541016 210.32861328125 Z M 168.7205352783203 194.9265747070312 C 168.7205200195312 194.9265747070312 168.7205200195312 194.9265747070312 168.7205200195312 194.9265747070312 C 167.9902191162109 194.9266052246094 167.28173828125 194.7033843994141 166.5546417236328 194.2441558837891 C 162.0788116455078 191.4067687988281 157.1402130126953 188.3502044677734 151.0102233886719 184.6235198974609 C 150.6146697998047 184.3882598876953 149.5946960449219 183.7740020751953 149.3303833007812 182.5759124755859 C 149.0912322998047 181.4919128417969 149.5835876464844 180.60546875 149.9753570556641 180.0326080322266 L 150.0542449951172 179.9164886474609 C 150.4080200195312 179.3955841064453 150.6636199951172 179.0192260742188 150.9647674560547 178.6959686279297 C 151.5498199462891 178.0679473876953 152.2382659912109 177.74951171875 153.010986328125 177.74951171875 C 153.8779449462891 177.74951171875 154.5452270507812 178.1296081542969 155.5552673339844 178.7049560546875 L 155.5688781738281 178.7127075195312 C 156.7189483642578 179.3731231689453 157.8473205566406 180.0155639648438 159.0419616699219 180.6957244873047 C 159.3835754394531 180.8902282714844 159.7286376953125 181.0866851806641 160.0767974853516 181.2850494384766 C 160.1311950683594 180.8221130371094 160.1848449707031 180.3645324707031 160.2379150390625 179.9119262695312 C 160.3035736083984 179.3519287109375 160.3687133789062 178.7964324951172 160.4338531494141 178.2427673339844 C 160.6634979248047 176.1531066894531 160.8918914794922 174.0273895263672 161.1127777099609 171.9715881347656 C 161.5558624267578 167.8479309082031 162.0140228271484 163.5838928222656 162.5061798095703 159.3852691650391 C 162.5648956298828 158.8734283447266 162.5300445556641 158.7001495361328 162.5188293457031 158.6610107421875 C 162.4983673095703 158.63720703125 162.4056701660156 158.5414886474609 162.1306457519531 158.3941345214844 C 159.5022125244141 157.0223388671875 156.9151000976562 155.4991912841797 154.4128875732422 154.0260314941406 C 153.9449157714844 153.7505187988281 153.4769439697266 153.4749908447266 153.0084838867188 153.2003021240234 C 149.1011810302734 156.0836944580078 145.1222534179688 159.0018005371094 141.2703247070312 161.8267822265625 C 139.119873046875 163.4039154052734 136.9130249023438 165.0223999023438 134.7167663574219 166.6362152099609 C 135.5832977294922 167.1515350341797 136.443359375 167.6605987548828 137.2906951904297 168.1597137451172 C 137.5677490234375 168.3213653564453 137.8506011962891 168.4887390136719 138.1334381103516 168.6561431884766 C 138.4120178222656 168.8210144042969 138.6905975341797 168.9859161376953 138.9634857177734 169.1450653076172 L 138.9790649414062 169.1542663574219 C 140.2705688476562 169.9233551025391 141.2036743164062 170.4790344238281 141.5189819335938 171.6813659667969 C 141.8341979980469 172.8833618164062 141.2936553955078 173.8187713623047 140.5455474853516 175.1134033203125 L 140.5160827636719 175.1643829345703 C 140.3589019775391 175.4368286132812 140.1336975097656 175.7904052734375 139.7901611328125 176.0992736816406 C 139.3038177490234 176.5364837646484 138.7091827392578 176.7676544189453 138.0705261230469 176.7677307128906 C 137.5700836181641 176.7677917480469 137.0677795410156 176.6254119873047 136.5350341796875 176.3324279785156 C 130.9969635009766 173.3221435546875 125.3415145874023 170.2840728759766 119.8712997436523 167.3455505371094 C 118.6299743652344 166.6930236816406 118.0252532958984 165.6730194091797 118.0739669799805 164.3135681152344 C 118.280876159668 157.9900970458984 118.4445114135742 151.5609893798828 118.6027603149414 145.3436737060547 L 118.6029434204102 145.3373718261719 C 118.6655197143555 143.1500091552734 120.1305618286133 142.3738861083984 121.3661422729492 142.3738861083984 C 121.5181884765625 142.3738861083984 121.6723327636719 142.3840789794922 121.8330535888672 142.4048614501953 L 121.8632049560547 142.4052886962891 C 123.3055801391602 142.4350433349609 124.3477249145508 142.45654296875 125.1968383789062 143.3144226074219 C 126.054443359375 144.1808929443359 126.054443359375 145.2209320068359 126.054443359375 146.6604156494141 C 126.054443359375 147.4559020996094 126.0570449829102 148.2633056640625 126.0595626831055 149.0441436767578 C 126.0623931884766 149.9244232177734 126.0652847290039 150.8215942382812 126.0645217895508 151.7240142822266 C 132.5934753417969 148.8268890380859 139.3627319335938 145.8463592529297 146.6784973144531 142.6475524902344 C 146.6589660644531 138.9476928710938 146.6589050292969 135.19384765625 146.6782836914062 131.4742736816406 C 139.9087524414062 128.4972839355469 132.9358215332031 125.4305038452148 126.0418319702148 122.3813095092773 C 126.0429458618164 122.7785491943359 126.0436401367188 123.1733322143555 126.044319152832 123.5631713867188 C 126.0470352172852 125.0869674682617 126.0498123168945 126.6624298095703 126.077018737793 128.2043304443359 C 126.0942764282227 128.9131622314453 126.0383605957031 129.7352142333984 125.5000381469727 130.4651031494141 C 124.6793823242188 131.5778045654297 123.3708801269531 131.63232421875 122.9408798217773 131.6502227783203 C 122.8045806884766 131.6562347412109 122.6727600097656 131.6623840332031 122.5493240356445 131.6681823730469 C 122.1492004394531 131.6869354248047 121.8331832885742 131.7017211914062 121.5491409301758 131.7017211914062 C 121.1238021850586 131.7014007568359 120.1263961791992 131.7018127441406 119.3689193725586 130.9430694580078 C 118.608039855957 130.180908203125 118.6096649169922 129.2318725585938 118.6110992431641 128.39453125 C 118.6115036010742 128.1622009277344 118.6119384765625 127.8989715576172 118.60302734375 127.594970703125 C 118.5291061401367 125.2847442626953 118.4615325927734 122.9335784912109 118.3961639404297 120.6596298217773 C 118.2986831665039 117.2677917480469 118.1978607177734 113.7604522705078 118.0740814208984 110.3219299316406 L 118.0735626220703 110.3055114746094 C 118.0567321777344 109.6998672485352 118.0054626464844 107.8578414916992 120.0755996704102 106.7588882446289 C 124.8358764648438 104.2080230712891 130.0118865966797 101.3900375366211 136.36474609375 97.89060211181641 C 136.7470550537109 97.67832946777344 137.3374786376953 97.39682769775391 138.0532989501953 97.39682769775391 C 139.6779174804688 97.39682769775391 140.4134826660156 98.74533081054688 140.6551971435547 99.18846893310547 L 140.7326812744141 99.33287048339844 C 141.3552856445312 100.4934921264648 141.8470458984375 101.4102249145508 141.5055084228516 102.5578308105469 C 141.1722259521484 103.6776275634766 140.3116760253906 104.1769714355469 139.1206665039062 104.8680648803711 L 139.1148071289062 104.871467590332 C 138.0134887695312 105.5055465698242 136.93310546875 106.1328659057617 135.789306640625 106.7970123291016 C 135.4483032226562 106.995002746582 135.1039733886719 107.1949462890625 134.7564392089844 107.3965835571289 C 134.9051361083984 107.5070037841797 135.0534820556641 107.6171722412109 135.2015991210938 107.727165222168 C 136.7764587402344 108.8966903686523 138.2639770507812 110.001350402832 139.7881469726562 111.1266479492188 C 141.4539947509766 112.3564300537109 143.1524353027344 113.6010284423828 144.7949676513672 114.8046264648438 C 147.419677734375 116.7279968261719 150.1317443847656 118.7153701782227 152.7896270751953 120.6999130249023 C 156.3414001464844 118.6065521240234 159.8560943603516 116.6186218261719 162.5555877685547 115.1021194458008 C 162.1091003417969 111.2797546386719 161.6945037841797 107.3879165649414 161.2933349609375 103.6222915649414 C 161.1605682373047 102.3759307861328 161.0277709960938 101.1293106079102 160.8936004638672 99.88263702392578 C 160.6302490234375 97.53124237060547 160.3594818115234 95.11360168457031 160.103271484375 92.69473266601562 C 159.8340148925781 92.84739685058594 159.5660858154297 92.99904632568359 159.3016204833984 93.14872741699219 C 157.8051452636719 93.9957275390625 156.2576751708984 94.87158203125 154.7765655517578 95.76016998291016 C 154.3291625976562 96.03092956542969 153.7202911376953 96.34040832519531 152.9710845947266 96.34049224853516 C 151.921630859375 96.34062957763672 151.0642395019531 95.77292633056641 150.4228057861328 94.65332794189453 L 150.3260192871094 94.48622894287109 C 149.667236328125 93.34980773925781 149.1468963623047 92.45220947265625 149.4725036621094 91.27909088134766 C 149.7833404541016 90.15912628173828 150.6349029541016 89.62950897216797 151.8135223388672 88.89646911621094 L 151.8234405517578 88.89031219482422 C 156.7066802978516 85.86088562011719 161.7561645507812 82.72832489013672 166.6972351074219 79.62578582763672 C 167.1190338134766 79.36020660400391 167.7819366455078 79.00543212890625 168.6412963867188 79.00543212890625 C 169.2784423828125 79.00543212890625 169.9000549316406 79.19902801513672 170.5416870117188 79.59726715087891 L 170.5568542480469 79.6068115234375 C 175.7904205322266 82.92062377929688 181.1209869384766 86.23486328125 186.4001617431641 89.45729064941406 C 186.7627868652344 89.67269897460938 187.6865386962891 90.23152160644531 187.9473571777344 91.36020660400391 C 188.1825103759766 92.37773895263672 187.7462768554688 93.21044158935547 187.3927001953125 93.75159454345703 L 187.3191680908203 93.86682891845703 C 186.9529876708984 94.44097137451172 186.6884002685547 94.85578918457031 186.3801879882812 95.20613098144531 C 185.7827606201172 95.88524627685547 185.0699157714844 96.22959136962891 184.261474609375 96.22962951660156 C 183.3644256591797 96.22969055175781 182.6652221679688 95.82180786132812 181.6068420410156 95.20442962646484 L 181.5981750488281 95.19937133789062 C 181.0350341796875 94.87301635742188 180.4718627929688 94.54843902587891 179.9092254638672 94.22415161132812 C 179.0499114990234 93.72886657714844 178.1732177734375 93.22356414794922 177.2960815429688 92.71139526367188 C 177.0081329345703 95.48481750488281 176.7091064453125 98.24501800537109 176.4235229492188 100.8689270019531 C 176.3097229003906 101.9147872924805 176.1972045898438 102.9594268798828 176.0847473144531 104.0033874511719 C 175.7255859375 107.3377075195312 175.3541870117188 110.7855453491211 174.9481964111328 114.1921310424805 L 174.9239807128906 114.3957290649414 C 174.8971710205078 114.6203155517578 174.8683319091797 114.8619689941406 174.8501739501953 115.0536651611328 C 175.0584869384766 115.1841278076172 175.3390808105469 115.3464126586914 175.5511322021484 115.4690322875977 C 178.8384857177734 117.3580627441406 181.7745971679688 119.0604934692383 184.5170288085938 120.6677093505859 C 190.5188903808594 116.2565841674805 196.4837493896484 111.8893966674805 202.6680908203125 107.3784332275391 C 200.92822265625 106.3475570678711 199.1354522705078 105.2887802124023 197.3630981445312 104.3161468505859 L 197.3392791748047 104.302848815918 C 197.0370025634766 104.1315689086914 196.1171417236328 103.6103057861328 195.802001953125 102.5359878540039 C 195.4882049560547 101.466178894043 195.9742889404297 100.5403594970703 196.1419677734375 100.225830078125 L 196.1657562255859 100.1802673339844 C 196.5105590820312 99.51992797851562 196.7596588134766 99.04283142089844 197.0596618652344 98.64412689208984 C 197.7982177734375 97.66252899169922 198.6816253662109 97.45648956298828 199.2926635742188 97.45648956298828 C 200.1589965820312 97.45648956298828 200.8672485351562 97.83848571777344 201.9393157958984 98.41672515869141 L 201.9651794433594 98.43067169189453 C 203.0904235839844 99.03382873535156 204.2157440185547 99.63817596435547 205.3412170410156 100.2425918579102 C 209.2549438476562 102.344367980957 213.3017730712891 104.5176391601562 217.2933959960938 106.611946105957 C 218.7654418945312 107.3732757568359 219.4405212402344 108.5422439575195 219.3567810058594 110.1849594116211 C 219.0839080810547 116.2110748291016 218.8521728515625 122.3598175048828 218.6679534912109 128.4613647460938 C 218.6558227539062 128.9947814941406 218.5886077880859 129.7797241210938 218.1572265625 130.4712219238281 C 217.6478881835938 131.2876892089844 216.7695617675781 131.7559661865234 215.7474822998047 131.7559814453125 C 215.4683990478516 131.7559814453125 215.1787109375 131.7236480712891 214.8622283935547 131.6571350097656 C 214.6359710693359 131.6122894287109 214.4700927734375 131.5944061279297 214.3621368408203 131.6015014648438 L 214.3504028320312 131.6022644042969 C 214.2687225341797 131.6072235107422 214.1872253417969 131.6097717285156 214.1082000732422 131.6098022460938 C 212.7831268310547 131.6098480224609 212.0995483398438 130.8976898193359 211.8099212646484 130.4731903076172 C 211.3603668212891 129.8142547607422 211.3083648681641 129.0847015380859 211.3083648681641 128.59326171875 L 211.3084411621094 128.5764617919922 C 211.3198547363281 127.2154693603516 211.3198547363281 125.833251953125 211.3198547363281 124.4965286254883 C 211.3198547363281 123.8118209838867 211.3198547363281 123.1152191162109 211.3213958740234 122.4145126342773 C 203.9697418212891 125.6675567626953 197.2179718017578 128.6426849365234 190.7533721923828 131.4777374267578 C 190.7729187011719 135.1413269042969 190.7729949951172 138.8489074707031 190.7536010742188 142.5128479003906 C 197.3625640869141 145.4083557128906 204.3819580078125 148.4920043945312 211.3275299072266 151.5873718261719 C 211.3287963867188 151.1716156005859 211.3310394287109 150.7584533691406 211.3332366943359 150.3509216308594 C 211.34130859375 148.8551483154297 211.3496551513672 147.3084411621094 211.30908203125 145.7933349609375 L 211.3088684082031 145.7842254638672 C 211.2913208007812 144.9957427978516 211.3707580566406 143.9888610839844 212.1471557617188 143.1950225830078 C 213.0108337402344 142.3119354248047 214.1742553710938 142.3119354248047 214.5565795898438 142.3119354248047 C 214.5981597900391 142.3119354248047 214.6405181884766 142.3123626708984 214.6838836669922 142.3132476806641 L 214.7146148681641 142.3141021728516 C 214.798828125 142.3171081542969 214.8793487548828 142.3198089599609 214.9563140869141 142.3223876953125 C 216.0434875488281 142.3587951660156 217.0703277587891 142.3931732177734 217.8636474609375 143.2606353759766 C 218.5922698974609 144.0573577880859 218.6256561279297 145.01220703125 218.6673583984375 146.2208404541016 C 218.7824096679688 149.1898651123047 218.8935394287109 152.2073516845703 219.0010070800781 155.1256866455078 C 219.1084442138672 158.0439910888672 219.2195587158203 161.0616455078125 219.3345642089844 164.0286560058594 L 219.3350219726562 164.0416107177734 C 219.3818969726562 165.4947814941406 218.7822570800781 166.5470123291016 217.5018157958984 167.2583618164062 L 217.4683074951172 167.2765960693359 C 212.1752166748047 170.0864715576172 206.4896240234375 173.1147308349609 200.7764739990234 176.2202453613281 L 200.7624816894531 176.227783203125 C 200.4057159423828 176.4180450439453 199.8551788330078 176.6710052490234 199.1959991455078 176.6710052490234 C 198.4706268310547 176.6710052490234 197.4608001708984 176.3790283203125 196.7568054199219 174.9924774169922 L 196.7244262695312 174.9316864013672 C 196.0305023193359 173.6293334960938 195.5291137695312 172.6883544921875 195.8777770996094 171.5044708251953 C 196.2213592529297 170.3378753662109 197.1481628417969 169.8024291992188 198.4308776855469 169.0613250732422 L 198.4524993896484 169.0488433837891 C 199.3471984863281 168.5323028564453 200.26220703125 168.0002746582031 201.1470794677734 167.4857482910156 C 201.6365203857422 167.2011566162109 202.1319427490234 166.9130859375 202.6332702636719 166.6221771240234 C 202.1362762451172 166.2581481933594 201.6415557861328 165.8958587646484 201.1484680175781 165.5347900390625 C 198.9496002197266 163.9246063232422 196.87255859375 162.4036560058594 194.7503204345703 160.8406372070312 L 194.7503204345703 160.8406524658203 C 194.0076446533203 160.2969818115234 193.263916015625 159.7533111572266 192.5196228027344 159.2092132568359 C 189.8489227294922 157.2568817138672 187.0898284912109 155.2399291992188 184.3773040771484 153.2209320068359 C 181.2281188964844 155.0820922851562 177.9810638427734 156.9575347900391 174.7153015136719 158.8015289306641 C 175.3624420166016 164.2489929199219 175.9816741943359 169.7906494140625 176.5809020996094 175.1534271240234 C 176.7804870605469 176.9395599365234 176.9800720214844 178.7259674072266 177.1810455322266 180.5124359130859 C 177.2127685546875 180.7727661132812 177.2426910400391 181.0321807861328 177.2712860107422 181.2912750244141 C 177.7203369140625 181.0325622558594 178.1669158935547 180.7774047851562 178.6071166992188 180.5258941650391 C 179.8880615234375 179.7940521240234 181.2126159667969 179.0372619628906 182.4800415039062 178.2592315673828 C 182.9331359863281 177.9798126220703 183.5493927001953 177.6604919433594 184.3056793212891 177.6604919433594 C 184.9454650878906 177.6604919433594 185.5458984375 177.8907623291016 186.0421142578125 178.326416015625 C 186.3357086181641 178.5841674804688 186.5905456542969 178.9095306396484 186.8432769775391 179.3494262695312 L 186.9091949462891 179.4610290527344 C 187.5946350097656 180.6206512451172 188.1360473632812 181.5365905761719 187.8019561767578 182.7292633056641 C 187.4876861572266 183.8512115478516 186.6163635253906 184.3913421630859 185.4104156494141 185.1378936767578 C 184.0847625732422 185.9687957763672 182.7592315673828 186.7978973388672 181.4340667724609 187.6267547607422 C 178.0162963867188 189.7644653320312 174.482177734375 191.9749755859375 171.0226440429688 194.1703948974609 C 170.5139770507812 194.4952545166016 169.7223205566406 194.926513671875 168.7205200195312 194.9265747070312 L 168.7205352783203 194.9265747070312 Z M 136.7299957275391 191.9004211425781 L 105 173.5927124023438 L 105 137.6867065429688 L 115.2602005004883 137.6867065429688 L 115.2602005004883 167.6696014404297 L 141.8633575439453 183.0303039550781 L 136.7299957275391 191.9004211425781 Z M 201.2317810058594 191.5562438964844 L 196.0978393554688 182.6850738525391 L 222.1255950927734 167.6563110351562 L 222.1255950927734 137.6867065429688 L 232.3627624511719 137.6867065429688 L 232.3627624511719 173.5689239501953 L 201.2317810058594 191.5562438964844 Z M 232.3627624511719 136.4852142333984 L 222.1025543212891 136.4852142333984 L 222.1025543212891 105.9727630615234 L 196.3051147460938 91.07231140136719 L 201.4384460449219 82.20220947265625 L 232.3627624511719 100.0499877929688 L 232.3627624511719 136.4852142333984 Z M 115.2371826171875 136.4852142333984 L 105 136.4852142333984 L 105 100.0504302978516 L 136.4993743896484 81.85640716552734 L 141.6333465576172 90.72759246826172 L 115.2371826171875 105.9634246826172 L 115.2371826171875 136.4852142333984 Z M 195.2809600830078 90.47193145751953 L 168.6813812255859 75.11328887939453 L 142.6802215576172 90.126708984375 L 137.5462188720703 81.25548553466797 L 168.6813812255859 63.29096984863281 L 200.4149627685547 81.60073089599609 L 195.2809600830078 90.47193145751953 Z" stroke="none" fill="#b00"/>
      </g>
    </g>
  </g>
</svg>
