<svg xmlns="http://www.w3.org/2000/svg" xmlns:xlink="http://www.w3.org/1999/xlink" width="118" height="153" viewBox="0 0 118 153">
  <defs>
    <clipPath id="clip-esgrima-jedi-chile-blanco">
      <rect width="118" height="153"/>
    </clipPath>
  </defs>
  <g id="esgrima-jedi-chile-blanco" clip-path="url(#clip-esgrima-jedi-chile-blanco)">
    <g id="Grupo_60" data-name="Grupo 60" transform="translate(-112.104 383)">
      <g id="Grupo_1" data-name="Grupo 1" transform="translate(116.188 -271.468)">
        <path id="Trazado_1" data-name="Trazado 1" d="M449.915,1440.147v1.006q0,.634.559.633h6.892v2.459h-6.892q-3.166,0-3.166-3.092v-4.47q0-3.092,3.166-3.092h6.892v2.459h-6.892q-.558,0-.559.634v1.006h7.451v2.459Z" transform="translate(-447.307 -1433.583)" fill="#fff"/>
        <path id="Trazado_2" data-name="Trazado 2" d="M569.854,1437.688q3.167,0,3.167,3.092v.373q0,3.092-3.167,3.092h-6.892v-2.459h6.892q.559,0,.559-.633v-.373q0-.633-.559-.633h-3.725q-3.166,0-3.167-3.092v-.372q0-3.092,3.167-3.092h6.892v2.459h-6.892q-.559,0-.559.634v.372q0,.633.559.633Z" transform="translate(-551.785 -1433.583)" fill="#fff"/>
        <path id="Trazado_3" data-name="Trazado 3" d="M681.781,1444.245q-3.166,0-3.166-3.092v-4.47q0-3.092,3.166-3.092h6.892v2.459h-6.892q-.558,0-.559.634v4.47q0,.634.559.633h3.725q.559,0,.559-.633v-.261h-2.608v-2.459h5.216v2.72q0,3.092-3.167,3.092Z" transform="translate(-656.262 -1433.583)" fill="#fff"/>
        <path id="Trazado_4" data-name="Trazado 4" d="M801.729,1441.123v-.343q0-.633-.566-.633h-4.284v4.1h-2.608V1433.59h6.892q3.167,0,3.174,3.092v.372a4.167,4.167,0,0,0,0,3.725v.484h-.008v2.98h-2.608v-3.114Zm-4.858-3.434h4.292q.567,0,.566-.633v-.372q0-.633-.566-.634h-4.284Z" transform="translate(-760.742 -1433.583)" fill="#fff"/>
        <path id="Trazado_5" data-name="Trazado 5" d="M912.611,1444.245H910V1433.59h2.608Z" transform="translate(-865.289 -1433.583)" fill="#fff"/>
        <path id="Trazado_6" data-name="Trazado 6" d="M955.074,1433.992a3.5,3.5,0,0,1,1.862-.4h1.5q3.159,0,3.159,3.092v7.563h-2.608l.007-7.562q0-.633-.566-.634h-1.49q-.558,0-.559.634v7.563H953.77v-7.562q0-.633-.559-.634h-1.49q-.558,0-.559.634v7.563h-2.608V1433.59h2.608v.059a1.259,1.259,0,0,1,.559-.059h1.49A3.507,3.507,0,0,1,955.074,1433.992Z" transform="translate(-900.115 -1433.583)" fill="#fff"/>
        <path id="Trazado_7" data-name="Trazado 7" d="M1098.215,1433.59h3.725q3.167,0,3.167,3.092v7.563h-2.615v-2.235l-4.836.007v2.228h-2.608v-7.562Q1095.048,1433.59,1098.215,1433.59Zm-.559,3.092-.008,2.868h4.851v-2.868q0-.633-.559-.634h-3.725Q1097.656,1436.049,1097.656,1436.682Z" transform="translate(-1032.452 -1433.583)" fill="#fff"/>
        <path id="Trazado_8" data-name="Trazado 8" d="M1253.274,1433.514l2.608.007.007,7.563q0,3.092-3.167,3.092h-1.676v-2.459h1.669q.559,0,.559-.634Z" transform="translate(-1173.375 -1433.514)" fill="#fff"/>
        <path id="Trazado_9" data-name="Trazado 9" d="M1315.334,1440.147v1.006q0,.634.559.633h6.892v2.459h-6.892q-3.167,0-3.167-3.092v-4.47q0-3.092,3.167-3.092h6.892v2.459h-6.892q-.559,0-.559.634v1.006h7.451v2.459Z" transform="translate(-1229.095 -1433.583)" fill="#fff"/>
        <path id="Trazado_10" data-name="Trazado 10" d="M1428.382,1433.6l6.892-.007q3.167,0,3.174,3.092v4.47q0,3.092-3.167,3.092h-6.9Zm2.608,8.189h4.292q.558,0,.559-.633v-4.47q0-.633-.566-.634h-4.284Z" transform="translate(-1333.574 -1433.583)" fill="#fff"/>
        <path id="Trazado_11" data-name="Trazado 11" d="M1546.722,1444.245h-2.608V1433.59h2.608Z" transform="translate(-1438.122 -1433.583)" fill="#fff"/>
      </g>
      <g id="Grupo_2" data-name="Grupo 2" transform="translate(114.992 -258.116)">
        <path id="Trazado_12" data-name="Trazado 12" d="M459.844,1591.988v6.091H442.772q-7.844,0-7.844-7.659v-11.074q0-7.659,7.844-7.66h17.072v6.091H442.772q-1.384,0-1.384,1.569v11.074q0,1.569,1.384,1.568Z" transform="translate(-434.928 -1571.686)" fill="#fff"/>
        <path id="Trazado_13" data-name="Trazado 13" d="M739.859,1571.686l6.46.019v26.374h-6.46l.019-10.151H727.863v10.151H721.4v-26.392h6.46l-.019,10.151h12.034Z" transform="translate(-693.719 -1571.686)" fill="#fff"/>
        <path id="Trazado_14" data-name="Trazado 14" d="M1014.337,1598.078h-6.46v-26.392h6.46Z" transform="translate(-952.509 -1571.686)" fill="#fff"/>
        <path id="Trazado_15" data-name="Trazado 15" d="M1121.7,1591.988v6.091h-10.484q-7.844,0-7.844-7.659v-18.733h6.46v18.733q0,1.569,1.384,1.568Z" transform="translate(-1038.773 -1571.686)" fill="#fff"/>
        <path id="Trazado_16" data-name="Trazado 16" d="M1313.7,1587.928v2.492q0,1.569,1.384,1.568h17.072v6.091h-17.072q-7.844,0-7.844-7.659v-11.074q0-7.659,7.844-7.66h17.072v6.091h-17.072q-1.384,0-1.384,1.569v2.491h18.456v6.091Z" transform="translate(-1222.944 -1571.686)" fill="#fff"/>
      </g>
      <g id="Grupo_5" data-name="Grupo 5" transform="translate(116.188 -381)">
        <g id="Grupo_3" data-name="Grupo 3" transform="translate(29.92 0)">
          <path id="Trazado_17" data-name="Trazado 17" d="M668.161,320.337l1.3,6.374,6.374,1.3-6.374,1.3-1.3,6.374-1.3-6.374-6.374-1.3,6.374-1.3Z" transform="translate(-660.484 -307.889)" fill="#fff"/>
          <path id="Trazado_18" data-name="Trazado 18" d="M1143.514,320.337l1.3,6.374,6.374,1.3-6.374,1.3-1.3,6.374-1.3-6.374-6.374-1.3,6.374-1.3Z" transform="translate(-1100.004 -307.889)" fill="#fff"/>
          <path id="Trazado_19" data-name="Trazado 19" d="M869.351,155.207l1.807,8.844L880,165.859l-8.844,1.807-1.807,8.844-1.807-8.844-8.844-1.807,8.844-1.807Z" transform="translate(-843.757 -155.207)" fill="#fff"/>
        </g>
        <path id="Trazado_20" data-name="Trazado 20" d="M374.188,236.4a24.786,24.786,0,0,0-2.636-6.181c-.272-.474-.564-.935-.857-1.42-.094.029-.111.033-.127.04a.316.316,0,0,0-.047.028c-.015.01-.029.022-.043.033l-.041.037-.079.076-.039.038-20.84,20.722-.078.077-.078.077-.08.075a.467.467,0,0,1-.043.034.251.251,0,0,1-.046.029.132.132,0,0,1-.053.013.522.522,0,0,1-.094-.029c-.051-.121-.115-.267-.174-.416-.332-.831-.636-1.674-1-2.488a.711.711,0,0,1,.159-.908q5.05-5.485,10.077-10.991,6.906-7.539,13.81-15.081a2.945,2.945,0,0,0,.49-.719,7.468,7.468,0,0,0,.623-4.116,14.428,14.428,0,0,0-1.67-5.071,35.669,35.669,0,0,0-6.639-8.67,2.272,2.272,0,0,0-.221-.163l-22.573,36.834c-.581-.552-1.1-1.067-1.64-1.553-.558-.5-1.13-.985-1.718-1.448s-1.164-.884-1.769-1.294c-.62-.42-1.259-.812-1.9-1.2a13.627,13.627,0,0,0-1.87-.963q.315.256.619.517a28.549,28.549,0,0,1,11.533,23.17c0,15.516-11.885,28.094-26.547,28.094s-26.547-12.578-26.547-28.094a28.677,28.677,0,0,1,9.9-21.885,32.5,32.5,0,0,0-5.687,4.69L273.7,201.422c-.116.094-.191.145-.255.207a39.142,39.142,0,0,0-5.179,6.227,19.7,19.7,0,0,0-2.786,5.864,8.714,8.714,0,0,0-.067,4.708,4.191,4.191,0,0,0,.869,1.749q8.618,9.392,17.224,18.795,3.352,3.659,6.706,7.315a.632.632,0,0,1,.144.813c-.383.848-.7,1.725-1.046,2.59-.057.142-.129.278-.226.485l-3.622-3.606q-1.788-1.779-3.578-3.556l-3.578-3.555-3.617-3.595q-1.788-1.778-3.577-3.557c-1.185-1.176-2.36-2.362-3.579-3.544-.114.156-.187.238-.24.332-.556.986-1.144,1.957-1.655,2.966a19.135,19.135,0,0,0-1.93,5.628,7.4,7.4,0,0,0,.236,3.787,3.919,3.919,0,0,0,1.582,2.025q8.795,5.73,17.558,11.509c1.375.9,2.744,1.813,4.128,2.7a.739.739,0,0,1,.355.436q-.078,1.11-.078,2.241c0,.388.009.774.023,1.159l-.085.04-10.237-6.658-10.251-6.666a1.927,1.927,0,0,0-.136.255,18.12,18.12,0,0,0-.92,6.256,6.877,6.877,0,0,0,.609,2.654,3.7,3.7,0,0,0,2.029,1.956c6.233,2.514,12.451,5.063,18.674,7.6a3.3,3.3,0,0,1,1.094.5q.274,1.194.638,2.352c-.215-.069-.372-.117-.521-.174q-3.43-1.307-6.859-2.619-5.784-2.21-11.568-4.419c-.193-.074-.392-.129-.654-.215a11.974,11.974,0,0,0,1.413,5.719,5.97,5.97,0,0,0,.887,1.107,2.725,2.725,0,0,0,1.525.8c1.061.182,2.113.416,3.17.625q6.421,1.269,12.842,2.538a4.338,4.338,0,0,1,1.147.252q.478,1.051,1.03,2.059l-16.844-3.185a2.965,2.965,0,0,0,.082.4,12.332,12.332,0,0,0,1.7,3.117,5.6,5.6,0,0,0,1.425,1.352,2.933,2.933,0,0,0,1.6.488c1.5.008,3,.062,4.495.092q3.974.08,7.948.154c.347.007.695.018,1.041.044l.055.006q.487.723,1.012,1.418c-.231.014-.408.026-.584.028q-5.236.045-10.472.086c-.329,0-.658.01-.986.027a2.7,2.7,0,0,0-.4.088,12.813,12.813,0,0,0,2.42,2.61,10.894,10.894,0,0,0,1.476.934,2.3,2.3,0,0,0,1.6.2c1.181-.239,2.364-.47,3.546-.7,1.683-.334,3.366-.671,5.051-1,.06-.012.131-.023.2-.029q.627.689,1.3,1.338l-7.33,1.8c.024.095.023.135.043.158a.578.578,0,0,0,.124.106,12.073,12.073,0,0,0,2.788,1.39,3.172,3.172,0,0,0,2.592-.132c1.136-.582,2.327-1.058,3.5-1.567a1.635,1.635,0,0,1,.162-.06q.826.687,1.7,1.317l-2.261,1.2a6.891,6.891,0,0,0,3.547.688,1.259,1.259,0,0,0,.689-.285.91.91,0,0,1,.217-.156,31.579,31.579,0,0,0,32.578-.025.822.822,0,0,1,.164.109,1.439,1.439,0,0,0,.666.343,8.133,8.133,0,0,0,3.792-.612l-2.441-1.288q.87-.63,1.694-1.316a1.112,1.112,0,0,1,.274.09c1.276.59,2.57,1.142,3.849,1.726a2.234,2.234,0,0,0,1.387.154,10.026,10.026,0,0,0,3.718-1.676c.033-.022.038-.087.065-.155-2.443-.633-4.888-1.176-7.411-1.84q.641-.628,1.247-1.29a1.349,1.349,0,0,1,.44.028c2.79.571,5.587,1.108,8.38,1.668a2.614,2.614,0,0,0,1.759-.21,7.742,7.742,0,0,0,.989-.585,12.868,12.868,0,0,0,2.649-2.681,2.169,2.169,0,0,0,.147-.271,3.345,3.345,0,0,0-.4-.067q-.685-.022-1.37-.028-5.044-.043-10.088-.085c-.187,0-.377-.021-.615-.039q.484-.642.937-1.308a2.141,2.141,0,0,1,.848-.151c4.276-.061,8.551-.17,12.826-.242a2.7,2.7,0,0,0,1.638-.519,7.939,7.939,0,0,0,1.207-1.1,11.258,11.258,0,0,0,1.922-3.423,1.589,1.589,0,0,0,.041-.306l-16.931,3.2q.536-.978,1-2a1.046,1.046,0,0,1,.422-.169c5.644-1.1,11.283-2.231,16.925-3.341a2.764,2.764,0,0,0,1.138-.507,5.242,5.242,0,0,0,1.668-2.269,12.666,12.666,0,0,0,.926-4.538,1.217,1.217,0,0,0-.063-.274c-.227.078-.416.138-.6.209l-10.953,4.184q-3.736,1.427-7.474,2.849c-.161.061-.328.187-.545.094q.314-1.01.559-2.048a1.8,1.8,0,0,1,.863-.6c6.433-2.6,12.854-5.234,19.283-7.846a2.949,2.949,0,0,0,1.139-.824,3.961,3.961,0,0,0,.9-1.677,12.319,12.319,0,0,0,.354-2.154,17.876,17.876,0,0,0-.9-6.095,1.7,1.7,0,0,0-.14-.264l-1.587,1.026-1.609,1.045-1.562,1.017-1.609,1.045L363.3,253.41l-1.562,1.016-1.609,1.045-1.561,1.018-1.562,1.016-1.608,1.046-1.562,1.016c-.536.349-1.069.7-1.609,1.045a18.738,18.738,0,0,1-1.611,1c-.013-.237-.027-.378-.028-.519,0-.19,0-.381,0-.571,0-.047,0-.094,0-.142s0-.072,0-.109c0-.567,0-1.134-.03-1.7a.912.912,0,0,1,.482-.929q10.872-7.11,21.73-14.241a2.942,2.942,0,0,0,1.15-1.285,8.384,8.384,0,0,0,.55-1.653A9.079,9.079,0,0,0,374.188,236.4Z" transform="translate(-263.568 -197.938)" fill="#fff"/>
        <g id="Grupo_4" data-name="Grupo 4" transform="translate(41.01 32.645)">
          <path id="Trazado_21" data-name="Trazado 21" d="M822.1,588.259l-14.5,21.245,7.012,13.235,7.492-7.492,7.492,7.492L836.6,609.5Z" transform="translate(-807.592 -588.259)" fill="#fff"/>
          <path id="Trazado_22" data-name="Trazado 22" d="M925.361,984.18l-6.085,6.085,6.085,11.283,6.345-11.156Z" transform="translate(-910.857 -954.334)" fill="#fff"/>
        </g>
      </g>
    </g>
  </g>
</svg>
