<svg xmlns="http://www.w3.org/2000/svg" xmlns:xlink="http://www.w3.org/1999/xlink" width="380" height="124" viewBox="0 0 380 124">
  <defs>
    <clipPath id="clip-esgrimajedi-valparaiso-logo">
      <rect width="380" height="124"/>
    </clipPath>
  </defs>
  <g id="esgrimajedi-valparaiso-logo" clip-path="url(#clip-esgrimajedi-valparaiso-logo)">
    <g id="Grupo_57" data-name="Grupo 57" transform="translate(-112 -227.472)">
      <g id="Grupo_7" data-name="Grupo 7" transform="translate(38 176.218)">
        <g id="Grupo_1" data-name="Grupo 1" transform="translate(250.188 62.5)">
          <path id="Trazado_1" data-name="Trazado 1" d="M452.076,1445.582v1.839q0,1.159,1.022,1.158H465.7v4.5H453.1q-5.791,0-5.791-5.655v-8.176q0-5.656,5.791-5.656H465.7v4.5H453.1q-1.021,0-1.022,1.159v1.84H465.7v4.5Z" transform="translate(-447.307 -1433.576)" fill="#fff"/>
          <path id="Trazado_2" data-name="Trazado 2" d="M575.567,1441.085q5.792,0,5.792,5.655v.681q0,5.656-5.792,5.655h-12.6v-4.5h12.6q1.022,0,1.022-1.158v-.681q0-1.158-1.022-1.158h-6.813q-5.791,0-5.791-5.655v-.681q0-5.656,5.791-5.656h12.6v4.5h-12.6q-1.022,0-1.022,1.159v.681q0,1.158,1.022,1.158Z" transform="translate(-542.522 -1433.576)" fill="#fff"/>
          <path id="Trazado_3" data-name="Trazado 3" d="M684.406,1453.076q-5.791,0-5.791-5.655v-8.176q0-5.656,5.791-5.656h12.605v4.5H684.406q-1.021,0-1.021,1.159v8.176q0,1.159,1.021,1.158h6.813q1.022,0,1.022-1.158v-.477h-4.769v-4.5h9.539v4.974q0,5.656-5.792,5.655Z" transform="translate(-637.734 -1433.576)" fill="#fff"/>
          <path id="Trazado_4" data-name="Trazado 4" d="M807.911,1447.366v-.626q0-1.158-1.036-1.158H799.04v7.495h-4.769V1433.59h12.6q5.792,0,5.805,5.656v.681a7.62,7.62,0,0,0,0,6.813v.886h-.014v5.451H807.9v-5.7Zm-8.885-6.281h7.849q1.036,0,1.036-1.158v-.681q0-1.158-1.036-1.159H799.04Z" transform="translate(-732.95 -1433.576)" fill="#fff"/>
          <path id="Trazado_5" data-name="Trazado 5" d="M914.772,1453.076H910V1433.59h4.769Z" transform="translate(-828.227 -1433.576)" fill="#fff"/>
          <path id="Trazado_6" data-name="Trazado 6" d="M960.478,1434.326a6.409,6.409,0,0,1,3.406-.736h2.739q5.778,0,5.778,5.656v13.831h-4.769l.014-13.831q0-1.158-1.036-1.159h-2.726q-1.021,0-1.021,1.159v13.831h-4.769v-13.831q0-1.158-1.023-1.159h-2.725q-1.021,0-1.021,1.159v13.831h-4.77V1433.59h4.77v.109a2.3,2.3,0,0,1,1.021-.109h2.725A6.414,6.414,0,0,1,960.478,1434.326Z" transform="translate(-859.965 -1433.576)" fill="#fff"/>
          <path id="Trazado_7" data-name="Trazado 7" d="M1100.839,1433.59h6.813q5.792,0,5.792,5.656v13.831h-4.783v-4.087l-8.844.013v4.074h-4.77v-13.831Q1095.048,1433.59,1100.839,1433.59Zm-1.021,5.656-.014,5.246h8.871v-5.246q0-1.158-1.022-1.159h-6.813Q1099.818,1438.087,1099.818,1439.245Z" transform="translate(-980.568 -1433.576)" fill="#fff"/>
          <path id="Trazado_8" data-name="Trazado 8" d="M1255.12,1433.514l4.769.013.013,13.831q0,5.656-5.791,5.656h-3.066v-4.5h3.052q1.023,0,1.023-1.159Z" transform="translate(-1108.996 -1433.514)" fill="#fff"/>
          <path id="Trazado_9" data-name="Trazado 9" d="M1317.5,1445.582v1.839q0,1.159,1.021,1.158h12.605v4.5h-12.605q-5.791,0-5.791-5.655v-8.176q0-5.656,5.791-5.656h12.605v4.5h-12.605q-1.022,0-1.021,1.159v1.84h13.627v4.5Z" transform="translate(-1159.775 -1433.576)" fill="#fff"/>
          <path id="Trazado_10" data-name="Trazado 10" d="M1428.382,1433.6l12.6-.014q5.792,0,5.805,5.656v8.176q0,5.656-5.791,5.655h-12.618Zm4.769,14.976H1441q1.021,0,1.022-1.158v-8.176q0-1.158-1.036-1.159h-7.835Z" transform="translate(-1254.99 -1433.576)" fill="#fff"/>
          <path id="Trazado_11" data-name="Trazado 11" d="M1548.884,1453.076h-4.77V1433.59h4.77Z" transform="translate(-1350.268 -1433.576)" fill="#fff"/>
        </g>
        <g id="Grupo_2" data-name="Grupo 2" transform="translate(248 89.019)">
          <path id="Trazado_12" data-name="Trazado 12" d="M480.5,1608.815v11.139H449.274q-14.346,0-14.346-14.007v-20.253q0-14.007,14.346-14.008H480.5v11.139H449.274q-2.532,0-2.531,2.869v20.253q0,2.869,2.531,2.868Z" transform="translate(-434.928 -1571.686)" fill="#fff"/>
          <path id="Trazado_13" data-name="Trazado 13" d="M755.157,1571.686l11.814.035v48.234H755.157l.034-18.565H733.217v18.565H721.4v-48.268h11.814l-.034,18.565h22.008Z" transform="translate(-670.772 -1571.686)" fill="#fff"/>
          <path id="Trazado_14" data-name="Trazado 14" d="M1019.691,1619.954h-11.814v-48.268h11.814Z" transform="translate(-906.616 -1571.686)" fill="#fff"/>
          <path id="Trazado_15" data-name="Trazado 15" d="M1136.888,1608.815v11.139h-19.173q-14.346,0-14.346-14.007v-34.261h11.814v34.261q0,2.869,2.532,2.868Z" transform="translate(-985.231 -1571.686)" fill="#fff"/>
          <path id="Trazado_16" data-name="Trazado 16" d="M1319.056,1601.39v4.557q0,2.869,2.531,2.868h31.223v11.139h-31.223q-14.346,0-14.346-14.007v-20.253q0-14.007,14.346-14.008h31.223v11.139h-31.223q-2.532,0-2.531,2.869v4.557h33.754v11.139Z" transform="translate(-1153.072 -1571.686)" fill="#fff"/>
        </g>
      </g>
      <g id="Grupo_5" data-name="Grupo 5" transform="translate(117 230.472)">
        <g id="Grupo_3" data-name="Grupo 3" transform="translate(37.638 0)">
          <path id="Trazado_17" data-name="Trazado 17" d="M670.141,320.337l1.639,8.019,8.018,1.639-8.018,1.639-1.639,8.019-1.638-8.019-8.018-1.639,8.018-1.639Z" transform="translate(-660.484 -304.678)" fill="#fff"/>
          <path id="Trazado_18" data-name="Trazado 18" d="M1145.494,320.337l1.639,8.019,8.019,1.639-8.019,1.639-1.639,8.019-1.639-8.019-8.019-1.639,8.019-1.639Z" transform="translate(-1090.761 -304.678)" fill="#fff"/>
          <path id="Trazado_19" data-name="Trazado 19" d="M872.1,155.207l2.273,11.126,11.126,2.274-11.126,2.273L872.1,182.005l-2.274-11.126L858.7,168.606l11.126-2.274Z" transform="translate(-839.903 -155.207)" fill="#fff"/>
        </g>
        <path id="Trazado_20" data-name="Trazado 20" d="M402.721,245.427a31.18,31.18,0,0,0-3.316-7.775c-.342-.6-.709-1.177-1.078-1.787-.118.037-.14.041-.16.05a.4.4,0,0,0-.059.035c-.019.013-.037.027-.055.042s-.035.03-.051.046l-.1.1-.049.048L371.639,262.25l-.1.1-.1.1c-.033.032-.066.064-.1.095a.575.575,0,0,1-.054.043.314.314,0,0,1-.057.036.166.166,0,0,1-.066.017.656.656,0,0,1-.118-.036c-.064-.152-.144-.336-.219-.523-.417-1.045-.8-2.106-1.263-3.13a.894.894,0,0,1,.2-1.142q6.353-6.9,12.677-13.826,8.688-9.484,17.373-18.97a3.7,3.7,0,0,0,.616-.9,9.4,9.4,0,0,0,.784-5.178,18.151,18.151,0,0,0-2.1-6.38,44.868,44.868,0,0,0-8.352-10.906,2.848,2.848,0,0,0-.278-.205l-28.4,46.335c-.73-.694-1.38-1.342-2.063-1.953-.7-.628-1.421-1.239-2.161-1.821q-1.083-.852-2.225-1.628c-.78-.528-1.583-1.022-2.393-1.5a17.139,17.139,0,0,0-2.352-1.212q.4.322.779.651a35.913,35.913,0,0,1,14.508,29.147c0,19.518-14.951,35.34-33.394,35.34s-33.394-15.822-33.394-35.34a36.074,36.074,0,0,1,12.458-27.531,40.886,40.886,0,0,0-7.154,5.9l-28.387-46.4c-.146.118-.241.182-.321.261a49.234,49.234,0,0,0-6.515,7.834,24.783,24.783,0,0,0-3.5,7.377,10.963,10.963,0,0,0-.085,5.923,5.272,5.272,0,0,0,1.093,2.2q10.841,11.815,21.667,23.643,4.216,4.6,8.435,9.2a.8.8,0,0,1,.182,1.023c-.482,1.066-.88,2.17-1.316,3.258-.072.179-.162.349-.284.61-1.565-1.559-3.06-3.048-4.556-4.536s-3-2.982-4.5-4.473l-4.5-4.472-4.549-4.522q-2.25-2.237-4.5-4.475c-1.49-1.479-2.969-2.971-4.5-4.459-.143.2-.236.3-.3.417-.7,1.241-1.439,2.462-2.082,3.731a24.073,24.073,0,0,0-2.428,7.079,9.313,9.313,0,0,0,.3,4.764,4.93,4.93,0,0,0,1.99,2.548q11.063,7.209,22.087,14.477c1.729,1.135,3.452,2.28,5.193,3.4a.93.93,0,0,1,.447.548q-.1,1.4-.1,2.819c0,.488.012.974.029,1.458l-.107.051L280.7,268.728l-12.895-8.385a2.424,2.424,0,0,0-.171.321,22.794,22.794,0,0,0-1.157,7.87,8.651,8.651,0,0,0,.766,3.339,4.654,4.654,0,0,0,2.552,2.46c7.841,3.162,15.663,6.368,23.491,9.563a4.149,4.149,0,0,1,1.376.625q.345,1.5.8,2.959c-.271-.087-.468-.147-.655-.218q-4.315-1.644-8.628-3.294-7.275-2.78-14.551-5.559c-.242-.093-.494-.163-.823-.27a15.064,15.064,0,0,0,1.777,7.194,7.5,7.5,0,0,0,1.116,1.392,3.427,3.427,0,0,0,1.919,1.005c1.335.229,2.659.523,3.988.786q8.077,1.6,16.154,3.192a5.456,5.456,0,0,1,1.443.317q.6,1.322,1.3,2.59l-21.189-4.006a3.727,3.727,0,0,0,.1.5,15.515,15.515,0,0,0,2.137,3.921,7.051,7.051,0,0,0,1.792,1.7,3.69,3.69,0,0,0,2.009.614c1.885.01,3.769.078,5.654.116q5,.1,10,.193c.437.009.874.022,1.309.055l.069.007q.612.91,1.273,1.784c-.291.018-.513.033-.734.035q-6.587.057-13.173.108c-.414,0-.828.012-1.241.033a3.4,3.4,0,0,0-.5.111,16.114,16.114,0,0,0,3.045,3.283,13.709,13.709,0,0,0,1.857,1.175,2.892,2.892,0,0,0,2.012.246c1.486-.3,2.973-.591,4.46-.886,2.118-.42,4.234-.844,6.354-1.254.076-.015.164-.029.252-.037q.789.866,1.629,1.684l-9.22,2.266c.03.119.029.17.054.2a.727.727,0,0,0,.156.133,15.188,15.188,0,0,0,3.507,1.748,3.99,3.99,0,0,0,3.261-.166c1.429-.732,2.927-1.33,4.4-1.971a2.059,2.059,0,0,1,.2-.075q1.039.864,2.137,1.657l-2.844,1.515a8.67,8.67,0,0,0,4.462.866,1.583,1.583,0,0,0,.867-.359,1.146,1.146,0,0,1,.273-.2,39.725,39.725,0,0,0,40.982-.032,1.036,1.036,0,0,1,.207.137,1.811,1.811,0,0,0,.838.431,10.232,10.232,0,0,0,4.77-.77l-3.071-1.62q1.094-.793,2.131-1.656a1.4,1.4,0,0,1,.344.113c1.605.742,3.233,1.437,4.842,2.171a2.81,2.81,0,0,0,1.745.193,12.613,12.613,0,0,0,4.677-2.108c.042-.028.047-.109.082-.195-3.073-.8-6.149-1.479-9.323-2.315q.807-.79,1.569-1.622a1.7,1.7,0,0,1,.554.035c3.51.718,7.028,1.394,10.541,2.1a3.288,3.288,0,0,0,2.212-.265,9.731,9.731,0,0,0,1.244-.735,16.189,16.189,0,0,0,3.332-3.373,2.72,2.72,0,0,0,.185-.341,4.206,4.206,0,0,0-.509-.084q-.862-.028-1.724-.035-6.345-.054-12.69-.107c-.235,0-.474-.026-.774-.049q.609-.807,1.179-1.645a2.692,2.692,0,0,1,1.067-.19c5.379-.077,10.756-.214,16.135-.3a3.4,3.4,0,0,0,2.061-.653,9.986,9.986,0,0,0,1.519-1.389,14.164,14.164,0,0,0,2.418-4.306,1.993,1.993,0,0,0,.052-.386l-21.3,4.029q.674-1.23,1.261-2.511a1.317,1.317,0,0,1,.531-.213c7.1-1.389,14.193-2.806,21.291-4.2a3.477,3.477,0,0,0,1.431-.637,6.6,6.6,0,0,0,2.1-2.854,15.933,15.933,0,0,0,1.165-5.709,1.535,1.535,0,0,0-.08-.345c-.285.1-.524.174-.757.262q-6.889,2.63-13.778,5.263-4.7,1.8-9.4,3.584c-.2.077-.413.235-.685.118q.395-1.27.7-2.576a2.265,2.265,0,0,1,1.085-.749c8.092-3.274,16.17-6.584,24.257-9.869a3.707,3.707,0,0,0,1.432-1.037,4.982,4.982,0,0,0,1.131-2.109,15.5,15.5,0,0,0,.446-2.71,22.489,22.489,0,0,0-1.131-7.667,2.148,2.148,0,0,0-.176-.332c-.69.446-1.344.867-2,1.29q-1.012.656-2.024,1.315l-1.965,1.279-2.024,1.315-1.965,1.279-1.965,1.278-2.024,1.314q-.983.639-1.964,1.281l-1.965,1.278-2.023,1.315-1.965,1.279c-.674.439-1.344.884-2.024,1.314a23.572,23.572,0,0,1-2.026,1.264c-.017-.3-.033-.475-.035-.652,0-.239,0-.479,0-.718,0-.06,0-.119,0-.178s0-.091,0-.137c0-.713,0-1.426-.038-2.137a1.147,1.147,0,0,1,.606-1.169q13.676-8.945,27.335-17.915a3.7,3.7,0,0,0,1.447-1.617,10.545,10.545,0,0,0,.692-2.08A11.42,11.42,0,0,0,402.721,245.427Z" transform="translate(-263.568 -197.04)" fill="#fff"/>
        <g id="Grupo_4" data-name="Grupo 4" transform="translate(51.588 41.065)">
          <path id="Trazado_21" data-name="Trazado 21" d="M825.837,588.26l-18.246,26.725,8.821,16.649,9.425-9.425,9.425,9.425,8.821-16.649Z" transform="translate(-807.592 -588.26)" fill="#fff"/>
          <path id="Trazado_22" data-name="Trazado 22" d="M926.931,984.18l-7.655,7.655,7.655,14.193,7.982-14.033Z" transform="translate(-908.686 -946.636)" fill="#fff"/>
        </g>
      </g>
      <path id="Trazado_123" data-name="Trazado 123" d="M12.427-17.847h3.821L10.181,0H6.055L0-17.847H3.821L7.178-7.227q.281.94.58,2.191T8.13-3.3a31.268,31.268,0,0,1,.916-3.931ZM30.044,0,28.75-4.248H22.244L20.95,0H16.873l6.3-17.92H27.8L34.121,0Zm-2.2-7.422q-1.794-5.774-2.02-6.531t-.323-1.2q-.4,1.563-2.307,7.727ZM36.992,0V-17.847h3.784V-3.125h7.239V0ZM55.525-9.448H56.77a4.147,4.147,0,0,0,2.612-.69,2.414,2.414,0,0,0,.867-2.008,2.475,2.475,0,0,0-.726-1.965,3.4,3.4,0,0,0-2.277-.635H55.525ZM64.07-12.28a5.455,5.455,0,0,1-1.8,4.407,7.7,7.7,0,0,1-5.121,1.526H55.525V0H51.741V-17.847h5.7a7.582,7.582,0,0,1,4.938,1.4A5.1,5.1,0,0,1,64.07-12.28ZM78.989,0,77.7-4.248H71.189L69.9,0H65.818l6.3-17.92h4.626L83.066,0Zm-2.2-7.422Q75-13.2,74.772-13.953t-.323-1.2q-.4,1.563-2.307,7.727Zm12.93-2.5h1.221a4.67,4.67,0,0,0,2.649-.6,2.135,2.135,0,0,0,.854-1.88,1.953,1.953,0,0,0-.873-1.807,5.3,5.3,0,0,0-2.7-.537H89.722Zm0,3.076V0H85.938V-17.847h5.2a8.9,8.9,0,0,1,5.383,1.324A4.727,4.727,0,0,1,98.267-12.5,4.735,4.735,0,0,1,97.4-9.7a5.735,5.735,0,0,1-2.454,1.923Q98.975-1.758,100.2,0H96l-4.26-6.848ZM113.992,0,112.7-4.248h-6.506L104.9,0H100.82l6.3-17.92h4.626L118.069,0Zm-2.2-7.422Q110-13.2,109.774-13.953t-.323-1.2q-.4,1.563-2.307,7.727ZM120.94,0V-17.847h3.784V0Zm19.436-4.956a4.613,4.613,0,0,1-1.74,3.809A7.556,7.556,0,0,1,133.8.244,11.367,11.367,0,0,1,128.743-.83V-4.346A20.826,20.826,0,0,0,131.8-3.21a9.048,9.048,0,0,0,2.289.33A3.254,3.254,0,0,0,136-3.357a1.628,1.628,0,0,0,.665-1.416,1.563,1.563,0,0,0-.293-.934,3.278,3.278,0,0,0-.861-.787A22.133,22.133,0,0,0,133.2-7.7a10.964,10.964,0,0,1-2.454-1.477,5.545,5.545,0,0,1-1.306-1.648,4.7,4.7,0,0,1-.488-2.2,4.612,4.612,0,0,1,1.605-3.723,6.67,6.67,0,0,1,4.437-1.355,10.478,10.478,0,0,1,2.655.33,18.25,18.25,0,0,1,2.643.928L139.07-13.9a17.86,17.86,0,0,0-2.362-.818,7.6,7.6,0,0,0-1.837-.232,2.433,2.433,0,0,0-1.648.5,1.651,1.651,0,0,0-.574,1.306,1.617,1.617,0,0,0,.232.873,2.55,2.55,0,0,0,.739.72,22.833,22.833,0,0,0,2.4,1.251,9.544,9.544,0,0,1,3.43,2.4A4.681,4.681,0,0,1,140.376-4.956Zm20.059-3.992q0,4.431-2.2,6.812a8.146,8.146,0,0,1-6.3,2.38,8.146,8.146,0,0,1-6.3-2.38q-2.2-2.38-2.2-6.836t2.2-6.805a8.24,8.24,0,0,1,6.317-2.35,8.125,8.125,0,0,1,6.293,2.368Q160.435-13.391,160.435-8.948Zm-13.025,0a7.455,7.455,0,0,0,1.135,4.5,3.972,3.972,0,0,0,3.394,1.514q4.529,0,4.529-6.018t-4.5-6.03a4,4,0,0,0-3.406,1.52A7.424,7.424,0,0,0,147.41-8.948Z" transform="translate(305 341.718)" fill="#cfb058"/>
    </g>
  </g>
</svg>
