<svg xmlns="http://www.w3.org/2000/svg" xmlns:xlink="http://www.w3.org/1999/xlink" width="80" height="70" viewBox="0 0 80 70">
  <defs>
    <clipPath id="clip-esgrima-logo">
      <rect width="80" height="70"/>
    </clipPath>
  </defs>
  <g id="esgrima-logo" clip-path="url(#clip-esgrima-logo)">
    <g id="Grupo_55" data-name="Grupo 55" transform="translate(-115 -267.947)">
      <g id="Grupo_5" data-name="Grupo 5" transform="translate(117 270.947)">
        <g id="Grupo_3" data-name="Grupo 3" transform="translate(20.481 0)">
          <path id="Trazado_17" data-name="Trazado 17" d="M665.739,320.337l.892,4.363,4.363.892-4.363.892-.892,4.363-.892-4.363-4.363-.892,4.363-.892Z" transform="translate(-660.484 -311.816)" fill="#fff"/>
          <path id="Trazado_18" data-name="Trazado 18" d="M1141.092,320.337l.892,4.363,4.363.892-4.363.892-.892,4.363-.892-4.363-4.363-.892,4.363-.892Z" transform="translate(-1111.309 -311.816)" fill="#fff"/>
          <path id="Trazado_19" data-name="Trazado 19" d="M865.99,155.207l1.237,6.054,6.054,1.237-6.054,1.237-1.237,6.054-1.237-6.054L858.7,162.5l6.054-1.237Z" transform="translate(-848.471 -155.207)" fill="#fff"/>
        </g>
        <path id="Trazado_20" data-name="Trazado 20" d="M339.289,225.368a16.966,16.966,0,0,0-1.8-4.231c-.186-.324-.386-.64-.587-.972-.064.02-.076.022-.087.027a.22.22,0,0,0-.032.019l-.03.023-.028.025-.054.052-.027.026-14.265,14.185-.053.053-.054.052-.055.052a.322.322,0,0,1-.029.024.17.17,0,0,1-.031.02.09.09,0,0,1-.036.009.363.363,0,0,1-.064-.02c-.035-.083-.078-.183-.119-.285-.227-.569-.436-1.146-.687-1.7a.486.486,0,0,1,.108-.621q3.457-3.754,6.9-7.524,4.727-5.161,9.453-10.323a2.017,2.017,0,0,0,.335-.492,5.112,5.112,0,0,0,.426-2.818,9.878,9.878,0,0,0-1.143-3.471,24.416,24.416,0,0,0-4.545-5.935,1.567,1.567,0,0,0-.151-.112l-15.452,25.214c-.4-.378-.751-.73-1.123-1.063s-.773-.674-1.176-.991-.8-.605-1.211-.886-.862-.556-1.3-.819a9.329,9.329,0,0,0-1.28-.659q.216.175.424.354a19.542,19.542,0,0,1,7.895,15.86c0,10.621-8.136,19.231-18.172,19.231s-18.171-8.61-18.171-19.231a19.63,19.63,0,0,1,6.779-14.981,22.247,22.247,0,0,0-3.893,3.211L270.5,201.422c-.08.064-.131.1-.175.142a26.792,26.792,0,0,0-3.545,4.263,13.485,13.485,0,0,0-1.907,4.014,5.965,5.965,0,0,0-.046,3.223,2.868,2.868,0,0,0,.595,1.2q5.9,6.429,11.79,12.865,2.294,2.5,4.59,5.007a.433.433,0,0,1,.1.557c-.263.58-.479,1.181-.716,1.773-.039.1-.088.19-.155.332l-2.479-2.468-2.449-2.434-2.449-2.434L271.178,225q-1.224-1.217-2.448-2.435c-.811-.8-1.615-1.617-2.45-2.426-.078.107-.128.163-.164.227-.381.675-.783,1.339-1.133,2.03a13.1,13.1,0,0,0-1.321,3.852,5.068,5.068,0,0,0,.162,2.592,2.683,2.683,0,0,0,1.083,1.386q6.02,3.923,12.019,7.878c.941.618,1.879,1.241,2.826,1.849a.506.506,0,0,1,.243.3q-.053.76-.054,1.534c0,.266.007.53.016.793l-.058.028-7.007-4.557-7.017-4.563a1.326,1.326,0,0,0-.093.175,12.4,12.4,0,0,0-.63,4.283,4.706,4.706,0,0,0,.417,1.817,2.532,2.532,0,0,0,1.389,1.339c4.266,1.721,8.523,3.465,12.783,5.2a2.259,2.259,0,0,1,.749.34q.188.817.437,1.61c-.147-.047-.254-.08-.356-.119q-2.348-.895-4.695-1.792l-7.918-3.025c-.132-.05-.269-.089-.448-.147a8.2,8.2,0,0,0,.967,3.914,4.087,4.087,0,0,0,.607.757,1.865,1.865,0,0,0,1.044.547c.726.125,1.447.285,2.17.428q4.4.869,8.79,1.737a2.969,2.969,0,0,1,.785.173q.327.719.705,1.409l-11.53-2.18a2.022,2.022,0,0,0,.056.271,8.44,8.44,0,0,0,1.163,2.134,3.838,3.838,0,0,0,.975.925,2.007,2.007,0,0,0,1.093.334c1.026.006,2.051.042,3.077.063q2.72.055,5.441.105c.238,0,.475.012.712.03l.038,0q.333.5.693.971c-.158.01-.279.018-.4.019l-7.168.059c-.225,0-.45.007-.675.018a1.851,1.851,0,0,0-.271.06,8.77,8.77,0,0,0,1.657,1.786,7.453,7.453,0,0,0,1.011.639,1.573,1.573,0,0,0,1.1.134c.808-.163,1.618-.321,2.427-.482,1.152-.228,2.3-.459,3.458-.682.041-.008.089-.016.137-.02q.429.471.887.916l-5.017,1.233c.016.065.016.092.029.108a.4.4,0,0,0,.085.072,8.265,8.265,0,0,0,1.908.951,2.171,2.171,0,0,0,1.774-.09c.778-.4,1.593-.724,2.4-1.072a1.106,1.106,0,0,1,.111-.041q.565.47,1.163.9l-1.548.824a4.717,4.717,0,0,0,2.428.471.862.862,0,0,0,.472-.2.622.622,0,0,1,.149-.107,21.617,21.617,0,0,0,22.3-.017.563.563,0,0,1,.112.075.986.986,0,0,0,.456.235,5.568,5.568,0,0,0,2.6-.419l-1.671-.882q.6-.431,1.16-.9a.763.763,0,0,1,.187.062c.874.4,1.759.782,2.635,1.181a1.53,1.53,0,0,0,.949.105,6.863,6.863,0,0,0,2.545-1.147c.023-.015.026-.059.045-.106-1.672-.433-3.346-.8-5.073-1.259q.439-.43.854-.883a.923.923,0,0,1,.3.019c1.91.391,3.824.758,5.736,1.141a1.789,1.789,0,0,0,1.2-.144,5.29,5.29,0,0,0,.677-.4,8.811,8.811,0,0,0,1.813-1.835,1.489,1.489,0,0,0,.1-.186,2.29,2.29,0,0,0-.277-.046q-.469-.015-.938-.019-3.453-.029-6.905-.058c-.128,0-.258-.014-.421-.027q.332-.439.641-.9a1.465,1.465,0,0,1,.58-.1c2.927-.042,5.853-.116,8.78-.165a1.848,1.848,0,0,0,1.122-.355,5.435,5.435,0,0,0,.827-.756,7.709,7.709,0,0,0,1.316-2.343,1.087,1.087,0,0,0,.028-.21l-11.589,2.192q.367-.669.686-1.367a.717.717,0,0,1,.289-.116c3.863-.756,7.723-1.527,11.586-2.287a1.892,1.892,0,0,0,.779-.347,3.588,3.588,0,0,0,1.142-1.553,8.67,8.67,0,0,0,.634-3.106.833.833,0,0,0-.043-.188c-.155.054-.285.094-.412.143l-7.5,2.864q-2.557.977-5.116,1.95c-.11.042-.225.128-.373.064q.215-.691.383-1.4a1.233,1.233,0,0,1,.591-.408c4.4-1.782,8.8-3.583,13.2-5.37a2.018,2.018,0,0,0,.779-.564,2.711,2.711,0,0,0,.616-1.148,8.424,8.424,0,0,0,.243-1.475,12.236,12.236,0,0,0-.616-4.172,1.162,1.162,0,0,0-.1-.181l-1.086.7-1.1.715-1.069.7-1.1.715-1.069.7-1.069.7-1.1.715-1.069.7-1.069.7-1.1.716-1.069.7c-.367.239-.732.481-1.1.715a12.827,12.827,0,0,1-1.1.688c-.009-.162-.018-.258-.019-.355,0-.13,0-.261,0-.391,0-.032,0-.065,0-.1s0-.05,0-.074c0-.388,0-.776-.02-1.163a.624.624,0,0,1,.33-.636q7.442-4.867,14.874-9.748a2.014,2.014,0,0,0,.788-.88,5.74,5.74,0,0,0,.376-1.132A6.214,6.214,0,0,0,339.289,225.368Z" transform="translate(-263.568 -199.037)" fill="#fff"/>
        <g id="Grupo_4" data-name="Grupo 4" transform="translate(28.072 22.346)">
          <path id="Trazado_21" data-name="Trazado 21" d="M817.52,588.26,807.592,602.8l4.8,9.059,5.129-5.129,5.128,5.129,4.8-9.059Z" transform="translate(-807.592 -588.26)" fill="#fff"/>
          <path id="Trazado_22" data-name="Trazado 22" d="M923.442,984.18l-4.166,4.165,4.166,7.723,4.343-7.636Z" transform="translate(-913.513 -963.75)" fill="#fff"/>
        </g>
      </g>
    </g>
  </g>
</svg>
