<svg xmlns="http://www.w3.org/2000/svg" xmlns:xlink="http://www.w3.org/1999/xlink" width="46" height="39" viewBox="0 0 46 39">
  <defs>
    <clipPath id="clip-rango-ejemplo">
      <rect width="46" height="39"/>
    </clipPath>
  </defs>
  <g id="rango-ejemplo" clip-path="url(#clip-rango-ejemplo)">
    <g id="Grupo_59" data-name="Grupo 59" transform="translate(1 0.748)">
      <g id="Grupo_3" data-name="Grupo 3" transform="translate(11.857 0)">
        <path id="Trazado_17" data-name="Trazado 17" d="M663.527,320.337l.516,2.526,2.526.516-2.526.516-.516,2.526-.516-2.526-2.526-.516,2.526-.516Z" transform="translate(-660.484 -315.404)" fill="#cdb057"/>
        <path id="Trazado_18" data-name="Trazado 18" d="M1138.879,320.337l.516,2.526,2.526.516-2.526.516-.516,2.526-.516-2.526-2.526-.516,2.526-.516Z" transform="translate(-1121.636 -315.404)" fill="#cdb057"/>
        <path id="Trazado_19" data-name="Trazado 19" d="M862.92,155.207l.716,3.5,3.505.716-3.505.716-.716,3.5-.716-3.5-3.505-.716,3.505-.716Z" transform="translate(-852.778 -155.207)" fill="#cdb057"/>
      </g>
      <path id="Trazado_20" data-name="Trazado 20" d="M307.406,215.285a9.821,9.821,0,0,0-1.045-2.449c-.108-.188-.223-.371-.34-.563l-.05.016-.019.011-.017.013-.016.014-.031.03-.016.015-8.259,8.212-.031.031-.031.03-.032.03-.017.014a.1.1,0,0,1-.018.011.053.053,0,0,1-.021.005.212.212,0,0,1-.037-.011c-.02-.048-.045-.106-.069-.165-.131-.329-.252-.663-.4-.986a.282.282,0,0,1,.063-.36q2-2.174,3.994-4.356,2.737-2.988,5.473-5.976a1.169,1.169,0,0,0,.194-.285,2.96,2.96,0,0,0,.247-1.631,5.719,5.719,0,0,0-.662-2.01,14.137,14.137,0,0,0-2.631-3.436.9.9,0,0,0-.087-.065l-8.946,14.6c-.23-.219-.435-.423-.65-.615s-.448-.39-.681-.574-.461-.35-.7-.513-.5-.322-.754-.474a5.4,5.4,0,0,0-.741-.382q.125.1.245.2a11.314,11.314,0,0,1,4.571,9.182c0,6.149-4.71,11.134-10.52,11.134s-10.52-4.985-10.52-11.134a11.365,11.365,0,0,1,3.925-8.673,12.879,12.879,0,0,0-2.254,1.859l-8.943-14.616c-.046.037-.076.057-.1.082a15.507,15.507,0,0,0-2.052,2.468,7.807,7.807,0,0,0-1.1,2.324,3.454,3.454,0,0,0-.027,1.866,1.66,1.66,0,0,0,.344.693q3.415,3.722,6.826,7.448,1.328,1.45,2.657,2.9a.25.25,0,0,1,.057.322c-.152.336-.277.684-.415,1.026-.023.056-.051.11-.09.192l-1.435-1.429-1.418-1.409-1.418-1.409-1.433-1.425-1.417-1.41c-.469-.466-.935-.936-1.419-1.4-.045.062-.074.094-.1.131-.22.391-.453.775-.656,1.175a7.583,7.583,0,0,0-.765,2.23,2.933,2.933,0,0,0,.094,1.5,1.553,1.553,0,0,0,.627.8q3.485,2.271,6.958,4.561c.545.358,1.088.718,1.636,1.07a.293.293,0,0,1,.141.173q-.031.44-.031.888c0,.154,0,.307.009.459l-.034.016-4.057-2.639-4.062-2.642a.766.766,0,0,0-.054.1,7.182,7.182,0,0,0-.365,2.479,2.726,2.726,0,0,0,.241,1.052,1.466,1.466,0,0,0,.8.775c2.47,1,4.935,2.006,7.4,3.013a1.307,1.307,0,0,1,.433.2q.109.473.253.932c-.085-.027-.147-.046-.206-.069l-2.718-1.038-4.584-1.751c-.076-.029-.156-.051-.259-.085a4.745,4.745,0,0,0,.56,2.266,2.362,2.362,0,0,0,.352.439,1.08,1.08,0,0,0,.6.317c.421.072.838.165,1.256.248l5.089,1.006a1.72,1.72,0,0,1,.454.1q.19.416.408.816l-6.675-1.262a1.166,1.166,0,0,0,.033.157,4.885,4.885,0,0,0,.673,1.235,2.222,2.222,0,0,0,.565.536,1.163,1.163,0,0,0,.633.193c.594,0,1.187.024,1.781.036l3.15.061c.138,0,.275.007.412.017l.022,0q.193.287.4.562c-.092.006-.162.01-.231.011l-4.15.034c-.13,0-.261,0-.391.01a1.072,1.072,0,0,0-.157.035,5.078,5.078,0,0,0,.959,1.034,4.32,4.32,0,0,0,.585.37.911.911,0,0,0,.634.077c.468-.095.937-.186,1.405-.279.667-.132,1.334-.266,2-.395.024,0,.052-.009.079-.012q.249.273.513.53l-2.9.714c.009.037.009.053.017.063a.228.228,0,0,0,.049.042,4.783,4.783,0,0,0,1.1.551,1.257,1.257,0,0,0,1.027-.052c.45-.231.922-.419,1.387-.621a.654.654,0,0,1,.064-.024q.327.272.673.522l-.9.477a2.731,2.731,0,0,0,1.406.273.5.5,0,0,0,.273-.113.36.36,0,0,1,.086-.062,12.515,12.515,0,0,0,12.911-.01.326.326,0,0,1,.065.043.571.571,0,0,0,.264.136,3.224,3.224,0,0,0,1.5-.243l-.968-.51q.345-.25.671-.522a.441.441,0,0,1,.108.036c.506.234,1.018.453,1.525.684a.886.886,0,0,0,.55.061,3.974,3.974,0,0,0,1.473-.664c.013-.009.015-.034.026-.061-.968-.251-1.937-.466-2.937-.729q.254-.249.494-.511a.534.534,0,0,1,.175.011c1.106.226,2.214.439,3.321.661a1.036,1.036,0,0,0,.7-.083,3.072,3.072,0,0,0,.392-.232,5.1,5.1,0,0,0,1.05-1.062.861.861,0,0,0,.058-.107,1.322,1.322,0,0,0-.16-.027q-.271-.009-.543-.011l-4-.034c-.074,0-.149-.008-.244-.016q.192-.254.371-.518a.848.848,0,0,1,.336-.06c1.694-.024,3.389-.067,5.083-.1a1.07,1.07,0,0,0,.649-.206,3.147,3.147,0,0,0,.479-.438,4.462,4.462,0,0,0,.762-1.357.629.629,0,0,0,.016-.121l-6.71,1.269q.212-.387.4-.791a.415.415,0,0,1,.167-.067c2.237-.438,4.471-.884,6.707-1.324a1.1,1.1,0,0,0,.451-.2,2.077,2.077,0,0,0,.661-.9,5.019,5.019,0,0,0,.367-1.8.481.481,0,0,0-.025-.109c-.09.031-.165.055-.238.083l-4.34,1.658q-1.481.566-2.962,1.129c-.064.024-.13.074-.216.037q.124-.4.222-.812a.714.714,0,0,1,.342-.236c2.549-1.032,5.094-2.074,7.642-3.109a1.168,1.168,0,0,0,.451-.327,1.57,1.57,0,0,0,.356-.664,4.884,4.884,0,0,0,.14-.854,7.085,7.085,0,0,0-.356-2.415.678.678,0,0,0-.055-.1l-.629.406-.638.414-.619.4-.638.414-.619.4-.619.4-.638.414-.619.4-.619.4-.637.414-.619.4c-.212.138-.424.279-.638.414a7.422,7.422,0,0,1-.638.4c-.005-.094-.01-.15-.011-.206,0-.075,0-.151,0-.226,0-.019,0-.037,0-.056s0-.029,0-.043c0-.225,0-.449-.012-.673a.361.361,0,0,1,.191-.368q4.308-2.818,8.611-5.644a1.166,1.166,0,0,0,.456-.509,3.323,3.323,0,0,0,.218-.655A3.6,3.6,0,0,0,307.406,215.285Z" transform="translate(-263.568 -200.041)" fill="#cdb057"/>
      <g id="Grupo_4" data-name="Grupo 4" transform="translate(16.252 12.937)">
        <path id="Trazado_21" data-name="Trazado 21" d="M813.34,588.26l-5.748,8.419,2.779,5.245,2.969-2.969,2.969,2.969,2.779-5.245Z" transform="translate(-807.592 -588.26)" fill="#cdb057"/>
        <path id="Trazado_22" data-name="Trazado 22" d="M921.688,984.18l-2.412,2.411,2.412,4.471,2.515-4.421Z" transform="translate(-915.94 -972.352)" fill="#cdb057"/>
      </g>
    </g>
  </g>
</svg>
