<svg xmlns="http://www.w3.org/2000/svg" xmlns:xlink="http://www.w3.org/1999/xlink" width="47" height="44" viewBox="0 0 47 44">
  <defs>
    <clipPath id="clip-rango">
      <rect width="47" height="44"/>
    </clipPath>
  </defs>
  <g id="rango" clip-path="url(#clip-rango)">
    <path id="diversity_2_FILL0_wght200_GRAD0_opsz48" d="M18.454,44.086a6.226,6.226,0,0,1-4.182-1.53,6.877,6.877,0,0,1-2.3-3.825,4.917,4.917,0,0,1-1.734,1.76,4.6,4.6,0,0,1-2.4.638A4.638,4.638,0,0,1,4.4,39.7a4.991,4.991,0,0,1-.026-6.911,4.34,4.34,0,0,1,3.468-1.3A7.1,7.1,0,0,1,6.06,29.117,6.673,6.673,0,0,1,5.4,26.235a6.363,6.363,0,0,1,.791-3.086,6.206,6.206,0,0,1,2.321-2.372q.153.357.357.74t.357.689A5.164,5.164,0,0,0,7.59,24.068a4.826,4.826,0,0,0-.561,2.219q0,3.315,2.4,4.259a28.685,28.685,0,0,0,5,1.454l.255.561q-.612,1.632-.944,2.78a7.669,7.669,0,0,0-.332,2.117A4.891,4.891,0,0,0,14.884,41a4.824,4.824,0,0,0,3.57,1.5A4.647,4.647,0,0,0,22.1,40.848a13.244,13.244,0,0,0,2.346-3.927,29.06,29.06,0,0,0,1.4-4.718q.51-2.448.867-3.978l1.53.459q-.408,1.938-.969,4.59a26.108,26.108,0,0,1-1.607,5.049,12.667,12.667,0,0,1-2.78,4.08,6.107,6.107,0,0,1-4.437,1.683ZM7.9,39.547a3.112,3.112,0,0,0,2.321-.969,3.24,3.24,0,0,0,.944-2.346,3.179,3.179,0,0,0-.944-2.3A3.112,3.112,0,0,0,7.9,32.968a3.2,3.2,0,0,0-2.346.969,3.137,3.137,0,0,0-.969,2.3A3.309,3.309,0,0,0,7.9,39.547Zm12.751-9.13q-2.04-1.887-3.723-3.468a32.572,32.572,0,0,1-2.933-3.111,13.129,13.129,0,0,1-1.913-3.06,8,8,0,0,1-.663-3.213,6.531,6.531,0,0,1,6.579-6.579,9.672,9.672,0,0,1,1.25.077,5.612,5.612,0,0,1,1.046.23,5.893,5.893,0,0,1-.536-1.173A3.683,3.683,0,0,1,19.576,9a4.766,4.766,0,0,1,1.4-3.468,4.864,4.864,0,0,1,6.885,0A4.766,4.766,0,0,1,29.266,9a3.683,3.683,0,0,1-.179,1.122,5.893,5.893,0,0,1-.536,1.173,5.612,5.612,0,0,1,1.046-.23,9.672,9.672,0,0,1,1.25-.077,6.272,6.272,0,0,1,6.171,4.539A4.179,4.179,0,0,0,36.2,15.5q-.459.026-.816.077a4.418,4.418,0,0,0-1.734-2.193,4.94,4.94,0,0,0-2.805-.816,4.73,4.73,0,0,0-3.111.969,27.978,27.978,0,0,0-3.06,3.162h-.561a24.705,24.705,0,0,0-3.06-3.188,4.733,4.733,0,0,0-3.06-.944,4.929,4.929,0,0,0-3.6,1.428,4.8,4.8,0,0,0-1.454,3.57,5.749,5.749,0,0,0,.612,2.5,14.223,14.223,0,0,0,1.76,2.7A35.689,35.689,0,0,0,18.1,25.8q1.632,1.607,3.723,3.443ZM24.421,12.26a3.24,3.24,0,0,0,2.346-.944A3.112,3.112,0,0,0,27.736,9a3.315,3.315,0,1,0-6.63,0,3.112,3.112,0,0,0,.969,2.321A3.24,3.24,0,0,0,24.421,12.26Zm5.865,31.877a5.869,5.869,0,0,1-1.428-.179,5.928,5.928,0,0,1-1.377-.536q.153-.306.383-.714a8.007,8.007,0,0,0,.383-.765,6.052,6.052,0,0,0,1.046.408,3.972,3.972,0,0,0,1.1.153,5.14,5.14,0,0,0,5.049-5.049,6.506,6.506,0,0,0-.383-2.091q-.383-1.122-.893-2.754l.255-.51a26.247,26.247,0,0,0,5.075-1.479q2.372-.969,2.372-4.284a4.37,4.37,0,0,0-1.811-3.825,6.958,6.958,0,0,0-4.106-1.275,20.464,20.464,0,0,0-4.82.689q-2.78.689-6.4,1.913l-.408-1.581q3.468-1.122,6.3-1.887a19.828,19.828,0,0,1,5.126-.765,8.7,8.7,0,0,1,5.3,1.734,5.836,5.836,0,0,1,2.346,5,6.786,6.786,0,0,1-.612,2.831A6.407,6.407,0,0,1,41,31.489a4.494,4.494,0,0,1,3.468,1.352,4.664,4.664,0,0,1,1.377,3.392,4.852,4.852,0,0,1-1.4,3.494,4.812,4.812,0,0,1-5.84.816,4.447,4.447,0,0,1-1.683-1.811,7.524,7.524,0,0,1-2.423,3.851A6.261,6.261,0,0,1,30.287,44.137ZM41.048,39.6a3.054,3.054,0,0,0,2.27-.969,3.325,3.325,0,0,0-.025-4.667,3.1,3.1,0,0,0-2.3-.995,3.2,3.2,0,0,0-2.346.969,3.137,3.137,0,0,0-.969,2.3,3.265,3.265,0,0,0,.995,2.346,3.2,3.2,0,0,0,2.372,1.02ZM7.9,36.232ZM24.421,9ZM41,36.232Z" transform="translate(-0.921 -1.804)" fill="#cfb05b"/>
  </g>
</svg>
